 <svg version="1.1" style="overflow: hidden; display: block;" width="350" height="250"><defs><clipPath clip-rule="nonzero" id="two-22"><path transform="matrix(1 0 0 1 0 0)" d="M -4000 -4000 L 4000 -4000 L 4000 4000 L -4000 4000 Z" fill="#fff" stroke="#000" stroke-width="1" stroke-opacity="1" fill-opacity="1" visibility="visible" stroke-linecap="butt" stroke-linejoin="miter" stroke-miterlimit="4"></path></clipPath><clipPath clip-rule="nonzero" id="two-29"><path transform="matrix(1 0 0 1 0 0)" d="M -4000 -4000 L 4000 -4000 L 4000 4000 L -4000 4000 Z" fill="#fff" stroke="#000" stroke-width="1" stroke-opacity="1" fill-opacity="1" visibility="visible" stroke-linecap="butt" stroke-linejoin="miter" stroke-miterlimit="4"></path></clipPath><clipPath clip-rule="nonzero" id="two-36"><path transform="matrix(1 0 0 1 0 0)" d="M -4000 -4000 L 4000 -4000 L 4000 4000 L -4000 4000 Z" fill="#fff" stroke="#000" stroke-width="1" stroke-opacity="1" fill-opacity="1" visibility="visible" stroke-linecap="butt" stroke-linejoin="miter" stroke-miterlimit="4"></path></clipPath></defs><g id="two-0" transform="matrix(1 0 0 1 0 0)" opacity="1"><path transform="matrix(1 0 0 1 211.589141 110.253501)" id="two-1" d="M -28.004299 65.803305 L -28.004299 -44.196695 L 28.004298 -65.803306 L 28.004298 44.196694 Z " fill="rgb(171,221,164)" stroke="rgb(121,181,124)" stroke-width="2" stroke-opacity="1" fill-opacity="1" visibility="visible" stroke-linecap="butt" stroke-linejoin="round" stroke-miterlimit="4"></path><path transform="matrix(1 0 0 1 164.87297 104.888519)" id="two-2" d="M 18.711874 71.168289 L 18.711874 -38.831711 L -18.711875 -71.16829 L -18.711875 38.83171 Z " fill="rgb(171,221,164)" stroke="rgb(121,181,124)" stroke-width="2" stroke-opacity="1" fill-opacity="1" visibility="visible" stroke-linecap="butt" stroke-linejoin="round" stroke-miterlimit="4"></path><path transform="matrix(1 0 0 1 192.877273 39.085212)" id="two-3" d="M -9.292425 26.971595 L -46.716174 -5.364984 L 9.292424 -26.971596 L 46.716173 5.364983 Z " fill="rgb(171,221,164)" stroke="rgb(121,181,124)" stroke-width="2" stroke-opacity="1" fill-opacity="1" visibility="visible" stroke-linecap="butt" stroke-linejoin="round" stroke-miterlimit="4"></path><path transform="matrix(1 0 0 1 249.012893 170.090087)" id="two-4" d="M -28.004299 38.303305 L -28.004299 -16.696695 L 28.004298 -38.303306 L 28.004298 16.696694 Z " fill="rgb(43,131,186)" stroke="rgb(13,91,136)" stroke-width="2" stroke-opacity="1" fill-opacity="1" visibility="visible" stroke-linecap="butt" stroke-linejoin="round" stroke-miterlimit="4"></path><path transform="matrix(1 0 0 1 202.296722 164.725097)" id="two-5" d="M 18.711874 43.668289 L 18.711874 -11.331711 L -18.711875 -43.66829 L -18.711875 11.33171 Z " fill="rgb(43,131,186)" stroke="rgb(13,91,136)" stroke-width="2" stroke-opacity="1" fill-opacity="1" visibility="visible" stroke-linecap="butt" stroke-linejoin="round" stroke-miterlimit="4"></path><path transform="matrix(1 0 0 1 230.301025 126.421791)" id="two-6" d="M -9.292425 26.971595 L -46.716174 -5.364984 L 9.292424 -26.971596 L 46.716173 5.364983 Z " fill="rgb(43,131,186)" stroke="rgb(13,91,136)" stroke-width="2" stroke-opacity="1" fill-opacity="1" visibility="visible" stroke-linecap="butt" stroke-linejoin="round" stroke-miterlimit="4"></path><path transform="matrix(1 0 0 1 155.580551 131.860122)" id="two-7" d="M -28.004299 65.803305 L -28.004299 -44.196695 L 28.004298 -65.803306 L 28.004298 44.196694 Z " fill="rgb(253,174,97)" stroke="rgb(203,134,37)" stroke-width="2" stroke-opacity="1" fill-opacity="1" visibility="visible" stroke-linecap="butt" stroke-linejoin="round" stroke-miterlimit="4"></path><path transform="matrix(1 0 0 1 108.864379 126.495132)" id="two-8" d="M 18.711874 71.168289 L 18.711874 -38.831711 L -18.711875 -71.16829 L -18.711875 38.83171 Z " fill="rgb(253,174,97)" stroke="rgb(203,134,37)" stroke-width="2" stroke-opacity="1" fill-opacity="1" visibility="visible" stroke-linecap="butt" stroke-linejoin="round" stroke-miterlimit="4"></path><path transform="matrix(1 0 0 1 136.868682 60.691825)" id="two-9" d="M -9.292425 26.971595 L -46.716174 -5.364984 L 9.292424 -26.971596 L 46.716173 5.364983 Z " fill="rgb(253,174,97)" stroke="rgb(203,134,37)" stroke-width="2" stroke-opacity="1" fill-opacity="1" visibility="visible" stroke-linecap="butt" stroke-linejoin="round" stroke-miterlimit="4"></path><path transform="matrix(1 0 0 1 193.004302 191.696701)" id="two-10" d="M -28.004299 38.303305 L -28.004299 -16.696695 L 28.004298 -38.303306 L 28.004298 16.696694 Z " fill="rgb(215,25,28)" stroke="rgb(120,25,28)" stroke-width="2" stroke-opacity="1" fill-opacity="1" visibility="visible" stroke-linecap="butt" stroke-linejoin="round" stroke-miterlimit="4"></path><path transform="matrix(1 0 0 1 146.288131 186.33171)" id="two-11" d="M 18.711874 43.668289 L 18.711874 -11.331711 L -18.711875 -43.66829 L -18.711875 11.33171 Z " fill="rgb(215,25,28)" stroke="rgb(120,25,28)" stroke-width="2" stroke-opacity="1" fill-opacity="1" visibility="visible" stroke-linecap="butt" stroke-linejoin="round" stroke-miterlimit="4"></path><path transform="matrix(1 0 0 1 174.292419 148.028411)" id="two-12" d="M -9.292425 26.971595 L -46.716174 -5.364984 L 9.292424 -26.971596 L 46.716173 5.364983 Z " fill="rgb(215,25,28)" stroke="rgb(120,25,28)" stroke-width="2" stroke-opacity="1" fill-opacity="1" visibility="visible" stroke-linecap="butt" stroke-linejoin="round" stroke-miterlimit="4"></path><path transform="matrix(1 0 0 1 221.00859 125.893386)" id="two-13" d="M -56.008598 49.106611 L -56.008598 -5.893389 L 56.008597 -49.106612 L 56.008597 5.893388 Z " fill="rgb(255,255,159)" stroke="rgb(215,215,191)" stroke-width="2" stroke-opacity="1" fill-opacity="1" visibility="visible" stroke-linecap="butt" stroke-linejoin="round" stroke-miterlimit="4"></path><path transform="matrix(1 0 0 1 146.288131 131.33171)" id="two-14" d="M 18.711874 43.668289 L 18.711874 -11.331711 L -18.711875 -43.66829 L -18.711875 11.33171 Z " fill="rgb(255,255,159)" stroke="rgb(215,215,191)" stroke-width="2" stroke-opacity="1" fill-opacity="1" visibility="visible" stroke-linecap="butt" stroke-linejoin="round" stroke-miterlimit="4"></path><path transform="matrix(1 0 0 1 202.296722 82.225097)" id="two-15" d="M -37.296724 37.7749 L -74.720473 5.438321 L 37.296723 -37.774901 L 74.720472 -5.438322 Z " fill="rgb(255,255,159)" stroke="rgb(215,215,191)" stroke-width="2" stroke-opacity="1" fill-opacity="1" visibility="visible" stroke-linecap="butt" stroke-linejoin="round" stroke-miterlimit="4"></path><path transform="matrix(1 0 0 1 0 0)" id="two-16" d="M 50 50 L 70.366762 42.14305 " fill="rgba(0,0,0,0)" stroke="rgb(240,10,20)" stroke-width="3" stroke-opacity="1" fill-opacity="1" visibility="visible" stroke-linecap="round" stroke-linejoin="miter" stroke-miterlimit="4"></path><g id="two-17" transform="matrix(0.017999 0 0 -0.018 75.550148 38.214576)" opacity="1" clip-path="url(#two-22)"><g id="two-18" transform="matrix(1 0 0 1 0 0)" opacity="1"><g id="two-19" transform="matrix(1 0 0 1 0 0)" opacity="1" data-mml-node="math"><g id="two-20" transform="matrix(1 0 0 1 0 0)" opacity="1" data-mml-node="mi"><path transform="matrix(1 0 0 1 318.5 215.5)" id="two-21" d="M -284.5 -59.5 C -284.5 -21.88 -284.5 54.5 -198.5 140.5 C -170.12 168.88 -112.5 226.5 -9.5 226.5 C 13.6 226.5 60.5 226.5 102.5 186.5 C 116.36 173.3 144.5 146.5 159.5 88.5 C 161.48 78.93 165.5 59.5 166.5 21.5 L 166.5 -7.5 C 182.67 16.92 215.5 66.5 241.5 158.5 C 242.82 163.12 245.5 172.5 247.5 174.5 C 248.16 175.16 249.5 176.5 263.5 177.5 C 270.43 177.5 284.5 177.5 284.5 169.5 C 284.5 166.53 284.5 160.5 275.5 130.5 C 272.53 120.6 266.5 100.5 239.5 45.5 C 230.59 27.349999 212.5 -9.5 178.5 -54.5 L 167.5 -68.5 L 168.5 -92.5 C 169.16 -110.98 170.5 -148.5 176.5 -168.5 C 178.48 -175.1 182.5 -188.5 195.5 -189.5 C 200.12 -188.84 209.5 -187.5 221.5 -178.5 C 225.46 -175.53 233.5 -169.5 238.5 -155.5 C 239.16 -153.19 240.5 -148.5 243.5 -147.5 C 244.49 -147.17 246.5 -146.5 258.5 -145.5 C 265.1 -145.5 278.5 -145.5 278.5 -153.5 C 278.5 -155.48 278.5 -159.5 272.5 -172.5 C 268.54 -180.42 260.5 -196.5 237.5 -210.5 C 229.91 -215.12 214.5 -224.5 193.5 -225.5 L 186.5 -225.5 C 164.39 -225.5 119.5 -225.5 95.5 -153.5 L 92.5 -146.5 L 81.5 -154.5 C 78.2 -157.14 71.5 -162.5 51.5 -174.5 C 44.9 -178.46 31.5 -186.5 6.5 -197.5 C -1.75 -201.13 -18.5 -208.5 -51.5 -217.5 C -62.39 -220.47 -84.5 -226.5 -115.5 -226.5 C -141.57 -226.5 -194.5 -226.5 -239.5 -176.5 C -254.35 -160 -284.5 -126.5 -284.5 -59.5 Z M -110.5 -189.5 C -94.33 -189.5 -61.5 -189.5 -12.5 -168.5 C 3.67 -161.57 36.5 -147.5 60.5 -125.5 L 84.5 -103.5 C 83.84 -56.31 82.5 39.5 77.5 74.5 C 72.88 112.45 63.5 189.5 -14.5 189.5 C -37.27 189.5 -83.5 189.5 -135.5 116.5 C -144.41 103.3 -162.5 76.5 -179.5 8.5 C -185.11 -13.940001 -196.5 -59.5 -197.5 -95.5 C -197.5 -111.67 -197.5 -144.5 -172.5 -166.5 C -164.25 -173.76 -147.5 -188.5 -110.5 -189.5 C -110.5 -189.5 -110.5 -189.5 -110.5 -189.5 Z " fill="rgb(0, 0, 0)" stroke="none" stroke-width="1" stroke-opacity="1" fill-opacity="1" visibility="visible" stroke-linecap="butt" stroke-linejoin="miter" stroke-miterlimit="4"></path></g></g></g></g><path transform="matrix(1 0 0 1 0 0)" id="two-23" d="M 50 50 L 36.391364 38.241243 " fill="rgba(0,0,0,0)" stroke="rgb(32,220,32)" stroke-width="3" stroke-opacity="1" fill-opacity="1" visibility="visible" stroke-linecap="round" stroke-linejoin="miter" stroke-miterlimit="4"></path><g id="two-24" transform="matrix(0.017999 0 0 -0.018 24.587045 32.361865)" opacity="1" clip-path="url(#two-29)"><g id="two-25" transform="matrix(1 0 0 1 0 0)" opacity="1"><g id="two-26" transform="matrix(1 0 0 1 0 0)" opacity="1" data-mml-node="math"><g id="two-27" transform="matrix(1 0 0 1 0 0)" opacity="1" data-mml-node="mi"><path transform="matrix(1 0 0 1 298 255.5)" id="two-28" d="M -269 -449.5 C -270.98 -447.52 -275 -443.5 -275 -441.5 C -275 -440.51 -275 -438.5 -196 -121.5 C -169.93 -16.89 -117 195.5 -112 209.5 C -104.74 231.94 -90 277.5 -55 328.5 C -43.45 345.33 -20 379.5 11 402.5 C 29.48 418.01 67 449.5 131 449.5 L 133 449.5 C 153.46 449.5 195 449.5 235 411.5 C 248.2 398.96 275 373.5 275 314.5 C 275 279.85 275 209.5 171 140.5 L 184 127.5 C 200.83 110.67 235 76.5 235 -3.5 C 235 -40.79 235 -116.5 150 -190.5 C 121.95 -214.920001 65 -264.5 -41 -265.5 C -50.9 -265.5 -71 -265.5 -95 -257.5 C -102.92 -254.86 -119 -249.5 -133 -238.5 C -137.62 -234.87 -147 -227.5 -155 -215.5 C -157.64 -211.54 -163 -203.5 -167 -196.5 C -168.32 -194.19 -171 -189.5 -172 -190.5 L -236 -443.5 C -236.66 -445.48 -238 -449.5 -256 -449.5 L -269 -449.5 Z M 55 175.5 C 67.87 175.5 94 175.5 129 163.5 L 134 166.5 C 135.32 167.82 138 170.5 141 173.5 C 141.99 174.49 144 176.5 151 183.5 C 153.31 185.81 158 190.5 163 197.5 C 164.65 199.81 168 204.5 174 215.5 C 175.98 219.13 180 226.5 186 239.5 C 187.98 243.79 192 252.5 195 268.5 C 195.99 273.78 198 284.5 203 304.5 C 203.66 307.47 205 313.5 205 337.5 C 205 343.44 205 355.5 204 360.5 C 199.05 377.33 189 411.5 128 411.5 C 114.14 411.5 86 411.5 49 387.5 C 36.79 379.58 12 363.5 -12 326.5 C -19.92 314.29 -36 289.5 -51 258.5 C -55.95 248.27 -66 227.5 -74 199.5 C -75.65 194.22 -79 183.5 -112 52.5 C -122.89 9.269999 -145 -78.5 -146 -87.5 C -146.33 -89.15 -147 -92.5 -147 -108.5 C -147 -124.34 -147 -156.5 -125 -187.5 C -114.77 -201.36 -94 -229.5 -38 -229.5 C -24.14 -229.5 4 -229.5 51 -204.5 C 66.51 -196.25 98 -179.5 127 -118.5 C 132.28 -107.28 143 -84.5 151 -41.5 C 153.64 -27.31 159 1.5 159 23.5 C 159 42.64 159 81.5 124 116.5 C 110.14 111.88 82 102.5 49 102.5 L 39 102.5 C 12.93 102.5 -40 102.5 -40 133.5 C -40 135.81 -40 140.5 -37 147.5 C -32.380001 156.74 -23 175.5 55 175.5 C 55 175.5 55 175.5 55 175.5 Z " fill="rgb(0, 0, 0)" stroke="none" stroke-width="1" stroke-opacity="1" fill-opacity="1" visibility="visible" stroke-linecap="butt" stroke-linejoin="miter" stroke-miterlimit="4"></path></g></g></g></g><path transform="matrix(1 0 0 1 0 0)" id="two-30" d="M 50 50 L 50 30 " fill="rgba(0,0,0,0)" stroke="rgb(20,10,240)" stroke-width="3" stroke-opacity="1" fill-opacity="1" visibility="visible" stroke-linecap="round" stroke-linejoin="miter" stroke-miterlimit="4"></path><g id="two-31" transform="matrix(0.017999 0 0 -0.018 45 20)" opacity="1" clip-path="url(#two-36)"><g id="two-32" transform="matrix(1 0 0 1 0 0)" opacity="1"><g id="two-33" transform="matrix(1 0 0 1 0 0)" opacity="1" data-mml-node="math"><g id="two-34" transform="matrix(1 0 0 1 0 0)" opacity="1" data-mml-node="mi"><path transform="matrix(1 0 0 1 277 112.5)" id="two-35" d="M -246 136.5 C -252.6 136.5 -266 136.5 -266 145.5 C -266 151.11 -266 162.5 -251 191.5 C -246.05 201.07 -236 220.5 -211 252.5 C -202.75 263.06 -186 284.5 -148 305.5 C -135.46 312.43 -110 326.5 -71 328.5 C -62.09 328.5 -44 328.5 -38 327.5 C -22.16 323.87 10 316.5 41 273.5 C 51.23 259.31 72 230.5 94 142.5 C 98.62 122.7 108 82.5 108 57.5 C 108 56.18 108 53.5 109 53.5 L 121 80.5 C 127.6 97.33 141 131.5 166 187.5 C 174.25 205.98 191 243.5 209 278.5 C 214.94 290.05 227 313.5 231 317.5 C 231.66 317.83 233 318.5 247 318.5 L 260 318.5 C 261.98 316.52 266 312.5 266 309.5 C 266 308.18 266 305.5 245 265.5 C 238.07 252.3 224 225.5 186 138.5 C 173.46 109.789999 148 51.5 114 -41.5 C 112.02 -46.78 108 -57.5 101 -106.5 C 98.69 -122.67 94 -155.5 80 -212.5 C 74.72 -233.95 64 -277.5 53 -302.5 C 49.37 -310.75 42 -327.5 26 -328.5 C 20.39 -328.5 9 -328.5 9 -300.5 C 9 -284 9 -250.5 63 -80.5 L 69 -61.5 L 70 -43.5 C 70.33 -40.2 71 -33.5 71 -12.5 C 71 39.31 71 144.5 14 204.5 C 0.799999 217.04 -26 242.5 -81 242.5 C -96.84 242.5 -129 242.5 -169 216.5 C -182.2 207.92 -209 190.5 -226 147.5 C -226.66 144.53 -228 138.5 -230 138.5 C -230.66 137.84 -232 136.5 -246 136.5 C -246 136.5 -246 136.5 -246 136.5 Z " fill="rgb(0, 0, 0)" stroke="none" stroke-width="1" stroke-opacity="1" fill-opacity="1" visibility="visible" stroke-linecap="butt" stroke-linejoin="miter" stroke-miterlimit="4"></path></g></g></g></g><path transform="matrix(1 0 0 1 50 50)" id="two-37" d="M 3 0 C 3 1.656854 1.656854 3 0 3 C -1.656855 3 -3 1.656854 -3 0 C -3.000001 -1.656855 -1.656855 -3 -0.000001 -3 C 1.656854 -3.000001 3 -1.656855 3 0 Z " fill="#000" stroke="#000" stroke-width="0" stroke-opacity="1" fill-opacity="1" visibility="visible" stroke-linecap="butt" stroke-linejoin="miter" stroke-miterlimit="4"></path></g></svg>