<svg version="1.1" style="overflow: hidden; display: block;" width="900" height="800"><defs></defs><g id="two-0" transform="matrix(1 0 0 1 0 0)" opacity="1"><path transform="matrix(1 0 0 1 419.5 90.5)" id="two-1" d="M -371.25 -41.25 L -363.75 -41.25 L -363.75 -30 L -363.75 -26.25 L -360 -26.25 L -356.25 -26.25 L -356.25 -30 L -356.25 -41.25 L -345 -41.25 L -333.75 -41.25 L -330 -41.25 L -318.75 -41.25 L -318.75 -30 L -318.75 -18.75 L -330 -18.75 L -333.75 -18.75 L -333.75 -15 L -333.75 -11.25 L -330 -11.25 L -318.75 -11.25 L -318.75 0 L -318.75 11.25 L -330 11.25 L -341.25 11.25 L -345 11.25 L -356.25 11.25 L -356.25 0 L -356.25 -3.75 L -360 -3.75 L -363.75 -3.75 L -363.75 0 L -363.75 11.25 L -363.75 15 L -363.75 26.25 L -363.75 30 L -363.75 33.75 L -360 33.75 L -356.25 33.75 L -356.25 30 L -356.25 18.75 L -345 18.75 L -333.75 18.75 L -333.75 30 L -333.75 33.75 L -330 33.75 L -326.25 33.75 L -326.25 30 L -326.25 18.75 L -315 18.75 L -303.75 18.75 L -303.75 30 L -303.75 33.75 L -300 33.75 L -296.25 33.75 L -296.25 30 L -296.25 18.75 L -285 18.75 L -273.75 18.75 L -273.75 30 L -273.75 33.75 L -270 33.75 L -266.25 33.75 L -266.25 30 L -266.25 18.75 L -266.25 15 L -266.25 3.75 L -266.25 0 L -266.25 -3.75 L -270 -3.75 L -273.75 -3.75 L -273.75 0 L -273.75 11.25 L -285 11.25 L -296.25 11.25 L -300 11.25 L -311.25 11.25 L -311.25 0 L -311.25 -11.25 L -300 -11.25 L -296.25 -11.25 L -296.25 -15 L -296.25 -18.75 L -300 -18.75 L -311.25 -18.75 L -311.25 -30 L -311.25 -41.25 L -300 -41.25 L -288.75 -41.25 L -285 -41.25 L -273.75 -41.25 L -273.75 -30 L -273.75 -26.25 L -270 -26.25 L -266.25 -26.25 L -266.25 -30 L -266.25 -41.25 L -255 -41.25 L -243.75 -41.25 L -243.75 -30 L -243.75 -26.25 L -240 -26.25 L -236.25 -26.25 L -236.25 -30 L -236.25 -41.25 L -225 -41.25 L -213.75 -41.25 L -213.75 -30 L -213.75 -18.75 L -213.75 -15 L -213.75 -3.75 L -213.75 0 L -213.75 11.25 L -225 11.25 L -236.25 11.25 L -236.25 0 L -236.25 -3.75 L -240 -3.75 L -243.75 -3.75 L -243.75 0 L -243.75 11.25 L -243.75 15 L -243.75 26.25 L -243.75 30 L -243.75 33.75 L -240 33.75 L -236.25 33.75 L -236.25 30 L -236.25 18.75 L -225 18.75 L -213.75 18.75 L -213.75 30 L -213.75 33.75 L -210 33.75 L -206.25 33.75 L -206.25 30 L -206.25 18.75 L -195 18.75 L -183.75 18.75 L -183.75 30 L -183.75 33.75 L -180 33.75 L -176.25 33.75 L -176.25 30 L -176.25 18.75 L -176.25 15 L -176.25 3.75 L -176.25 0 L -176.25 -3.75 L -180 -3.75 L -183.75 -3.75 L -183.75 0 L -183.75 11.25 L -195 11.25 L -206.25 11.25 L -206.25 0 L -206.25 -11.25 L -206.25 -15 L -206.25 -26.25 L -206.25 -30 L -206.25 -41.25 L -195 -41.25 L -183.75 -41.25 L -183.75 -30 L -183.75 -26.25 L -180 -26.25 L -176.25 -26.25 L -176.25 -30 L -176.25 -41.25 L -165 -41.25 L -153.75 -41.25 L -153.75 -30 L -153.75 -26.25 L -150 -26.25 L -146.25 -26.25 L -146.25 -30 L -146.25 -41.25 L -135 -41.25 L -123.75 -41.25 L -123.75 -30 L -123.75 -18.75 L -123.75 -15 L -123.75 -3.75 L -123.75 0 L -123.75 11.25 L -135 11.25 L -146.25 11.25 L -146.25 0 L -146.25 -3.75 L -150 -3.75 L -153.75 -3.75 L -153.75 0 L -153.75 11.25 L -153.75 15 L -153.75 26.25 L -153.75 30 L -153.75 33.75 L -150 33.75 L -146.25 33.75 L -146.25 30 L -146.25 18.75 L -135 18.75 L -123.75 18.75 L -123.75 30 L -123.75 33.75 L -120 33.75 L -116.25 33.75 L -116.25 30 L -116.25 18.75 L -105 18.75 L -93.75 18.75 L -93.75 30 L -93.75 33.75 L -90 33.75 L -86.25 33.75 L -86.25 30 L -86.25 18.75 L -86.25 15 L -86.25 3.75 L -86.25 0 L -86.25 -3.75 L -90 -3.75 L -93.75 -3.75 L -93.75 0 L -93.75 11.25 L -105 11.25 L -116.25 11.25 L -116.25 0 L -116.25 -11.25 L -116.25 -15 L -116.25 -26.25 L -116.25 -30 L -116.25 -41.25 L -105 -41.25 L -93.75 -41.25 L -93.75 -30 L -93.75 -26.25 L -90 -26.25 L -86.25 -26.25 L -86.25 -30 L -86.25 -41.25 L -75 -41.25 L -63.75 -41.25 L -63.75 -30 L -63.75 -26.25 L -60 -26.25 L -56.25 -26.25 L -56.25 -30 L -56.25 -41.25 L -45 -41.25 L -33.75 -41.25 L -33.75 -30 L -33.75 -18.75 L -33.75 -15 L -33.75 -3.75 L -33.75 0 L -33.75 11.25 L -45 11.25 L -56.25 11.25 L -56.25 0 L -56.25 -3.75 L -60 -3.75 L -63.75 -3.75 L -63.75 0 L -63.75 11.25 L -63.75 15 L -63.75 26.25 L -63.75 30 L -63.75 33.75 L -60 33.75 L -56.25 33.75 L -56.25 30 L -56.25 18.75 L -45 18.75 L -33.75 18.75 L -33.75 30 L -33.75 33.75 L -30 33.75 L -26.25 33.75 L -26.25 30 L -26.25 18.75 L -15 18.75 L -3.75 18.75 L -3.75 30 L -3.75 33.75 L 0 33.75 L 3.75 33.75 L 3.75 30 L 3.75 18.75 L 3.75 15 L 3.75 3.75 L 3.75 0 L 3.75 -3.75 L 0 -3.75 L -3.75 -3.75 L -3.75 0 L -3.75 11.25 L -15 11.25 L -26.25 11.25 L -26.25 0 L -26.25 -11.25 L -26.25 -15 L -26.25 -26.25 L -26.25 -30 L -26.25 -41.25 L -15 -41.25 L -3.75 -41.25 L -3.75 -30 L -3.75 -26.25 L 0 -26.25 L 3.75 -26.25 L 3.75 -30 L 3.75 -41.25 L 15 -41.25 L 26.25 -41.25 L 26.25 -30 L 26.25 -26.25 L 30 -26.25 L 33.75 -26.25 L 33.75 -30 L 33.75 -41.25 L 45 -41.25 L 56.25 -41.25 L 56.25 -30 L 56.25 -18.75 L 56.25 -15 L 56.25 -3.75 L 56.25 0 L 56.25 11.25 L 45 11.25 L 33.75 11.25 L 33.75 0 L 33.75 -3.75 L 30 -3.75 L 26.25 -3.75 L 26.25 0 L 26.25 11.25 L 26.25 15 L 26.25 26.25 L 26.25 30 L 26.25 33.75 L 30 33.75 L 33.75 33.75 L 33.75 30 L 33.75 18.75 L 45 18.75 L 56.25 18.75 L 56.25 30 L 56.25 33.75 L 60 33.75 L 63.75 33.75 L 63.75 30 L 63.75 18.75 L 75 18.75 L 86.25 18.75 L 86.25 30 L 86.25 33.75 L 90 33.75 L 93.75 33.75 L 93.75 30 L 93.75 18.75 L 93.75 15 L 93.75 3.75 L 93.75 0 L 93.75 -3.75 L 90 -3.75 L 86.25 -3.75 L 86.25 0 L 86.25 11.25 L 75 11.25 L 63.75 11.25 L 63.75 0 L 63.75 -11.25 L 63.75 -15 L 63.75 -26.25 L 63.75 -30 L 63.75 -41.25 L 75 -41.25 L 86.25 -41.25 L 86.25 -30 L 86.25 -26.25 L 90 -26.25 L 93.75 -26.25 L 93.75 -30 L 93.75 -41.25 L 105 -41.25 L 116.25 -41.25 L 116.25 -30 L 116.25 -26.25 L 120 -26.25 L 123.75 -26.25 L 123.75 -30 L 123.75 -41.25 L 135 -41.25 L 146.25 -41.25 L 146.25 -30 L 146.25 -18.75 L 146.25 -15 L 146.25 -3.75 L 146.25 0 L 146.25 11.25 L 135 11.25 L 123.75 11.25 L 123.75 0 L 123.75 -3.75 L 120 -3.75 L 116.25 -3.75 L 116.25 0 L 116.25 11.25 L 116.25 15 L 116.25 26.25 L 116.25 30 L 116.25 33.75 L 120 33.75 L 123.75 33.75 L 123.75 30 L 123.75 18.75 L 135 18.75 L 146.25 18.75 L 146.25 30 L 146.25 33.75 L 150 33.75 L 153.75 33.75 L 153.75 30 L 153.75 18.75 L 165 18.75 L 176.25 18.75 L 176.25 30 L 176.25 33.75 L 180 33.75 L 183.75 33.75 L 183.75 30 L 183.75 18.75 L 183.75 15 L 183.75 3.75 L 183.75 0 L 183.75 -3.75 L 180 -3.75 L 176.25 -3.75 L 176.25 0 L 176.25 11.25 L 165 11.25 L 153.75 11.25 L 153.75 0 L 153.75 -11.25 L 153.75 -15 L 153.75 -26.25 L 153.75 -30 L 153.75 -41.25 L 165 -41.25 L 176.25 -41.25 L 176.25 -30 L 176.25 -26.25 L 180 -26.25 L 183.75 -26.25 L 183.75 -30 L 183.75 -41.25 L 195 -41.25 L 206.25 -41.25 L 206.25 -30 L 206.25 -26.25 L 210 -26.25 L 213.75 -26.25 L 213.75 -30 L 213.75 -41.25 L 225 -41.25 L 236.25 -41.25 L 236.25 -30 L 236.25 -18.75 L 236.25 -15 L 236.25 -3.75 L 236.25 0 L 236.25 11.25 L 225 11.25 L 213.75 11.25 L 213.75 0 L 213.75 -3.75 L 210 -3.75 L 206.25 -3.75 L 206.25 0 L 206.25 11.25 L 206.25 15 L 206.25 26.25 L 206.25 30 L 206.25 33.75 L 210 33.75 L 213.75 33.75 L 213.75 30 L 213.75 18.75 L 225 18.75 L 236.25 18.75 L 236.25 30 L 236.25 33.75 L 240 33.75 L 243.75 33.75 L 243.75 30 L 243.75 18.75 L 255 18.75 L 266.25 18.75 L 266.25 30 L 266.25 33.75 L 270 33.75 L 273.75 33.75 L 273.75 30 L 273.75 18.75 L 273.75 15 L 273.75 3.75 L 273.75 0 L 273.75 -3.75 L 270 -3.75 L 266.25 -3.75 L 266.25 0 L 266.25 11.25 L 255 11.25 L 243.75 11.25 L 243.75 0 L 243.75 -11.25 L 243.75 -15 L 243.75 -26.25 L 243.75 -30 L 243.75 -41.25 L 255 -41.25 L 266.25 -41.25 L 266.25 -30 L 266.25 -26.25 L 270 -26.25 L 273.75 -26.25 L 273.75 -30 L 273.75 -41.25 L 285 -41.25 L 296.25 -41.25 L 296.25 -30 L 296.25 -26.25 L 300 -26.25 L 303.75 -26.25 L 303.75 -30 L 303.75 -41.25 L 315 -41.25 L 326.25 -41.25 L 326.25 -30 L 326.25 -18.75 L 326.25 -15 L 326.25 -3.75 L 326.25 0 L 326.25 11.25 L 315 11.25 L 303.75 11.25 L 303.75 0 L 303.75 -3.75 L 300 -3.75 L 296.25 -3.75 L 296.25 0 L 296.25 11.25 L 296.25 15 L 296.25 26.25 L 296.25 30 L 296.25 33.75 L 300 33.75 L 303.75 33.75 L 303.75 30 L 303.75 18.75 L 315 18.75 L 326.25 18.75 L 326.25 30 L 326.25 33.75 L 330 33.75 L 333.75 33.75 L 333.75 30 L 333.75 18.75 L 345 18.75 L 356.25 18.75 L 356.25 30 L 356.25 33.75 L 360 33.75 L 363.75 33.75 L 363.75 30 L 363.75 18.75 L 363.75 15 L 363.75 3.75 L 363.75 0 L 363.75 -3.75 L 360 -3.75 L 356.25 -3.75 L 356.25 0 L 356.25 11.25 L 345 11.25 L 333.75 11.25 L 333.75 0 L 333.75 -11.25 L 333.75 -15 L 333.75 -26.25 L 333.75 -30 L 333.75 -41.25 L 345 -41.25 L 356.25 -41.25 L 356.25 -30 L 356.25 -26.25 L 360 -26.25 L 363.75 -26.25 L 363.75 -30 L 363.75 -33.75 L 371.25 -33.75 L 371.25 -30 L 371.25 -18.75 L 360 -18.75 L 348.75 -18.75 L 348.75 -30 L 348.75 -33.75 L 345 -33.75 L 341.25 -33.75 L 341.25 -30 L 341.25 -18.75 L 341.25 -15 L 341.25 -3.75 L 341.25 0 L 341.25 3.75 L 345 3.75 L 348.75 3.75 L 348.75 0 L 348.75 -11.25 L 360 -11.25 L 371.25 -11.25 L 371.25 0 L 371.25 11.25 L 371.25 15 L 371.25 26.25 L 371.25 30 L 371.25 41.25 L 360 41.25 L 348.75 41.25 L 348.75 30 L 348.75 26.25 L 345 26.25 L 341.25 26.25 L 341.25 30 L 341.25 41.25 L 330 41.25 L 318.75 41.25 L 318.75 30 L 318.75 26.25 L 315 26.25 L 311.25 26.25 L 311.25 30 L 311.25 41.25 L 300 41.25 L 288.75 41.25 L 288.75 30 L 288.75 18.75 L 288.75 15 L 288.75 3.75 L 288.75 0 L 288.75 -11.25 L 300 -11.25 L 311.25 -11.25 L 311.25 0 L 311.25 3.75 L 315 3.75 L 318.75 3.75 L 318.75 0 L 318.75 -11.25 L 318.75 -15 L 318.75 -26.25 L 318.75 -30 L 318.75 -33.75 L 315 -33.75 L 311.25 -33.75 L 311.25 -30 L 311.25 -18.75 L 300 -18.75 L 288.75 -18.75 L 288.75 -30 L 288.75 -33.75 L 285 -33.75 L 281.25 -33.75 L 281.25 -30 L 281.25 -18.75 L 270 -18.75 L 258.75 -18.75 L 258.75 -30 L 258.75 -33.75 L 255 -33.75 L 251.25 -33.75 L 251.25 -30 L 251.25 -18.75 L 251.25 -15 L 251.25 -3.75 L 251.25 0 L 251.25 3.75 L 255 3.75 L 258.75 3.75 L 258.75 0 L 258.75 -11.25 L 270 -11.25 L 281.25 -11.25 L 281.25 0 L 281.25 11.25 L 281.25 15 L 281.25 26.25 L 281.25 30 L 281.25 41.25 L 270 41.25 L 258.75 41.25 L 258.75 30 L 258.75 26.25 L 255 26.25 L 251.25 26.25 L 251.25 30 L 251.25 41.25 L 240 41.25 L 228.75 41.25 L 228.75 30 L 228.75 26.25 L 225 26.25 L 221.25 26.25 L 221.25 30 L 221.25 41.25 L 210 41.25 L 198.75 41.25 L 198.75 30 L 198.75 18.75 L 198.75 15 L 198.75 3.75 L 198.75 0 L 198.75 -11.25 L 210 -11.25 L 221.25 -11.25 L 221.25 0 L 221.25 3.75 L 225 3.75 L 228.75 3.75 L 228.75 0 L 228.75 -11.25 L 228.75 -15 L 228.75 -26.25 L 228.75 -30 L 228.75 -33.75 L 225 -33.75 L 221.25 -33.75 L 221.25 -30 L 221.25 -18.75 L 210 -18.75 L 198.75 -18.75 L 198.75 -30 L 198.75 -33.75 L 195 -33.75 L 191.25 -33.75 L 191.25 -30 L 191.25 -18.75 L 180 -18.75 L 168.75 -18.75 L 168.75 -30 L 168.75 -33.75 L 165 -33.75 L 161.25 -33.75 L 161.25 -30 L 161.25 -18.75 L 161.25 -15 L 161.25 -3.75 L 161.25 0 L 161.25 3.75 L 165 3.75 L 168.75 3.75 L 168.75 0 L 168.75 -11.25 L 180 -11.25 L 191.25 -11.25 L 191.25 0 L 191.25 11.25 L 191.25 15 L 191.25 26.25 L 191.25 30 L 191.25 41.25 L 180 41.25 L 168.75 41.25 L 168.75 30 L 168.75 26.25 L 165 26.25 L 161.25 26.25 L 161.25 30 L 161.25 41.25 L 150 41.25 L 138.75 41.25 L 138.75 30 L 138.75 26.25 L 135 26.25 L 131.25 26.25 L 131.25 30 L 131.25 41.25 L 120 41.25 L 108.75 41.25 L 108.75 30 L 108.75 18.75 L 108.75 15 L 108.75 3.75 L 108.75 0 L 108.75 -11.25 L 120 -11.25 L 131.25 -11.25 L 131.25 0 L 131.25 3.75 L 135 3.75 L 138.75 3.75 L 138.75 0 L 138.75 -11.25 L 138.75 -15 L 138.75 -26.25 L 138.75 -30 L 138.75 -33.75 L 135 -33.75 L 131.25 -33.75 L 131.25 -30 L 131.25 -18.75 L 120 -18.75 L 108.75 -18.75 L 108.75 -30 L 108.75 -33.75 L 105 -33.75 L 101.25 -33.75 L 101.25 -30 L 101.25 -18.75 L 90 -18.75 L 78.75 -18.75 L 78.75 -30 L 78.75 -33.75 L 75 -33.75 L 71.25 -33.75 L 71.25 -30 L 71.25 -18.75 L 71.25 -15 L 71.25 -3.75 L 71.25 0 L 71.25 3.75 L 75 3.75 L 78.75 3.75 L 78.75 0 L 78.75 -11.25 L 90 -11.25 L 101.25 -11.25 L 101.25 0 L 101.25 11.25 L 101.25 15 L 101.25 26.25 L 101.25 30 L 101.25 41.25 L 90 41.25 L 78.75 41.25 L 78.75 30 L 78.75 26.25 L 75 26.25 L 71.25 26.25 L 71.25 30 L 71.25 41.25 L 60 41.25 L 48.75 41.25 L 48.75 30 L 48.75 26.25 L 45 26.25 L 41.25 26.25 L 41.25 30 L 41.25 41.25 L 30 41.25 L 18.75 41.25 L 18.75 30 L 18.75 18.75 L 18.75 15 L 18.75 3.75 L 18.75 0 L 18.75 -11.25 L 30 -11.25 L 41.25 -11.25 L 41.25 0 L 41.25 3.75 L 45 3.75 L 48.75 3.75 L 48.75 0 L 48.75 -11.25 L 48.75 -15 L 48.75 -26.25 L 48.75 -30 L 48.75 -33.75 L 45 -33.75 L 41.25 -33.75 L 41.25 -30 L 41.25 -18.75 L 30 -18.75 L 18.75 -18.75 L 18.75 -30 L 18.75 -33.75 L 15 -33.75 L 11.25 -33.75 L 11.25 -30 L 11.25 -18.75 L 0 -18.75 L -11.25 -18.75 L -11.25 -30 L -11.25 -33.75 L -15 -33.75 L -18.75 -33.75 L -18.75 -30 L -18.75 -18.75 L -18.75 -15 L -18.75 -3.75 L -18.75 0 L -18.75 3.75 L -15 3.75 L -11.25 3.75 L -11.25 0 L -11.25 -11.25 L 0 -11.25 L 11.25 -11.25 L 11.25 0 L 11.25 11.25 L 11.25 15 L 11.25 26.25 L 11.25 30 L 11.25 41.25 L 0 41.25 L -11.25 41.25 L -11.25 30 L -11.25 26.25 L -15 26.25 L -18.75 26.25 L -18.75 30 L -18.75 41.25 L -30 41.25 L -41.25 41.25 L -41.25 30 L -41.25 26.25 L -45 26.25 L -48.75 26.25 L -48.75 30 L -48.75 41.25 L -60 41.25 L -71.25 41.25 L -71.25 30 L -71.25 18.75 L -71.25 15 L -71.25 3.75 L -71.25 0 L -71.25 -11.25 L -60 -11.25 L -48.75 -11.25 L -48.75 0 L -48.75 3.75 L -45 3.75 L -41.25 3.75 L -41.25 0 L -41.25 -11.25 L -41.25 -15 L -41.25 -26.25 L -41.25 -30 L -41.25 -33.75 L -45 -33.75 L -48.75 -33.75 L -48.75 -30 L -48.75 -18.75 L -60 -18.75 L -71.25 -18.75 L -71.25 -30 L -71.25 -33.75 L -75 -33.75 L -78.75 -33.75 L -78.75 -30 L -78.75 -18.75 L -90 -18.75 L -101.25 -18.75 L -101.25 -30 L -101.25 -33.75 L -105 -33.75 L -108.75 -33.75 L -108.75 -30 L -108.75 -18.75 L -108.75 -15 L -108.75 -3.75 L -108.75 0 L -108.75 3.75 L -105 3.75 L -101.25 3.75 L -101.25 0 L -101.25 -11.25 L -90 -11.25 L -78.75 -11.25 L -78.75 0 L -78.75 11.25 L -78.75 15 L -78.75 26.25 L -78.75 30 L -78.75 41.25 L -90 41.25 L -101.25 41.25 L -101.25 30 L -101.25 26.25 L -105 26.25 L -108.75 26.25 L -108.75 30 L -108.75 41.25 L -120 41.25 L -131.25 41.25 L -131.25 30 L -131.25 26.25 L -135 26.25 L -138.75 26.25 L -138.75 30 L -138.75 41.25 L -150 41.25 L -161.25 41.25 L -161.25 30 L -161.25 18.75 L -161.25 15 L -161.25 3.75 L -161.25 0 L -161.25 -11.25 L -150 -11.25 L -138.75 -11.25 L -138.75 0 L -138.75 3.75 L -135 3.75 L -131.25 3.75 L -131.25 0 L -131.25 -11.25 L -131.25 -15 L -131.25 -26.25 L -131.25 -30 L -131.25 -33.75 L -135 -33.75 L -138.75 -33.75 L -138.75 -30 L -138.75 -18.75 L -150 -18.75 L -161.25 -18.75 L -161.25 -30 L -161.25 -33.75 L -165 -33.75 L -168.75 -33.75 L -168.75 -30 L -168.75 -18.75 L -180 -18.75 L -191.25 -18.75 L -191.25 -30 L -191.25 -33.75 L -195 -33.75 L -198.75 -33.75 L -198.75 -30 L -198.75 -18.75 L -198.75 -15 L -198.75 -3.75 L -198.75 0 L -198.75 3.75 L -195 3.75 L -191.25 3.75 L -191.25 0 L -191.25 -11.25 L -180 -11.25 L -168.75 -11.25 L -168.75 0 L -168.75 11.25 L -168.75 15 L -168.75 26.25 L -168.75 30 L -168.75 41.25 L -180 41.25 L -191.25 41.25 L -191.25 30 L -191.25 26.25 L -195 26.25 L -198.75 26.25 L -198.75 30 L -198.75 41.25 L -210 41.25 L -221.25 41.25 L -221.25 30 L -221.25 26.25 L -225 26.25 L -228.75 26.25 L -228.75 30 L -228.75 41.25 L -240 41.25 L -251.25 41.25 L -251.25 30 L -251.25 18.75 L -251.25 15 L -251.25 3.75 L -251.25 0 L -251.25 -11.25 L -240 -11.25 L -228.75 -11.25 L -228.75 0 L -228.75 3.75 L -225 3.75 L -221.25 3.75 L -221.25 0 L -221.25 -11.25 L -221.25 -15 L -221.25 -26.25 L -221.25 -30 L -221.25 -33.75 L -225 -33.75 L -228.75 -33.75 L -228.75 -30 L -228.75 -18.75 L -240 -18.75 L -251.25 -18.75 L -251.25 -30 L -251.25 -33.75 L -255 -33.75 L -258.75 -33.75 L -258.75 -30 L -258.75 -18.75 L -270 -18.75 L -281.25 -18.75 L -281.25 -30 L -281.25 -33.75 L -285 -33.75 L -296.25 -33.75 L -300 -33.75 L -303.75 -33.75 L -303.75 -30 L -303.75 -26.25 L -300 -26.25 L -288.75 -26.25 L -288.75 -15 L -288.75 -3.75 L -300 -3.75 L -303.75 -3.75 L -303.75 0 L -303.75 3.75 L -300 3.75 L -288.75 3.75 L -285 3.75 L -281.25 3.75 L -281.25 0 L -281.25 -11.25 L -270 -11.25 L -258.75 -11.25 L -258.75 0 L -258.75 11.25 L -258.75 15 L -258.75 26.25 L -258.75 30 L -258.75 41.25 L -270 41.25 L -281.25 41.25 L -281.25 30 L -281.25 26.25 L -285 26.25 L -288.75 26.25 L -288.75 30 L -288.75 41.25 L -300 41.25 L -311.25 41.25 L -311.25 30 L -311.25 26.25 L -315 26.25 L -318.75 26.25 L -318.75 30 L -318.75 41.25 L -330 41.25 L -341.25 41.25 L -341.25 30 L -341.25 26.25 L -345 26.25 L -348.75 26.25 L -348.75 30 L -348.75 41.25 L -360 41.25 L -371.25 41.25 L -371.25 30 L -371.25 18.75 L -371.25 15 L -371.25 3.75 L -371.25 0 L -371.25 -11.25 L -360 -11.25 L -348.75 -11.25 L -348.75 0 L -348.75 3.75 L -345 3.75 L -333.75 3.75 L -330 3.75 L -326.25 3.75 L -326.25 0 L -326.25 -3.75 L -330 -3.75 L -341.25 -3.75 L -341.25 -15 L -341.25 -26.25 L -330 -26.25 L -326.25 -26.25 L -326.25 -30 L -326.25 -33.75 L -330 -33.75 L -341.25 -33.75 L -345 -33.75 L -348.75 -33.75 L -348.75 -30 L -348.75 -18.75 L -360 -18.75 L -371.25 -18.75 L -371.25 -30 Z " fill="rgb(200,200,210)" stroke="rgb(200,200,210)" stroke-width="1" stroke-opacity="0.5" fill-opacity="0.5" visibility="visible" stroke-linecap="butt" stroke-linejoin="miter" stroke-miterlimit="4"></path><path transform="matrix(1 0 0 1 417.5 87.5)" id="two-2" d="M -371.25 -41.25 L -363.75 -41.25 L -363.75 -30 L -363.75 -26.25 L -360 -26.25 L -356.25 -26.25 L -356.25 -30 L -356.25 -41.25 L -345 -41.25 L -333.75 -41.25 L -330 -41.25 L -318.75 -41.25 L -318.75 -30 L -318.75 -18.75 L -330 -18.75 L -333.75 -18.75 L -333.75 -15 L -333.75 -11.25 L -330 -11.25 L -318.75 -11.25 L -318.75 0 L -318.75 11.25 L -330 11.25 L -341.25 11.25 L -345 11.25 L -356.25 11.25 L -356.25 0 L -356.25 -3.75 L -360 -3.75 L -363.75 -3.75 L -363.75 0 L -363.75 11.25 L -363.75 15 L -363.75 26.25 L -363.75 30 L -363.75 33.75 L -360 33.75 L -356.25 33.75 L -356.25 30 L -356.25 18.75 L -345 18.75 L -333.75 18.75 L -333.75 30 L -333.75 33.75 L -330 33.75 L -326.25 33.75 L -326.25 30 L -326.25 18.75 L -315 18.75 L -303.75 18.75 L -303.75 30 L -303.75 33.75 L -300 33.75 L -296.25 33.75 L -296.25 30 L -296.25 18.75 L -285 18.75 L -273.75 18.75 L -273.75 30 L -273.75 33.75 L -270 33.75 L -266.25 33.75 L -266.25 30 L -266.25 18.75 L -266.25 15 L -266.25 3.75 L -266.25 0 L -266.25 -3.75 L -270 -3.75 L -273.75 -3.75 L -273.75 0 L -273.75 11.25 L -285 11.25 L -296.25 11.25 L -300 11.25 L -311.25 11.25 L -311.25 0 L -311.25 -11.25 L -300 -11.25 L -296.25 -11.25 L -296.25 -15 L -296.25 -18.75 L -300 -18.75 L -311.25 -18.75 L -311.25 -30 L -311.25 -41.25 L -300 -41.25 L -288.75 -41.25 L -285 -41.25 L -273.75 -41.25 L -273.75 -30 L -273.75 -26.25 L -270 -26.25 L -266.25 -26.25 L -266.25 -30 L -266.25 -41.25 L -255 -41.25 L -243.75 -41.25 L -243.75 -30 L -243.75 -26.25 L -240 -26.25 L -236.25 -26.25 L -236.25 -30 L -236.25 -41.25 L -225 -41.25 L -213.75 -41.25 L -213.75 -30 L -213.75 -18.75 L -213.75 -15 L -213.75 -3.75 L -213.75 0 L -213.75 11.25 L -225 11.25 L -236.25 11.25 L -236.25 0 L -236.25 -3.75 L -240 -3.75 L -243.75 -3.75 L -243.75 0 L -243.75 11.25 L -243.75 15 L -243.75 26.25 L -243.75 30 L -243.75 33.75 L -240 33.75 L -236.25 33.75 L -236.25 30 L -236.25 18.75 L -225 18.75 L -213.75 18.75 L -213.75 30 L -213.75 33.75 L -210 33.75 L -206.25 33.75 L -206.25 30 L -206.25 18.75 L -195 18.75 L -183.75 18.75 L -183.75 30 L -183.75 33.75 L -180 33.75 L -176.25 33.75 L -176.25 30 L -176.25 18.75 L -176.25 15 L -176.25 3.75 L -176.25 0 L -176.25 -3.75 L -180 -3.75 L -183.75 -3.75 L -183.75 0 L -183.75 11.25 L -195 11.25 L -206.25 11.25 L -206.25 0 L -206.25 -11.25 L -206.25 -15 L -206.25 -26.25 L -206.25 -30 L -206.25 -41.25 L -195 -41.25 L -183.75 -41.25 L -183.75 -30 L -183.75 -26.25 L -180 -26.25 L -176.25 -26.25 L -176.25 -30 L -176.25 -41.25 L -165 -41.25 L -153.75 -41.25 L -153.75 -30 L -153.75 -26.25 L -150 -26.25 L -146.25 -26.25 L -146.25 -30 L -146.25 -41.25 L -135 -41.25 L -123.75 -41.25 L -123.75 -30 L -123.75 -18.75 L -123.75 -15 L -123.75 -3.75 L -123.75 0 L -123.75 11.25 L -135 11.25 L -146.25 11.25 L -146.25 0 L -146.25 -3.75 L -150 -3.75 L -153.75 -3.75 L -153.75 0 L -153.75 11.25 L -153.75 15 L -153.75 26.25 L -153.75 30 L -153.75 33.75 L -150 33.75 L -146.25 33.75 L -146.25 30 L -146.25 18.75 L -135 18.75 L -123.75 18.75 L -123.75 30 L -123.75 33.75 L -120 33.75 L -116.25 33.75 L -116.25 30 L -116.25 18.75 L -105 18.75 L -93.75 18.75 L -93.75 30 L -93.75 33.75 L -90 33.75 L -86.25 33.75 L -86.25 30 L -86.25 18.75 L -86.25 15 L -86.25 3.75 L -86.25 0 L -86.25 -3.75 L -90 -3.75 L -93.75 -3.75 L -93.75 0 L -93.75 11.25 L -105 11.25 L -116.25 11.25 L -116.25 0 L -116.25 -11.25 L -116.25 -15 L -116.25 -26.25 L -116.25 -30 L -116.25 -41.25 L -105 -41.25 L -93.75 -41.25 L -93.75 -30 L -93.75 -26.25 L -90 -26.25 L -86.25 -26.25 L -86.25 -30 L -86.25 -41.25 L -75 -41.25 L -63.75 -41.25 L -63.75 -30 L -63.75 -26.25 L -60 -26.25 L -56.25 -26.25 L -56.25 -30 L -56.25 -41.25 L -45 -41.25 L -33.75 -41.25 L -33.75 -30 L -33.75 -18.75 L -33.75 -15 L -33.75 -3.75 L -33.75 0 L -33.75 11.25 L -45 11.25 L -56.25 11.25 L -56.25 0 L -56.25 -3.75 L -60 -3.75 L -63.75 -3.75 L -63.75 0 L -63.75 11.25 L -63.75 15 L -63.75 26.25 L -63.75 30 L -63.75 33.75 L -60 33.75 L -56.25 33.75 L -56.25 30 L -56.25 18.75 L -45 18.75 L -33.75 18.75 L -33.75 30 L -33.75 33.75 L -30 33.75 L -26.25 33.75 L -26.25 30 L -26.25 18.75 L -15 18.75 L -3.75 18.75 L -3.75 30 L -3.75 33.75 L 0 33.75 L 3.75 33.75 L 3.75 30 L 3.75 18.75 L 3.75 15 L 3.75 3.75 L 3.75 0 L 3.75 -3.75 L 0 -3.75 L -3.75 -3.75 L -3.75 0 L -3.75 11.25 L -15 11.25 L -26.25 11.25 L -26.25 0 L -26.25 -11.25 L -26.25 -15 L -26.25 -26.25 L -26.25 -30 L -26.25 -41.25 L -15 -41.25 L -3.75 -41.25 L -3.75 -30 L -3.75 -26.25 L 0 -26.25 L 3.75 -26.25 L 3.75 -30 L 3.75 -41.25 L 15 -41.25 L 26.25 -41.25 L 26.25 -30 L 26.25 -26.25 L 30 -26.25 L 33.75 -26.25 L 33.75 -30 L 33.75 -41.25 L 45 -41.25 L 56.25 -41.25 L 56.25 -30 L 56.25 -18.75 L 56.25 -15 L 56.25 -3.75 L 56.25 0 L 56.25 11.25 L 45 11.25 L 33.75 11.25 L 33.75 0 L 33.75 -3.75 L 30 -3.75 L 26.25 -3.75 L 26.25 0 L 26.25 11.25 L 26.25 15 L 26.25 26.25 L 26.25 30 L 26.25 33.75 L 30 33.75 L 33.75 33.75 L 33.75 30 L 33.75 18.75 L 45 18.75 L 56.25 18.75 L 56.25 30 L 56.25 33.75 L 60 33.75 L 63.75 33.75 L 63.75 30 L 63.75 18.75 L 75 18.75 L 86.25 18.75 L 86.25 30 L 86.25 33.75 L 90 33.75 L 93.75 33.75 L 93.75 30 L 93.75 18.75 L 93.75 15 L 93.75 3.75 L 93.75 0 L 93.75 -3.75 L 90 -3.75 L 86.25 -3.75 L 86.25 0 L 86.25 11.25 L 75 11.25 L 63.75 11.25 L 63.75 0 L 63.75 -11.25 L 63.75 -15 L 63.75 -26.25 L 63.75 -30 L 63.75 -41.25 L 75 -41.25 L 86.25 -41.25 L 86.25 -30 L 86.25 -26.25 L 90 -26.25 L 93.75 -26.25 L 93.75 -30 L 93.75 -41.25 L 105 -41.25 L 116.25 -41.25 L 116.25 -30 L 116.25 -26.25 L 120 -26.25 L 123.75 -26.25 L 123.75 -30 L 123.75 -41.25 L 135 -41.25 L 146.25 -41.25 L 146.25 -30 L 146.25 -18.75 L 146.25 -15 L 146.25 -3.75 L 146.25 0 L 146.25 11.25 L 135 11.25 L 123.75 11.25 L 123.75 0 L 123.75 -3.75 L 120 -3.75 L 116.25 -3.75 L 116.25 0 L 116.25 11.25 L 116.25 15 L 116.25 26.25 L 116.25 30 L 116.25 33.75 L 120 33.75 L 123.75 33.75 L 123.75 30 L 123.75 18.75 L 135 18.75 L 146.25 18.75 L 146.25 30 L 146.25 33.75 L 150 33.75 L 153.75 33.75 L 153.75 30 L 153.75 18.75 L 165 18.75 L 176.25 18.75 L 176.25 30 L 176.25 33.75 L 180 33.75 L 183.75 33.75 L 183.75 30 L 183.75 18.75 L 183.75 15 L 183.75 3.75 L 183.75 0 L 183.75 -3.75 L 180 -3.75 L 176.25 -3.75 L 176.25 0 L 176.25 11.25 L 165 11.25 L 153.75 11.25 L 153.75 0 L 153.75 -11.25 L 153.75 -15 L 153.75 -26.25 L 153.75 -30 L 153.75 -41.25 L 165 -41.25 L 176.25 -41.25 L 176.25 -30 L 176.25 -26.25 L 180 -26.25 L 183.75 -26.25 L 183.75 -30 L 183.75 -41.25 L 195 -41.25 L 206.25 -41.25 L 206.25 -30 L 206.25 -26.25 L 210 -26.25 L 213.75 -26.25 L 213.75 -30 L 213.75 -41.25 L 225 -41.25 L 236.25 -41.25 L 236.25 -30 L 236.25 -18.75 L 236.25 -15 L 236.25 -3.75 L 236.25 0 L 236.25 11.25 L 225 11.25 L 213.75 11.25 L 213.75 0 L 213.75 -3.75 L 210 -3.75 L 206.25 -3.75 L 206.25 0 L 206.25 11.25 L 206.25 15 L 206.25 26.25 L 206.25 30 L 206.25 33.75 L 210 33.75 L 213.75 33.75 L 213.75 30 L 213.75 18.75 L 225 18.75 L 236.25 18.75 L 236.25 30 L 236.25 33.75 L 240 33.75 L 243.75 33.75 L 243.75 30 L 243.75 18.75 L 255 18.75 L 266.25 18.75 L 266.25 30 L 266.25 33.75 L 270 33.75 L 273.75 33.75 L 273.75 30 L 273.75 18.75 L 273.75 15 L 273.75 3.75 L 273.75 0 L 273.75 -3.75 L 270 -3.75 L 266.25 -3.75 L 266.25 0 L 266.25 11.25 L 255 11.25 L 243.75 11.25 L 243.75 0 L 243.75 -11.25 L 243.75 -15 L 243.75 -26.25 L 243.75 -30 L 243.75 -41.25 L 255 -41.25 L 266.25 -41.25 L 266.25 -30 L 266.25 -26.25 L 270 -26.25 L 273.75 -26.25 L 273.75 -30 L 273.75 -41.25 L 285 -41.25 L 296.25 -41.25 L 296.25 -30 L 296.25 -26.25 L 300 -26.25 L 303.75 -26.25 L 303.75 -30 L 303.75 -41.25 L 315 -41.25 L 326.25 -41.25 L 326.25 -30 L 326.25 -18.75 L 326.25 -15 L 326.25 -3.75 L 326.25 0 L 326.25 11.25 L 315 11.25 L 303.75 11.25 L 303.75 0 L 303.75 -3.75 L 300 -3.75 L 296.25 -3.75 L 296.25 0 L 296.25 11.25 L 296.25 15 L 296.25 26.25 L 296.25 30 L 296.25 33.75 L 300 33.75 L 303.75 33.75 L 303.75 30 L 303.75 18.75 L 315 18.75 L 326.25 18.75 L 326.25 30 L 326.25 33.75 L 330 33.75 L 333.75 33.75 L 333.75 30 L 333.75 18.75 L 345 18.75 L 356.25 18.75 L 356.25 30 L 356.25 33.75 L 360 33.75 L 363.75 33.75 L 363.75 30 L 363.75 18.75 L 363.75 15 L 363.75 3.75 L 363.75 0 L 363.75 -3.75 L 360 -3.75 L 356.25 -3.75 L 356.25 0 L 356.25 11.25 L 345 11.25 L 333.75 11.25 L 333.75 0 L 333.75 -11.25 L 333.75 -15 L 333.75 -26.25 L 333.75 -30 L 333.75 -41.25 L 345 -41.25 L 356.25 -41.25 L 356.25 -30 L 356.25 -26.25 L 360 -26.25 L 363.75 -26.25 L 363.75 -30 L 363.75 -33.75 L 371.25 -33.75 L 371.25 -30 L 371.25 -18.75 L 360 -18.75 L 348.75 -18.75 L 348.75 -30 L 348.75 -33.75 L 345 -33.75 L 341.25 -33.75 L 341.25 -30 L 341.25 -18.75 L 341.25 -15 L 341.25 -3.75 L 341.25 0 L 341.25 3.75 L 345 3.75 L 348.75 3.75 L 348.75 0 L 348.75 -11.25 L 360 -11.25 L 371.25 -11.25 L 371.25 0 L 371.25 11.25 L 371.25 15 L 371.25 26.25 L 371.25 30 L 371.25 41.25 L 360 41.25 L 348.75 41.25 L 348.75 30 L 348.75 26.25 L 345 26.25 L 341.25 26.25 L 341.25 30 L 341.25 41.25 L 330 41.25 L 318.75 41.25 L 318.75 30 L 318.75 26.25 L 315 26.25 L 311.25 26.25 L 311.25 30 L 311.25 41.25 L 300 41.25 L 288.75 41.25 L 288.75 30 L 288.75 18.75 L 288.75 15 L 288.75 3.75 L 288.75 0 L 288.75 -11.25 L 300 -11.25 L 311.25 -11.25 L 311.25 0 L 311.25 3.75 L 315 3.75 L 318.75 3.75 L 318.75 0 L 318.75 -11.25 L 318.75 -15 L 318.75 -26.25 L 318.75 -30 L 318.75 -33.75 L 315 -33.75 L 311.25 -33.75 L 311.25 -30 L 311.25 -18.75 L 300 -18.75 L 288.75 -18.75 L 288.75 -30 L 288.75 -33.75 L 285 -33.75 L 281.25 -33.75 L 281.25 -30 L 281.25 -18.75 L 270 -18.75 L 258.75 -18.75 L 258.75 -30 L 258.75 -33.75 L 255 -33.75 L 251.25 -33.75 L 251.25 -30 L 251.25 -18.75 L 251.25 -15 L 251.25 -3.75 L 251.25 0 L 251.25 3.75 L 255 3.75 L 258.75 3.75 L 258.75 0 L 258.75 -11.25 L 270 -11.25 L 281.25 -11.25 L 281.25 0 L 281.25 11.25 L 281.25 15 L 281.25 26.25 L 281.25 30 L 281.25 41.25 L 270 41.25 L 258.75 41.25 L 258.75 30 L 258.75 26.25 L 255 26.25 L 251.25 26.25 L 251.25 30 L 251.25 41.25 L 240 41.25 L 228.75 41.25 L 228.75 30 L 228.75 26.25 L 225 26.25 L 221.25 26.25 L 221.25 30 L 221.25 41.25 L 210 41.25 L 198.75 41.25 L 198.75 30 L 198.75 18.75 L 198.75 15 L 198.75 3.75 L 198.75 0 L 198.75 -11.25 L 210 -11.25 L 221.25 -11.25 L 221.25 0 L 221.25 3.75 L 225 3.75 L 228.75 3.75 L 228.75 0 L 228.75 -11.25 L 228.75 -15 L 228.75 -26.25 L 228.75 -30 L 228.75 -33.75 L 225 -33.75 L 221.25 -33.75 L 221.25 -30 L 221.25 -18.75 L 210 -18.75 L 198.75 -18.75 L 198.75 -30 L 198.75 -33.75 L 195 -33.75 L 191.25 -33.75 L 191.25 -30 L 191.25 -18.75 L 180 -18.75 L 168.75 -18.75 L 168.75 -30 L 168.75 -33.75 L 165 -33.75 L 161.25 -33.75 L 161.25 -30 L 161.25 -18.75 L 161.25 -15 L 161.25 -3.75 L 161.25 0 L 161.25 3.75 L 165 3.75 L 168.75 3.75 L 168.75 0 L 168.75 -11.25 L 180 -11.25 L 191.25 -11.25 L 191.25 0 L 191.25 11.25 L 191.25 15 L 191.25 26.25 L 191.25 30 L 191.25 41.25 L 180 41.25 L 168.75 41.25 L 168.75 30 L 168.75 26.25 L 165 26.25 L 161.25 26.25 L 161.25 30 L 161.25 41.25 L 150 41.25 L 138.75 41.25 L 138.75 30 L 138.75 26.25 L 135 26.25 L 131.25 26.25 L 131.25 30 L 131.25 41.25 L 120 41.25 L 108.75 41.25 L 108.75 30 L 108.75 18.75 L 108.75 15 L 108.75 3.75 L 108.75 0 L 108.75 -11.25 L 120 -11.25 L 131.25 -11.25 L 131.25 0 L 131.25 3.75 L 135 3.75 L 138.75 3.75 L 138.75 0 L 138.75 -11.25 L 138.75 -15 L 138.75 -26.25 L 138.75 -30 L 138.75 -33.75 L 135 -33.75 L 131.25 -33.75 L 131.25 -30 L 131.25 -18.75 L 120 -18.75 L 108.75 -18.75 L 108.75 -30 L 108.75 -33.75 L 105 -33.75 L 101.25 -33.75 L 101.25 -30 L 101.25 -18.75 L 90 -18.75 L 78.75 -18.75 L 78.75 -30 L 78.75 -33.75 L 75 -33.75 L 71.25 -33.75 L 71.25 -30 L 71.25 -18.75 L 71.25 -15 L 71.25 -3.75 L 71.25 0 L 71.25 3.75 L 75 3.75 L 78.75 3.75 L 78.75 0 L 78.75 -11.25 L 90 -11.25 L 101.25 -11.25 L 101.25 0 L 101.25 11.25 L 101.25 15 L 101.25 26.25 L 101.25 30 L 101.25 41.25 L 90 41.25 L 78.75 41.25 L 78.75 30 L 78.75 26.25 L 75 26.25 L 71.25 26.25 L 71.25 30 L 71.25 41.25 L 60 41.25 L 48.75 41.25 L 48.75 30 L 48.75 26.25 L 45 26.25 L 41.25 26.25 L 41.25 30 L 41.25 41.25 L 30 41.25 L 18.75 41.25 L 18.75 30 L 18.75 18.75 L 18.75 15 L 18.75 3.75 L 18.75 0 L 18.75 -11.25 L 30 -11.25 L 41.25 -11.25 L 41.25 0 L 41.25 3.75 L 45 3.75 L 48.75 3.75 L 48.75 0 L 48.75 -11.25 L 48.75 -15 L 48.75 -26.25 L 48.75 -30 L 48.75 -33.75 L 45 -33.75 L 41.25 -33.75 L 41.25 -30 L 41.25 -18.75 L 30 -18.75 L 18.75 -18.75 L 18.75 -30 L 18.75 -33.75 L 15 -33.75 L 11.25 -33.75 L 11.25 -30 L 11.25 -18.75 L 0 -18.75 L -11.25 -18.75 L -11.25 -30 L -11.25 -33.75 L -15 -33.75 L -18.75 -33.75 L -18.75 -30 L -18.75 -18.75 L -18.75 -15 L -18.75 -3.75 L -18.75 0 L -18.75 3.75 L -15 3.75 L -11.25 3.75 L -11.25 0 L -11.25 -11.25 L 0 -11.25 L 11.25 -11.25 L 11.25 0 L 11.25 11.25 L 11.25 15 L 11.25 26.25 L 11.25 30 L 11.25 41.25 L 0 41.25 L -11.25 41.25 L -11.25 30 L -11.25 26.25 L -15 26.25 L -18.75 26.25 L -18.75 30 L -18.75 41.25 L -30 41.25 L -41.25 41.25 L -41.25 30 L -41.25 26.25 L -45 26.25 L -48.75 26.25 L -48.75 30 L -48.75 41.25 L -60 41.25 L -71.25 41.25 L -71.25 30 L -71.25 18.75 L -71.25 15 L -71.25 3.75 L -71.25 0 L -71.25 -11.25 L -60 -11.25 L -48.75 -11.25 L -48.75 0 L -48.75 3.75 L -45 3.75 L -41.25 3.75 L -41.25 0 L -41.25 -11.25 L -41.25 -15 L -41.25 -26.25 L -41.25 -30 L -41.25 -33.75 L -45 -33.75 L -48.75 -33.75 L -48.75 -30 L -48.75 -18.75 L -60 -18.75 L -71.25 -18.75 L -71.25 -30 L -71.25 -33.75 L -75 -33.75 L -78.75 -33.75 L -78.75 -30 L -78.75 -18.75 L -90 -18.75 L -101.25 -18.75 L -101.25 -30 L -101.25 -33.75 L -105 -33.75 L -108.75 -33.75 L -108.75 -30 L -108.75 -18.75 L -108.75 -15 L -108.75 -3.75 L -108.75 0 L -108.75 3.75 L -105 3.75 L -101.25 3.75 L -101.25 0 L -101.25 -11.25 L -90 -11.25 L -78.75 -11.25 L -78.75 0 L -78.75 11.25 L -78.75 15 L -78.75 26.25 L -78.75 30 L -78.75 41.25 L -90 41.25 L -101.25 41.25 L -101.25 30 L -101.25 26.25 L -105 26.25 L -108.75 26.25 L -108.75 30 L -108.75 41.25 L -120 41.25 L -131.25 41.25 L -131.25 30 L -131.25 26.25 L -135 26.25 L -138.75 26.25 L -138.75 30 L -138.75 41.25 L -150 41.25 L -161.25 41.25 L -161.25 30 L -161.25 18.75 L -161.25 15 L -161.25 3.75 L -161.25 0 L -161.25 -11.25 L -150 -11.25 L -138.75 -11.25 L -138.75 0 L -138.75 3.75 L -135 3.75 L -131.25 3.75 L -131.25 0 L -131.25 -11.25 L -131.25 -15 L -131.25 -26.25 L -131.25 -30 L -131.25 -33.75 L -135 -33.75 L -138.75 -33.75 L -138.75 -30 L -138.75 -18.75 L -150 -18.75 L -161.25 -18.75 L -161.25 -30 L -161.25 -33.75 L -165 -33.75 L -168.75 -33.75 L -168.75 -30 L -168.75 -18.75 L -180 -18.75 L -191.25 -18.75 L -191.25 -30 L -191.25 -33.75 L -195 -33.75 L -198.75 -33.75 L -198.75 -30 L -198.75 -18.75 L -198.75 -15 L -198.75 -3.75 L -198.75 0 L -198.75 3.75 L -195 3.75 L -191.25 3.75 L -191.25 0 L -191.25 -11.25 L -180 -11.25 L -168.75 -11.25 L -168.75 0 L -168.75 11.25 L -168.75 15 L -168.75 26.25 L -168.75 30 L -168.75 41.25 L -180 41.25 L -191.25 41.25 L -191.25 30 L -191.25 26.25 L -195 26.25 L -198.75 26.25 L -198.75 30 L -198.75 41.25 L -210 41.25 L -221.25 41.25 L -221.25 30 L -221.25 26.25 L -225 26.25 L -228.75 26.25 L -228.75 30 L -228.75 41.25 L -240 41.25 L -251.25 41.25 L -251.25 30 L -251.25 18.75 L -251.25 15 L -251.25 3.75 L -251.25 0 L -251.25 -11.25 L -240 -11.25 L -228.75 -11.25 L -228.75 0 L -228.75 3.75 L -225 3.75 L -221.25 3.75 L -221.25 0 L -221.25 -11.25 L -221.25 -15 L -221.25 -26.25 L -221.25 -30 L -221.25 -33.75 L -225 -33.75 L -228.75 -33.75 L -228.75 -30 L -228.75 -18.75 L -240 -18.75 L -251.25 -18.75 L -251.25 -30 L -251.25 -33.75 L -255 -33.75 L -258.75 -33.75 L -258.75 -30 L -258.75 -18.75 L -270 -18.75 L -281.25 -18.75 L -281.25 -30 L -281.25 -33.75 L -285 -33.75 L -296.25 -33.75 L -300 -33.75 L -303.75 -33.75 L -303.75 -30 L -303.75 -26.25 L -300 -26.25 L -288.75 -26.25 L -288.75 -15 L -288.75 -3.75 L -300 -3.75 L -303.75 -3.75 L -303.75 0 L -303.75 3.75 L -300 3.75 L -288.75 3.75 L -285 3.75 L -281.25 3.75 L -281.25 0 L -281.25 -11.25 L -270 -11.25 L -258.75 -11.25 L -258.75 0 L -258.75 11.25 L -258.75 15 L -258.75 26.25 L -258.75 30 L -258.75 41.25 L -270 41.25 L -281.25 41.25 L -281.25 30 L -281.25 26.25 L -285 26.25 L -288.75 26.25 L -288.75 30 L -288.75 41.25 L -300 41.25 L -311.25 41.25 L -311.25 30 L -311.25 26.25 L -315 26.25 L -318.75 26.25 L -318.75 30 L -318.75 41.25 L -330 41.25 L -341.25 41.25 L -341.25 30 L -341.25 26.25 L -345 26.25 L -348.75 26.25 L -348.75 30 L -348.75 41.25 L -360 41.25 L -371.25 41.25 L -371.25 30 L -371.25 18.75 L -371.25 15 L -371.25 3.75 L -371.25 0 L -371.25 -11.25 L -360 -11.25 L -348.75 -11.25 L -348.75 0 L -348.75 3.75 L -345 3.75 L -333.75 3.75 L -330 3.75 L -326.25 3.75 L -326.25 0 L -326.25 -3.75 L -330 -3.75 L -341.25 -3.75 L -341.25 -15 L -341.25 -26.25 L -330 -26.25 L -326.25 -26.25 L -326.25 -30 L -326.25 -33.75 L -330 -33.75 L -341.25 -33.75 L -345 -33.75 L -348.75 -33.75 L -348.75 -30 L -348.75 -18.75 L -360 -18.75 L -371.25 -18.75 L -371.25 -30 Z " fill="rgb(240,230,210)" stroke="rgb(220,220,190)" stroke-width="2" stroke-opacity="1" fill-opacity="1" visibility="visible" stroke-linecap="butt" stroke-linejoin="miter" stroke-miterlimit="4"></path></g></svg>