 <svg version="1.1" style="overflow: hidden; display: block;" width="330" height="100"><defs></defs><g id="two-0" transform="matrix(1 0 0 1 0 0)" opacity="1"><text transform="matrix(1 0 0 1 40 50)" id="two-1" font-family="Libertine, Linux Libertine 0" font-size="18" line-height="17" text-anchor="middle" dominant-baseline="middle" font-style="normal" font-weight="500" text-decoration="none" direction="ltr" fill="#000" stroke="none" stroke-width="1" opacity="1" visibility="visible">i)</text><path transform="matrix(1 0 0 1 0 0)" id="two-2" d="M 55 55 L 55 45 " fill="none" stroke="hsl(16,95%,35%)" stroke-width="1" stroke-opacity="1" fill-opacity="1" visibility="visible" stroke-linecap="butt" stroke-linejoin="miter" stroke-miterlimit="4"></path><path transform="matrix(1 0 0 1 0 0)" id="two-3" d="M 55 45 L 65 45 " fill="none" stroke="hsl(32,95%,35%)" stroke-width="1" stroke-opacity="1" fill-opacity="1" visibility="visible" stroke-linecap="butt" stroke-linejoin="miter" stroke-miterlimit="4"></path><path transform="matrix(1 0 0 1 0 0)" id="two-4" d="M 65 45 L 65 55 " fill="none" stroke="hsl(49,95%,35%)" stroke-width="1" stroke-opacity="1" fill-opacity="1" visibility="visible" stroke-linecap="butt" stroke-linejoin="miter" stroke-miterlimit="4"></path><path transform="matrix(1 0 0 1 0 0)" id="two-5" d="M 65 55 L 75 55 " fill="none" stroke="hsl(65,95%,35%)" stroke-width="1" stroke-opacity="1" fill-opacity="1" visibility="visible" stroke-linecap="butt" stroke-linejoin="miter" stroke-miterlimit="4"></path><path transform="matrix(1 0 0 1 0 0)" id="two-6" d="M 75 55 L 75 45 " fill="none" stroke="hsl(81,95%,35%)" stroke-width="1" stroke-opacity="1" fill-opacity="1" visibility="visible" stroke-linecap="butt" stroke-linejoin="miter" stroke-miterlimit="4"></path><path transform="matrix(1 0 0 1 0 0)" id="two-7" d="M 75 45 L 85 45 " fill="none" stroke="hsl(98,95%,35%)" stroke-width="1" stroke-opacity="1" fill-opacity="1" visibility="visible" stroke-linecap="butt" stroke-linejoin="miter" stroke-miterlimit="4"></path><path transform="matrix(1 0 0 1 0 0)" id="two-8" d="M 85 45 L 85 55 " fill="none" stroke="hsl(114,95%,35%)" stroke-width="1" stroke-opacity="1" fill-opacity="1" visibility="visible" stroke-linecap="butt" stroke-linejoin="miter" stroke-miterlimit="4"></path><path transform="matrix(1 0 0 1 0 0)" id="two-9" d="M 85 55 L 95 55 " fill="none" stroke="hsl(130,95%,35%)" stroke-width="1" stroke-opacity="1" fill-opacity="1" visibility="visible" stroke-linecap="butt" stroke-linejoin="miter" stroke-miterlimit="4"></path><path transform="matrix(1 0 0 1 0 0)" id="two-10" d="M 95 55 L 95 45 " fill="none" stroke="hsl(147,95%,35%)" stroke-width="1" stroke-opacity="1" fill-opacity="1" visibility="visible" stroke-linecap="butt" stroke-linejoin="miter" stroke-miterlimit="4"></path><path transform="matrix(1 0 0 1 0 0)" id="two-11" d="M 95 45 L 105 45 " fill="none" stroke="hsl(163,95%,35%)" stroke-width="1" stroke-opacity="1" fill-opacity="1" visibility="visible" stroke-linecap="butt" stroke-linejoin="miter" stroke-miterlimit="4"></path><path transform="matrix(1 0 0 1 0 0)" id="two-12" d="M 105 45 L 105 55 " fill="none" stroke="hsl(180,95%,35%)" stroke-width="1" stroke-opacity="1" fill-opacity="1" visibility="visible" stroke-linecap="butt" stroke-linejoin="miter" stroke-miterlimit="4"></path><path transform="matrix(1 0 0 1 0 0)" id="two-13" d="M 105 55 L 115 55 " fill="none" stroke="hsl(196,95%,35%)" stroke-width="1" stroke-opacity="1" fill-opacity="1" visibility="visible" stroke-linecap="butt" stroke-linejoin="miter" stroke-miterlimit="4"></path><path transform="matrix(1 0 0 1 0 0)" id="two-14" d="M 115 55 L 115 45 " fill="none" stroke="hsl(212,95%,35%)" stroke-width="1" stroke-opacity="1" fill-opacity="1" visibility="visible" stroke-linecap="butt" stroke-linejoin="miter" stroke-miterlimit="4"></path><path transform="matrix(1 0 0 1 0 0)" id="two-15" d="M 115 45 L 125 45 " fill="none" stroke="hsl(229,95%,35%)" stroke-width="1" stroke-opacity="1" fill-opacity="1" visibility="visible" stroke-linecap="butt" stroke-linejoin="miter" stroke-miterlimit="4"></path><path transform="matrix(1 0 0 1 0 0)" id="two-16" d="M 125 45 L 125 55 " fill="none" stroke="hsl(245,95%,35%)" stroke-width="1" stroke-opacity="1" fill-opacity="1" visibility="visible" stroke-linecap="butt" stroke-linejoin="miter" stroke-miterlimit="4"></path><path transform="matrix(1 0 0 1 0 0)" id="two-17" d="M 125 55 L 135 55 " fill="none" stroke="hsl(261,95%,35%)" stroke-width="1" stroke-opacity="1" fill-opacity="1" visibility="visible" stroke-linecap="butt" stroke-linejoin="miter" stroke-miterlimit="4"></path><path transform="matrix(1 0 0 1 0 0)" id="two-18" d="M 135 55 L 135 45 " fill="none" stroke="hsl(278,95%,35%)" stroke-width="1" stroke-opacity="1" fill-opacity="1" visibility="visible" stroke-linecap="butt" stroke-linejoin="miter" stroke-miterlimit="4"></path><path transform="matrix(1 0 0 1 0 0)" id="two-19" d="M 135 45 L 145 45 " fill="none" stroke="hsl(294,95%,35%)" stroke-width="1" stroke-opacity="1" fill-opacity="1" visibility="visible" stroke-linecap="butt" stroke-linejoin="miter" stroke-miterlimit="4"></path><path transform="matrix(1 0 0 1 0 0)" id="two-20" d="M 145 45 L 155 45 " fill="none" stroke="hsl(310,95%,35%)" stroke-width="1" stroke-opacity="1" fill-opacity="1" visibility="visible" stroke-linecap="butt" stroke-linejoin="miter" stroke-miterlimit="4"></path><path transform="matrix(1 0 0 1 0 0)" id="two-21" d="M 155 45 L 155 55 " fill="none" stroke="hsl(327,95%,35%)" stroke-width="1" stroke-opacity="1" fill-opacity="1" visibility="visible" stroke-linecap="butt" stroke-linejoin="miter" stroke-miterlimit="4"></path><path transform="matrix(1 0 0 1 0 0)" id="two-22" d="M 155 55 L 145 55 " fill="none" stroke="hsl(343,95%,35%)" stroke-width="1" stroke-opacity="1" fill-opacity="1" visibility="visible" stroke-linecap="butt" stroke-linejoin="miter" stroke-miterlimit="4"></path><text transform="matrix(1 0 0 1 200 50)" id="two-23" font-family="Libertine, Linux Libertine 0" font-size="18" line-height="17" text-anchor="middle" dominant-baseline="middle" font-style="normal" font-weight="500" text-decoration="none" direction="ltr" fill="#000" stroke="none" stroke-width="1" opacity="1" visibility="visible">ii)</text><path transform="matrix(1 0 0 1 0 0)" id="two-24" d="M 220 55 L 230 55 " fill="none" stroke="hsl(25,95%,35%)" stroke-width="1" stroke-opacity="1" fill-opacity="1" visibility="visible" stroke-linecap="butt" stroke-linejoin="miter" stroke-miterlimit="4"></path><path transform="matrix(1 0 0 1 0 0)" id="two-25" d="M 230 55 L 240 55 " fill="none" stroke="hsl(51,95%,35%)" stroke-width="1" stroke-opacity="1" fill-opacity="1" visibility="visible" stroke-linecap="butt" stroke-linejoin="miter" stroke-miterlimit="4"></path><path transform="matrix(1 0 0 1 0 0)" id="two-26" d="M 240 55 L 250 55 " fill="none" stroke="hsl(77,95%,35%)" stroke-width="1" stroke-opacity="1" fill-opacity="1" visibility="visible" stroke-linecap="butt" stroke-linejoin="miter" stroke-miterlimit="4"></path><path transform="matrix(1 0 0 1 0 0)" id="two-27" d="M 250 55 L 260 55 " fill="none" stroke="hsl(102,95%,35%)" stroke-width="1" stroke-opacity="1" fill-opacity="1" visibility="visible" stroke-linecap="butt" stroke-linejoin="miter" stroke-miterlimit="4"></path><path transform="matrix(1 0 0 1 0 0)" id="two-28" d="M 260 55 L 270 55 " fill="none" stroke="hsl(128,95%,35%)" stroke-width="1" stroke-opacity="1" fill-opacity="1" visibility="visible" stroke-linecap="butt" stroke-linejoin="miter" stroke-miterlimit="4"></path><path transform="matrix(1 0 0 1 0 0)" id="two-29" d="M 270 55 L 280 55 " fill="none" stroke="hsl(154,95%,35%)" stroke-width="1" stroke-opacity="1" fill-opacity="1" visibility="visible" stroke-linecap="butt" stroke-linejoin="miter" stroke-miterlimit="4"></path><path transform="matrix(1 0 0 1 0 0)" id="two-30" d="M 280 55 L 280 45 " fill="none" stroke="hsl(180,95%,35%)" stroke-width="1" stroke-opacity="1" fill-opacity="1" visibility="visible" stroke-linecap="butt" stroke-linejoin="miter" stroke-miterlimit="4"></path><path transform="matrix(1 0 0 1 0 0)" id="two-31" d="M 280 45 L 270 45 " fill="none" stroke="hsl(205,95%,35%)" stroke-width="1" stroke-opacity="1" fill-opacity="1" visibility="visible" stroke-linecap="butt" stroke-linejoin="miter" stroke-miterlimit="4"></path><path transform="matrix(1 0 0 1 0 0)" id="two-32" d="M 270 45 L 260 45 " fill="none" stroke="hsl(231,95%,35%)" stroke-width="1" stroke-opacity="1" fill-opacity="1" visibility="visible" stroke-linecap="butt" stroke-linejoin="miter" stroke-miterlimit="4"></path><path transform="matrix(1 0 0 1 0 0)" id="two-33" d="M 260 45 L 250 45 " fill="none" stroke="hsl(257,95%,35%)" stroke-width="1" stroke-opacity="1" fill-opacity="1" visibility="visible" stroke-linecap="butt" stroke-linejoin="miter" stroke-miterlimit="4"></path><path transform="matrix(1 0 0 1 0 0)" id="two-34" d="M 250 45 L 240 45 " fill="none" stroke="hsl(282,95%,35%)" stroke-width="1" stroke-opacity="1" fill-opacity="1" visibility="visible" stroke-linecap="butt" stroke-linejoin="miter" stroke-miterlimit="4"></path><path transform="matrix(1 0 0 1 0 0)" id="two-35" d="M 240 45 L 230 45 " fill="none" stroke="hsl(308,95%,35%)" stroke-width="1" stroke-opacity="1" fill-opacity="1" visibility="visible" stroke-linecap="butt" stroke-linejoin="miter" stroke-miterlimit="4"></path><path transform="matrix(1 0 0 1 0 0)" id="two-36" d="M 230 45 L 220 45 " fill="none" stroke="hsl(334,95%,35%)" stroke-width="1" stroke-opacity="1" fill-opacity="1" visibility="visible" stroke-linecap="butt" stroke-linejoin="miter" stroke-miterlimit="4"></path></g></svg>