 <svg version="1.1" style="overflow: hidden; display: block;" width="330" height="250"><defs><clipPath clip-rule="nonzero" id="two-17"><path transform="matrix(1 0 0 1 0 0)" d="M -4000 -4000 L 8000 -4000 L 8000 4000 L -4000 4000 Z" fill="#fff" stroke="#000" stroke-width="1" stroke-opacity="1" fill-opacity="1" visibility="visible" stroke-linecap="butt" stroke-linejoin="miter" stroke-miterlimit="4"></path></clipPath><clipPath clip-rule="nonzero" id="two-27"><path transform="matrix(1 0 0 1 0 0)" d="M -4000 -4000 L 8000 -4000 L 8000 4000 L -4000 4000 Z" fill="#fff" stroke="#000" stroke-width="1" stroke-opacity="1" fill-opacity="1" visibility="visible" stroke-linecap="butt" stroke-linejoin="miter" stroke-miterlimit="4"></path></clipPath><clipPath clip-rule="nonzero" id="two-44"><path transform="matrix(1 0 0 1 0 0)" d="M -4000 -4000 L 8000 -4000 L 8000 4000 L -4000 4000 Z" fill="#fff" stroke="#000" stroke-width="1" stroke-opacity="1" fill-opacity="1" visibility="visible" stroke-linecap="butt" stroke-linejoin="miter" stroke-miterlimit="4"></path></clipPath><clipPath clip-rule="nonzero" id="two-69"><path transform="matrix(1 0 0 1 0 0)" d="M -4000 -4000 L 8000 -4000 L 8000 4000 L -4000 4000 Z" fill="#fff" stroke="#000" stroke-width="1" stroke-opacity="1" fill-opacity="1" visibility="visible" stroke-linecap="butt" stroke-linejoin="miter" stroke-miterlimit="4"></path></clipPath><clipPath clip-rule="nonzero" id="two-86"><path transform="matrix(1 0 0 1 0 0)" d="M -4000 -4000 L 8000 -4000 L 8000 4000 L -4000 4000 Z" fill="#fff" stroke="#000" stroke-width="1" stroke-opacity="1" fill-opacity="1" visibility="visible" stroke-linecap="butt" stroke-linejoin="miter" stroke-miterlimit="4"></path></clipPath><clipPath clip-rule="nonzero" id="two-97"><path transform="matrix(1 0 0 1 0 0)" d="M -4000 -4000 L 8000 -4000 L 8000 4000 L -4000 4000 Z" fill="#fff" stroke="#000" stroke-width="1" stroke-opacity="1" fill-opacity="1" visibility="visible" stroke-linecap="butt" stroke-linejoin="miter" stroke-miterlimit="4"></path></clipPath><clipPath clip-rule="nonzero" id="two-106"><path transform="matrix(1 0 0 1 0 0)" d="M -4000 -4000 L 8000 -4000 L 8000 4000 L -4000 4000 Z" fill="#fff" stroke="#000" stroke-width="1" stroke-opacity="1" fill-opacity="1" visibility="visible" stroke-linecap="butt" stroke-linejoin="miter" stroke-miterlimit="4"></path></clipPath><clipPath clip-rule="nonzero" id="two-113"><path transform="matrix(1 0 0 1 0 0)" d="M -4000 -4000 L 8000 -4000 L 8000 4000 L -4000 4000 Z" fill="#fff" stroke="#000" stroke-width="1" stroke-opacity="1" fill-opacity="1" visibility="visible" stroke-linecap="butt" stroke-linejoin="miter" stroke-miterlimit="4"></path></clipPath><clipPath clip-rule="nonzero" id="two-120"><path transform="matrix(1 0 0 1 0 0)" d="M -4000 -4000 L 8000 -4000 L 8000 4000 L -4000 4000 Z" fill="#fff" stroke="#000" stroke-width="1" stroke-opacity="1" fill-opacity="1" visibility="visible" stroke-linecap="butt" stroke-linejoin="miter" stroke-miterlimit="4"></path></clipPath><clipPath clip-rule="nonzero" id="two-127"><path transform="matrix(1 0 0 1 0 0)" d="M -4000 -4000 L 8000 -4000 L 8000 4000 L -4000 4000 Z" fill="#fff" stroke="#000" stroke-width="1" stroke-opacity="1" fill-opacity="1" visibility="visible" stroke-linecap="butt" stroke-linejoin="miter" stroke-miterlimit="4"></path></clipPath></defs><g id="two-0" transform="matrix(1 0 0 1 0 0)" opacity="1"><path transform="matrix(1 0 0 1 160.194122 146.563262)" id="two-1" d="M -26.731377 27.812246 L -26.731377 -7.187754 L 26.731376 -27.812247 L 26.731376 7.187753 Z " fill="rgb(43,131,186)" stroke="rgb(13,91,136)" stroke-width="2" stroke-opacity="1" fill-opacity="1" visibility="visible" stroke-linecap="butt" stroke-linejoin="round" stroke-miterlimit="4"></path><path transform="matrix(1 0 0 1 121.555198 146.586593)" id="two-2" d="M 11.907556 27.788911 L 11.907556 -7.211089 L -11.907557 -27.788912 L -11.907557 7.211088 Z " fill="rgb(43,131,186)" stroke="rgb(13,91,136)" stroke-width="2" stroke-opacity="1" fill-opacity="1" visibility="visible" stroke-linecap="butt" stroke-linejoin="round" stroke-miterlimit="4"></path><path transform="matrix(1 0 0 1 148.286575 118.774353)" id="two-3" d="M -14.82382 20.601157 L -38.638933 0.023334 L 14.823819 -20.601158 L 38.638932 -0.023335 Z " fill="rgb(43,131,186)" stroke="rgb(13,91,136)" stroke-width="2" stroke-opacity="1" fill-opacity="1" visibility="visible" stroke-linecap="butt" stroke-linejoin="round" stroke-miterlimit="4"></path><path transform="matrix(1 0 0 1 106.731376 167.187759)" id="two-4" d="M -26.731377 27.812246 L -26.731377 -7.187754 L 26.731376 -27.812247 L 26.731376 7.187753 Z " fill="rgb(215,25,28)" stroke="rgb(120,25,28)" stroke-width="2" stroke-opacity="1" fill-opacity="1" visibility="visible" stroke-linecap="butt" stroke-linejoin="round" stroke-miterlimit="4"></path><path transform="matrix(1 0 0 1 68.092445 167.21109)" id="two-5" d="M 11.907556 27.788911 L 11.907556 -7.211089 L -11.907557 -27.788912 L -11.907557 7.211088 Z " fill="rgb(215,25,28)" stroke="rgb(120,25,28)" stroke-width="2" stroke-opacity="1" fill-opacity="1" visibility="visible" stroke-linecap="butt" stroke-linejoin="round" stroke-miterlimit="4"></path><path transform="matrix(1 0 0 1 94.823822 139.398849)" id="two-6" d="M -14.82382 20.601157 L -38.638933 0.023334 L 14.823819 -20.601158 L 38.638932 -0.023335 Z " fill="rgb(215,25,28)" stroke="rgb(120,25,28)" stroke-width="2" stroke-opacity="1" fill-opacity="1" visibility="visible" stroke-linecap="butt" stroke-linejoin="round" stroke-miterlimit="4"></path><path transform="matrix(1 0 0 1 133.462753 104.375503)" id="two-7" d="M -53.462753 55.624492 L -53.462753 -14.375508 L 53.462752 -55.624493 L 53.462752 14.375507 Z " fill="rgb(255,255,159)" stroke="rgb(215,215,191)" stroke-width="2" stroke-opacity="1" fill-opacity="1" visibility="visible" stroke-linecap="butt" stroke-linejoin="round" stroke-miterlimit="4"></path><path transform="matrix(1 0 0 1 68.092445 114.71109)" id="two-8" d="M 11.907556 45.288911 L 11.907556 -24.711089 L -11.907557 -45.288912 L -11.907557 24.711088 Z " fill="rgb(255,255,159)" stroke="rgb(215,215,191)" stroke-width="2" stroke-opacity="1" fill-opacity="1" visibility="visible" stroke-linecap="butt" stroke-linejoin="round" stroke-miterlimit="4"></path><path transform="matrix(1 0 0 1 121.555198 59.086597)" id="two-9" d="M -41.555197 30.913404 L -65.370309 10.335581 L 41.555196 -30.913405 L 65.370308 -10.335582 Z " fill="rgb(255,255,159)" stroke="rgb(215,215,191)" stroke-width="2" stroke-opacity="1" fill-opacity="1" visibility="visible" stroke-linecap="butt" stroke-linejoin="round" stroke-miterlimit="4"></path><path transform="matrix(1 0 0 1 0 0)" id="two-10" d="M 29.25 132 C 36.125 132 29.25 160.875 36.125 160.875 " fill="none" stroke="rgb(0,0,0)" stroke-width="1.125" stroke-opacity="1" fill-opacity="1" visibility="visible" stroke-linecap="butt" stroke-linejoin="miter" stroke-miterlimit="4"></path><path transform="matrix(1 0 0 1 0 0)" id="two-11" d="M 29.25 132 C 36.125 132 29.25 103.125 36.125 103.125 " fill="none" stroke="rgb(0,0,0)" stroke-width="1.125" stroke-opacity="1" fill-opacity="1" visibility="visible" stroke-linecap="butt" stroke-linejoin="miter" stroke-miterlimit="4"></path><g id="two-12" transform="matrix(0.0175 0 0 -0.017501 11.75 135)" opacity="1" clip-path="url(#two-17)"><g id="two-13" transform="matrix(1 0 0 1 0 0)" opacity="1"><g id="two-14" transform="matrix(1 0 0 1 0 0)" opacity="1" data-mml-node="math"><g id="two-15" transform="matrix(1 0 0 1 0 0)" opacity="1" data-mml-node="mi"><path transform="matrix(1 0 0 1 236 216.019226)" id="two-16" d="M -105 72.980778 C -105 83.540778 -105 104.980778 -89 137.980778 C -83.72 148.870778 -73 170.980778 -33 198.980778 C -19.8 208.220778 7 226.980778 64 225.980778 C 84.46 225.980778 126 225.980778 154 198.980778 C 163.24 190.070778 182 171.980778 183 138.980778 C 183 128.420778 183 106.980778 166 91.980778 C 160.39 87.030778 149 76.980778 128 75.980778 C 123.71 75.980778 115 75.980778 104 83.980778 C 100.37 86.620778 93 91.980778 92 109.980778 C 92 115.260778 92 125.980778 101 137.980778 C 103.97 141.940778 110 149.980778 118 155.980778 C 120.64 157.960778 126 161.980778 131 161.980778 C 131.33 161.980778 132 161.980778 132 162.980778 C 132 163.970778 132 165.980778 125 171.980778 C 122.69 173.960778 118 177.980778 100 182.980778 C 94.06 184.630778 82 187.980778 61 188.980778 C 45.16 188.980778 13 188.980778 -9 162.980778 C -16.260001 154.400778 -31 136.980778 -32 109.980778 C -32 101.730778 -32 84.980778 -13 74.980778 C -6.73 71.680778 6 64.980778 42 57.980778 C 53.88 55.670778 78 50.980778 94 42.980778 C 115.78 33.410778 160 13.980778 160 -53.019222 C 160 -62.259222 160 -81.019222 149 -109.019222 C 145.37 -118.259222 138 -137.019222 116 -165.019222 C 108.74 -174.259222 94 -193.019222 53 -209.019222 C 39.47 -214.299222 12 -225.019222 -41 -226.019222 C -66.41 -226.019222 -118 -226.019222 -150 -197.019222 C -160.56 -187.449222 -182 -168.019222 -183 -129.019222 C -183 -116.149222 -183 -90.019222 -162 -73.019222 C -155.07 -67.409222 -141 -56.019222 -118 -56.019222 C -113.05 -56.019222 -103 -56.019222 -90 -65.019222 C -85.71 -67.989222 -77 -74.019222 -76 -96.019222 C -76 -104.599222 -76 -122.019222 -94 -140.019222 C -99.94 -145.959222 -112 -158.019222 -125 -158.019222 C -125.66 -158.349222 -127 -159.019222 -128 -159.019222 C -128.330001 -159.019222 -129 -159.019222 -129 -161.019222 C -128.67 -162.009222 -128 -164.019222 -121 -169.019222 C -118.69 -170.669222 -114 -174.019222 -90 -182.019222 C -82.08 -184.659222 -66 -190.019222 -35 -189.019222 C -23.12 -189.019222 1 -189.019222 27 -178.019222 C 35.58 -174.389222 53 -167.019222 65 -150.019222 C 68.96 -144.409222 77 -133.019222 82 -119.019222 C 83.65 -114.399222 87 -105.019222 87 -94.019222 C 87 -84.779222 87 -66.019222 66 -52.019222 C 59.07 -47.399222 45 -38.019222 18 -35.019222 C 9.09 -34.029222 -9 -32.019222 -41 -20.019222 C -51.56 -16.059222 -73 -8.019222 -88 14.980778 C -93.61 23.230778 -105 39.980778 -105 72.980778 C -105 72.980778 -105 72.980778 -105 72.980778 Z " fill="rgb(0, 0, 0)" stroke="none" stroke-width="1" stroke-opacity="1" fill-opacity="1" visibility="visible" stroke-linecap="butt" stroke-linejoin="miter" stroke-miterlimit="4"></path></g></g></g></g><g id="two-18" transform="matrix(0.0175 0 0 -0.017501 29.25 220)" opacity="1" clip-path="url(#two-27)"><g id="two-19" transform="matrix(1 0 0 1 0 0)" opacity="1"><g id="two-20" transform="matrix(1 0 0 1 0 0)" opacity="1" data-mml-node="math"><g id="two-21" transform="matrix(1 0 0 1 0 0)" opacity="1" data-mml-node="mfrac"><g id="two-22" transform="matrix(1 0 0 1 256.100006 394)" opacity="1" data-mml-node="mi"><path transform="matrix(1 0 0 1 236 216.019226)" id="two-23" d="M -105 72.980778 C -105 83.540778 -105 104.980778 -89 137.980778 C -83.72 148.870778 -73 170.980778 -33 198.980778 C -19.8 208.220778 7 226.980778 64 225.980778 C 84.46 225.980778 126 225.980778 154 198.980778 C 163.24 190.070778 182 171.980778 183 138.980778 C 183 128.420778 183 106.980778 166 91.980778 C 160.39 87.030778 149 76.980778 128 75.980778 C 123.71 75.980778 115 75.980778 104 83.980778 C 100.37 86.620778 93 91.980778 92 109.980778 C 92 115.260778 92 125.980778 101 137.980778 C 103.97 141.940778 110 149.980778 118 155.980778 C 120.64 157.960778 126 161.980778 131 161.980778 C 131.33 161.980778 132 161.980778 132 162.980778 C 132 163.970778 132 165.980778 125 171.980778 C 122.69 173.960778 118 177.980778 100 182.980778 C 94.06 184.630778 82 187.980778 61 188.980778 C 45.16 188.980778 13 188.980778 -9 162.980778 C -16.260001 154.400778 -31 136.980778 -32 109.980778 C -32 101.730778 -32 84.980778 -13 74.980778 C -6.73 71.680778 6 64.980778 42 57.980778 C 53.88 55.670778 78 50.980778 94 42.980778 C 115.78 33.410778 160 13.980778 160 -53.019222 C 160 -62.259222 160 -81.019222 149 -109.019222 C 145.37 -118.259222 138 -137.019222 116 -165.019222 C 108.74 -174.259222 94 -193.019222 53 -209.019222 C 39.47 -214.299222 12 -225.019222 -41 -226.019222 C -66.41 -226.019222 -118 -226.019222 -150 -197.019222 C -160.56 -187.449222 -182 -168.019222 -183 -129.019222 C -183 -116.149222 -183 -90.019222 -162 -73.019222 C -155.07 -67.409222 -141 -56.019222 -118 -56.019222 C -113.05 -56.019222 -103 -56.019222 -90 -65.019222 C -85.71 -67.989222 -77 -74.019222 -76 -96.019222 C -76 -104.599222 -76 -122.019222 -94 -140.019222 C -99.94 -145.959222 -112 -158.019222 -125 -158.019222 C -125.66 -158.349222 -127 -159.019222 -128 -159.019222 C -128.330001 -159.019222 -129 -159.019222 -129 -161.019222 C -128.67 -162.009222 -128 -164.019222 -121 -169.019222 C -118.69 -170.669222 -114 -174.019222 -90 -182.019222 C -82.08 -184.659222 -66 -190.019222 -35 -189.019222 C -23.12 -189.019222 1 -189.019222 27 -178.019222 C 35.58 -174.389222 53 -167.019222 65 -150.019222 C 68.96 -144.409222 77 -133.019222 82 -119.019222 C 83.65 -114.399222 87 -105.019222 87 -94.019222 C 87 -84.779222 87 -66.019222 66 -52.019222 C 59.07 -47.399222 45 -38.019222 18 -35.019222 C 9.09 -34.029222 -9 -32.019222 -41 -20.019222 C -51.56 -16.059222 -73 -8.019222 -88 14.980778 C -93.61 23.230778 -105 39.980778 -105 72.980778 C -105 72.980778 -105 72.980778 -105 72.980778 Z " fill="rgb(0, 0, 0)" stroke="none" stroke-width="1" stroke-opacity="1" fill-opacity="1" visibility="visible" stroke-linecap="butt" stroke-linejoin="miter" stroke-miterlimit="4"></path></g><g id="two-24" transform="matrix(1 0 0 1 220 -345)" opacity="1" data-mml-node="mi"><path transform="matrix(1 0 0 1 301.67929 210)" id="two-25" d="M -117.679303 -221 C -140.119303 -221 -185.679303 -221 -227.679303 -176 C -241.539303 -161.15 -269.679303 -131 -270.679303 -63 C -270.679303 -30 -270.679303 37 -197.679303 123 C -173.589303 151.38 -124.679303 209 -27.679303 220 C -27.349303 220.33 -26.679303 221 112.320697 221 L 250.320697 221 C 250.650697 220.67 251.320697 220 253.320697 219 C 253.980697 218.67 255.320697 218 257.320697 217 C 257.980697 216.67 259.320697 216 260.320697 215 C 260.650697 214.67 261.320697 214 263.320697 212 C 263.980697 211.34 265.320697 210 265.320697 210 C 265.320697 210 265.320697 210 267.320697 206 C 267.980697 204.68 269.320697 202 268.320697 202 C 267.990697 202 267.320697 202 269.320697 197 C 269.980697 195.35 271.320697 192 270.320697 191 C 270.320697 176.48 270.320697 147 205.320697 147 C 203.010697 147 198.320697 147 188.320697 147 C 185.020697 147 178.320697 147 174.320697 148 L 114.320697 148 L 119.320697 138 C 125.260697 125.46 137.320697 100 137.320697 53 C 137.320697 16.699999 137.320697 -57 57.320697 -139 C 30.920697 -166.06 -22.679303 -221 -117.679303 -221 Z M 59.320697 68 C 59.320697 94.4 59.320697 148 -25.679303 148 C -66.599303 148 -149.679303 148 -186.679303 -26 C -187.009303 -27.32 -187.679303 -30 -187.679303 -32 C -190.319303 -44.21 -195.679303 -69 -195.679303 -93 C -195.679303 -109.5 -195.679303 -143 -170.679303 -163 C -162.429303 -169.6 -145.679303 -183 -113.679303 -184 C -95.859303 -184 -59.679303 -184 -14.679303 -137 C -5.109303 -127.1 14.320697 -107 32.320697 -57 C 38.260697 -40.5 50.320697 -7 54.320697 23 C 55.640697 32.9 58.320697 53 59.320697 68 C 59.320697 68 59.320697 68 59.320697 68 Z " fill="rgb(0, 0, 0)" stroke="none" stroke-width="1" stroke-opacity="1" fill-opacity="1" visibility="visible" stroke-linecap="butt" stroke-linejoin="miter" stroke-miterlimit="4"></path></g><path transform="matrix(1 0 0 1 421.899993 250)" id="two-26" d="M -301.9 -30 L 301.9 -30 L 301.9 30 L -301.9 30 Z " fill="rgb(0, 0, 0)" stroke="none" stroke-width="1" stroke-opacity="1" fill-opacity="1" visibility="visible" stroke-linecap="butt" stroke-linejoin="miter" stroke-miterlimit="4"></path></g></g></g></g><path transform="matrix(1 0 0 1 0 0)" id="two-28" d="M 50.25 203 C 54.611453 197.685553 55.564446 207.361453 59.9259 202.047006 " fill="none" stroke="rgb(0,0,0)" stroke-width="1.125" stroke-opacity="1" fill-opacity="1" visibility="visible" stroke-linecap="butt" stroke-linejoin="miter" stroke-miterlimit="4"></path><path transform="matrix(1 0 0 1 0 0)" id="two-29" d="M 50.25 203 C 54.611453 197.685553 44.935553 198.638546 49.297006 193.324099 " fill="none" stroke="rgb(0,0,0)" stroke-width="1.125" stroke-opacity="1" fill-opacity="1" visibility="visible" stroke-linecap="butt" stroke-linejoin="miter" stroke-miterlimit="4"></path><g id="two-30" transform="matrix(0.0175 0 0 -0.017501 218.25 139)" opacity="1" clip-path="url(#two-44)"><g id="two-31" transform="matrix(1 0 0 1 0 0)" opacity="1"><g id="two-32" transform="matrix(1 0 0 1 0 0)" opacity="1" data-mml-node="math"><g id="two-33" transform="matrix(1 0 0 1 0 0)" opacity="1" data-mml-node="mi"><path transform="matrix(1 0 0 1 266.5 113)" id="two-34" d="M -208.5 -329 C -219.39 -329 -241.5 -329 -243.5 -299 C -243.5 -295.7 -243.5 -289 -193.5 -87 C -177 -20.340001 -143.5 115 -139.5 121 C -134.22 139.15 -123.5 176 -84.5 228 C -61.4 256.38 -14.5 314 74.5 328 C 75.16 328 76.5 328 82.5 328 C 84.48 328 88.5 328 92.5 329 C 116.59 329 165.5 329 204.5 281 C 217.37 265.16 243.5 233 243.5 163 C 243.5 144.19 243.5 106 219.5 52 C 211.58 34.18 195.5 -2 158.5 -39 C 146.29 -51.21 121.5 -76 78.5 -100 C 64.31 -107.92 35.5 -124 -0.5 -123 L -11.5 -123 L -18.5 -123 C -35.33 -123 -69.5 -123 -101.5 -78 L -106.5 -72 L -133.5 -184 C -141.75 -216.01 -158.5 -281 -162.5 -294 C -163.82 -298.29 -166.5 -307 -174.5 -315 C -179.78 -319.62 -190.5 -329 -208.5 -329 Z M 157.5 209 C 157.5 221.21 157.5 246 140.5 269 C 134.89 276.59 123.5 292 90.5 292 C 78.95 292 55.5 292 20.5 263 C 8.95 253.43 -14.5 234 -35.5 187 C -40.12 176.77 -49.5 156 -73.5 57 L -90.5 -11 C -84.89 -36.08 -73.5 -87 -6.5 -87 C 6.04 -87 31.5 -87 67.5 -51 C 78.39 -41.1 100.5 -21 122.5 45 C 129.759999 66.78 144.5 111 151.5 153 C 153.81 166.86 158.5 195 157.5 209 C 157.5 209 157.5 209 157.5 209 Z " fill="rgb(0, 0, 0)" stroke="none" stroke-width="1" stroke-opacity="1" fill-opacity="1" visibility="visible" stroke-linecap="butt" stroke-linejoin="miter" stroke-miterlimit="4"></path></g><g id="two-35" transform="matrix(1 0 0 1 794.799987 0)" opacity="1" data-mml-node="mo"><path transform="matrix(1 0 0 1 389 250)" id="two-36" d="M -333 97 C -333 101.29 -333 110 -319 117 L 318 117 C 322.95 114.36 333 109 333 97 C 333 93.37 333 86 319 78 L 1 77 L -317 77 C -322.28 78.65 -333 82 -333 97 Z M -333 -97 C -333 -92.05 -333 -82 -317 -77 L 319 -77 C 323.62 -80.3 333 -87 333 -97 C 333 -101.29 333 -110 318 -117 L -319 -117 C -323.62 -114.69 -333 -110 -333 -97 C -333 -97 -333 -97 -333 -97 Z " fill="rgb(0, 0, 0)" stroke="none" stroke-width="1" stroke-opacity="1" fill-opacity="1" visibility="visible" stroke-linecap="butt" stroke-linejoin="miter" stroke-miterlimit="4"></path></g><g id="two-37" transform="matrix(1 0 0 1 1850.599975 0)" opacity="1" data-mml-node="mn"><path transform="matrix(1 0 0 1 255 333)" id="two-38" d="M -42 245 L -55 240 C -59.62 238.35 -69 235 -95 230 C -103.58 228.35 -121 225 -153 223 L -172 223 L -172 269 L -153 269 C -137.49 269.66 -106 271 -66 284 C -52.8 288.29 -26 297 -10 308 C -4.72 311.63 6 319 18 330 C 18.66 330.99 20 333 30 333 C 32.97 333 39 333 47 327 L 47 28 L 48 -272 C 50.31 -274.31 55 -279 60 -281 C 61.65 -281.66 65 -283 84 -285 C 90.27 -285.66 103 -287 146 -287 L 172 -287 L 172 -333 L 161 -333 C 154.07 -332.01 140 -330 2 -330 C -42.88 -330 -134 -330 -155 -333 L -167 -333 L -167 -287 L -141 -287 C -133.740001 -287 -119 -287 -103 -287 C -97.72 -287 -87 -287 -78 -286 C -75.03 -285.67 -69 -285 -62 -283 C -59.69 -282.34 -55 -281 -54 -281 C -53.67 -281 -53 -281 -48 -276 C -46.35 -274.35 -43 -271 -42 -272 L -42 245 Z " fill="rgb(0, 0, 0)" stroke="none" stroke-width="1" stroke-opacity="1" fill-opacity="1" visibility="visible" stroke-linecap="butt" stroke-linejoin="miter" stroke-miterlimit="4"></path></g><g id="two-39" transform="matrix(1 0 0 1 2350.600097 0)" opacity="1" data-mml-node="TeXAtom" data-mjx-texclass="ORD"><g id="two-40" transform="matrix(1 0 0 1 0 0)" opacity="1" data-mml-node="mo"><path transform="matrix(1 0 0 1 250 250)" id="two-41" d="M 173 500 C 175.97 500 182 500 188 494 C 189.98 492.02 194 488 194 480 C 194 478.35 194 475 21 -2 C -36.09 -159.41 -152 -479 -158 -490 C -160.31 -493.3 -165 -500 -175 -500 C -177.31 -500 -182 -500 -188 -495 C -189.98 -493.35 -194 -490 -194 -481 C -194 -477.7 -194 -471 -20 7 C 37.42 164.74 154 485 157 490 C 158.32 493.3 161 500 173 500 C 173 500 173 500 173 500 Z " fill="rgb(0, 0, 0)" stroke="none" stroke-width="1" stroke-opacity="1" fill-opacity="1" visibility="visible" stroke-linecap="butt" stroke-linejoin="miter" stroke-miterlimit="4"></path></g></g><g id="two-42" transform="matrix(1 0 0 1 2850.600097 0)" opacity="1" data-mml-node="mn"><path transform="matrix(1 0 0 1 249.5 321.5)" id="two-43" d="M -122.5 141.5 C -131.41 141.5 -149.5 141.5 -164.5 158.5 C -169.45 164.11 -179.5 175.5 -180.5 202.5 C -180.5 220.65 -180.5 257.5 -132.5 300.5 C -116.66 314.69 -84.5 343.5 -16.5 343.5 C -4.95 343.5 18.5 343.5 27.5 342.5 C 51.92 338.54 101.5 330.5 140.5 289.5 C 153.37 275.97 179.5 248.5 180.5 200.5 C 180.5 183.34 180.5 148.5 146.5 99.5 C 135.28 83.33 112.5 50.5 52.5 28.5 L 49.5 26.5 C 49.5 26.17 49.5 25.5 58.5 23.5 C 61.47 22.84 67.5 21.5 87.5 14.5 C 94.1 12.19 107.5 7.5 125.5 -6.5 C 152.56 -23.990001 207.5 -59.5 207.5 -146.5 C 207.5 -172.57 207.5 -225.5 145.5 -284.5 C 125.039999 -303.97 83.5 -343.5 -11.5 -343.5 C -37.900001 -343.5 -91.5 -343.5 -149.5 -300.5 C -168.64 -286.31 -207.5 -257.5 -207.5 -191.5 C -207.5 -182.26 -207.5 -163.5 -189.5 -146.5 C -183.56 -140.89 -171.5 -129.5 -144.5 -128.5 C -135.26 -128.5 -116.5 -128.5 -98.5 -146.5 C -92.56 -152.44 -80.5 -164.5 -80.5 -191.5 C -80.5 -195.13 -80.5 -202.5 -83.5 -211.5 C -84.49 -214.47 -86.5 -220.5 -90.5 -227.5 C -91.82 -229.81 -94.5 -234.5 -101.5 -239.5 C -103.81 -241.15 -108.5 -244.5 -113.5 -247.5 C -115.15 -248.49 -118.5 -250.5 -123.5 -251.5 C -125.15 -251.83 -128.5 -252.5 -131.5 -254.5 L -135.5 -255.5 C -118.67 -270.35 -84.5 -300.5 -11.5 -300.5 C 6.65 -300.5 43.5 -300.5 71.5 -247.5 C 77.11 -236.61 88.5 -214.5 88.5 -146.5 L 88.5 -126.5 C 88.5 -95.15 88.5 -31.5 24.5 0.5 C 19.55 2.48 9.5 6.5 -36.5 7.5 L -78.5 8.5 L -81.5 10.5 C -82.16 11.49 -83.5 13.5 -83.5 26.5 C -83.5 32.439999 -83.5 44.5 -75.5 44.5 C -66.260001 44.5 -47.5 44.5 -17.5 49.5 C -6.28 51.15 16.5 54.5 44.5 91.5 C 53.74 103.71 72.5 128.5 72.5 203.5 L 72.5 211.5 C 72.5 230.31 72.5 268.5 37.5 290.5 C 30.24 295.12 15.5 304.5 -9.5 304.5 C -20.060001 304.5 -41.5 304.5 -68.5 293.5 C -77.41 289.87 -95.5 282.5 -106.5 270.5 C -110.13 266.54 -117.5 258.5 -117.5 258.5 L -114.5 258.5 C -113.51 258.17 -111.5 257.5 -106.5 256.5 C -104.85 256.17 -101.5 255.5 -96.5 251.5 C -94.85 250.18 -91.5 247.5 -84.5 244.5 C -82.19 243.51 -77.5 241.5 -74.5 233.5 C -73.51 230.86 -71.5 225.5 -66.5 218.5 C -64.85 216.19 -61.5 211.5 -63.5 198.5 C -63.5 191.24 -63.5 176.5 -77.5 159.5 C -82.12 153.89 -91.5 142.5 -122.5 141.5 C -122.5 141.5 -122.5 141.5 -122.5 141.5 Z " fill="rgb(0, 0, 0)" stroke="none" stroke-width="1" stroke-opacity="1" fill-opacity="1" visibility="visible" stroke-linecap="butt" stroke-linejoin="miter" stroke-miterlimit="4"></path></g></g></g></g><path transform="matrix(1 0 0 1 0 0)" id="two-45" d="M 207.75 136 C 202.59375 136 207.75 125 202.59375 125 " fill="none" stroke="rgb(0,0,0)" stroke-width="1.125" stroke-opacity="1" fill-opacity="1" visibility="visible" stroke-linecap="butt" stroke-linejoin="miter" stroke-miterlimit="4"></path><path transform="matrix(1 0 0 1 0 0)" id="two-46" d="M 207.75 136 C 202.59375 136 207.75 147 202.59375 147 " fill="none" stroke="rgb(0,0,0)" stroke-width="1.125" stroke-opacity="1" fill-opacity="1" visibility="visible" stroke-linecap="butt" stroke-linejoin="miter" stroke-miterlimit="4"></path><g id="two-47" transform="matrix(0.0175 0 0 -0.017501 218.25 90)" opacity="1" clip-path="url(#two-69)"><g id="two-48" transform="matrix(1 0 0 1 0 0)" opacity="1"><g id="two-49" transform="matrix(1 0 0 1 0 0)" opacity="1" data-mml-node="math"><g id="two-50" transform="matrix(1 0 0 1 0 0)" opacity="1" data-mml-node="mo"><path transform="matrix(1 0 0 1 213.5 250)" id="two-51" d="M -119.5 0 C -119.5 22.77 -119.5 69 -109.5 131 C -106.2 151.46 -99.5 193 -86.5 238 C -82.21 252.85 -73.5 283 -49.5 326 C -41.58 340.19 -25.5 369 -11.5 393 C -6.88 400.92 2.5 417 30.5 445 C 39.74 454.24 58.5 473 63.5 479 C 65.15 480.98 68.5 485 88.5 500 L 101.5 500 L 105.5 500 C 110.12 500 119.5 500 119.5 491 C 119.5 490.01 119.5 488 102.5 470 C 96.89 464.06 85.5 452 61.5 417 C 53.58 405.45 37.5 382 12.5 331 C 4.25 314.17 -12.5 280 -29.5 193 C -35.11 164.29 -46.5 106 -46.5 0 C -46.5 -34.980001 -46.5 -106 -29.5 -192 C -23.89 -220.38 -12.5 -278 11.5 -331 C 19.42 -348.49 35.5 -384 60.5 -417 C 68.75 -427.89 85.5 -450 102.5 -470 C 108.11 -476.6 119.5 -490 119.5 -491 C 119.5 -493.97 119.5 -500 104.5 -500 L 101.5 -500 L 88.5 -500 L 60.5 -476 C 29.479999 -447.95 -33.5 -391 -76.5 -264 C -90.69 -222.09 -119.5 -137 -119.5 0 C -119.5 0 -119.5 0 -119.5 0 Z " fill="rgb(0, 0, 0)" stroke="none" stroke-width="1" stroke-opacity="1" fill-opacity="1" visibility="visible" stroke-linecap="butt" stroke-linejoin="miter" stroke-miterlimit="4"></path></g><g id="two-52" transform="matrix(1 0 0 1 389 0)" opacity="1" data-mml-node="mn"><path transform="matrix(1 0 0 1 255 333)" id="two-53" d="M -42 245 L -55 240 C -59.62 238.35 -69 235 -95 230 C -103.58 228.35 -121 225 -153 223 L -172 223 L -172 269 L -153 269 C -137.49 269.66 -106 271 -66 284 C -52.8 288.29 -26 297 -10 308 C -4.72 311.63 6 319 18 330 C 18.66 330.99 20 333 30 333 C 32.97 333 39 333 47 327 L 47 28 L 48 -272 C 50.31 -274.31 55 -279 60 -281 C 61.65 -281.66 65 -283 84 -285 C 90.27 -285.66 103 -287 146 -287 L 172 -287 L 172 -333 L 161 -333 C 154.07 -332.01 140 -330 2 -330 C -42.88 -330 -134 -330 -155 -333 L -167 -333 L -167 -287 L -141 -287 C -133.740001 -287 -119 -287 -103 -287 C -97.72 -287 -87 -287 -78 -286 C -75.03 -285.67 -69 -285 -62 -283 C -59.69 -282.34 -55 -281 -54 -281 C -53.67 -281 -53 -281 -48 -276 C -46.35 -274.35 -43 -271 -42 -272 L -42 245 Z " fill="rgb(0, 0, 0)" stroke="none" stroke-width="1" stroke-opacity="1" fill-opacity="1" visibility="visible" stroke-linecap="butt" stroke-linejoin="miter" stroke-miterlimit="4"></path></g><g id="two-54" transform="matrix(1 0 0 1 1111.199951 0)" opacity="1" data-mml-node="mo"><path transform="matrix(1 0 0 1 389 250)" id="two-55" d="M -305 -13 C -305 -13 -305 -13 -305 0 C -305 4.29 -305 13 -291 20 L 290 20 C 294.95 17.36 305 12 305 0 C 305 -3.96 305 -12 290 -20 L -291 -20 C -295.62 -17.69 -305 -13 -305 0 C -305 0 -305 -13 -305 -13 Z " fill="rgb(0, 0, 0)" stroke="none" stroke-width="1" stroke-opacity="1" fill-opacity="1" visibility="visible" stroke-linecap="butt" stroke-linejoin="miter" stroke-miterlimit="4"></path></g><g id="two-56" transform="matrix(1 0 0 1 2111.399902 0)" opacity="1" data-mml-node="mi"><path transform="matrix(1 0 0 1 266.5 113)" id="two-57" d="M -208.5 -329 C -219.39 -329 -241.5 -329 -243.5 -299 C -243.5 -295.7 -243.5 -289 -193.5 -87 C -177 -20.340001 -143.5 115 -139.5 121 C -134.22 139.15 -123.5 176 -84.5 228 C -61.4 256.38 -14.5 314 74.5 328 C 75.16 328 76.5 328 82.5 328 C 84.48 328 88.5 328 92.5 329 C 116.59 329 165.5 329 204.5 281 C 217.37 265.16 243.5 233 243.5 163 C 243.5 144.19 243.5 106 219.5 52 C 211.58 34.18 195.5 -2 158.5 -39 C 146.29 -51.21 121.5 -76 78.5 -100 C 64.31 -107.92 35.5 -124 -0.5 -123 L -11.5 -123 L -18.5 -123 C -35.33 -123 -69.5 -123 -101.5 -78 L -106.5 -72 L -133.5 -184 C -141.75 -216.01 -158.5 -281 -162.5 -294 C -163.82 -298.29 -166.5 -307 -174.5 -315 C -179.78 -319.62 -190.5 -329 -208.5 -329 Z M 157.5 209 C 157.5 221.21 157.5 246 140.5 269 C 134.89 276.59 123.5 292 90.5 292 C 78.95 292 55.5 292 20.5 263 C 8.95 253.43 -14.5 234 -35.5 187 C -40.12 176.77 -49.5 156 -73.5 57 L -90.5 -11 C -84.89 -36.08 -73.5 -87 -6.5 -87 C 6.04 -87 31.5 -87 67.5 -51 C 78.39 -41.1 100.5 -21 122.5 45 C 129.759999 66.78 144.5 111 151.5 153 C 153.81 166.86 158.5 195 157.5 209 C 157.5 209 157.5 209 157.5 209 Z " fill="rgb(0, 0, 0)" stroke="none" stroke-width="1" stroke-opacity="1" fill-opacity="1" visibility="visible" stroke-linecap="butt" stroke-linejoin="miter" stroke-miterlimit="4"></path></g><g id="two-58" transform="matrix(1 0 0 1 2628.399902 0)" opacity="1" data-mml-node="mo"><path transform="matrix(1 0 0 1 174.5 250)" id="two-59" d="M -114.5 499 L -110.5 500 C -108.85 500 -105.5 500 -100.5 500 L -88.5 500 L -60.5 476 C -29.48 447.95 33.5 391 76.5 264 C 90.69 222.09 119.5 137 119.5 0 C 119.5 -22.44 119.5 -68 109.5 -131 C 106.2 -151.79 99.5 -194 86.5 -238 C 82.21 -252.52 73.5 -282 49.5 -326 C 41.58 -340.52 25.5 -370 11.5 -393 C 6.88 -400.59 -2.5 -416 -29.5 -444 C -38.41 -453.24 -56.5 -472 -61.5 -477 C -63.15 -478.65 -66.5 -482 -84.5 -496 C -85.49 -496.99 -87.5 -499 -88.5 -500 L -100.5 -500 C -103.14 -500 -108.5 -500 -111.5 -500 C -112.49 -500 -114.5 -500 -116.5 -497 C -117.16 -496.01 -118.5 -494 -119.5 -488 C -119.17 -487.67 -118.5 -487 -108.5 -475 C -57.35 -421.87 46.5 -314 46.5 0 C 46.5 103.62 46.5 314 -108.5 475 C -111.8 478.96 -118.5 487 -119.5 488 C -119.5 490.64 -119.5 496 -114.5 499 C -114.5 499 -114.5 499 -114.5 499 Z " fill="rgb(0, 0, 0)" stroke="none" stroke-width="1" stroke-opacity="1" fill-opacity="1" visibility="visible" stroke-linecap="butt" stroke-linejoin="miter" stroke-miterlimit="4"></path></g><g id="two-60" transform="matrix(1 0 0 1 3295.199951 0)" opacity="1" data-mml-node="mo"><path transform="matrix(1 0 0 1 389 250)" id="two-61" d="M -333 97 C -333 101.29 -333 110 -319 117 L 318 117 C 322.95 114.36 333 109 333 97 C 333 93.37 333 86 319 78 L 1 77 L -317 77 C -322.28 78.65 -333 82 -333 97 Z M -333 -97 C -333 -92.05 -333 -82 -317 -77 L 319 -77 C 323.62 -80.3 333 -87 333 -97 C 333 -101.29 333 -110 318 -117 L -319 -117 C -323.62 -114.69 -333 -110 -333 -97 C -333 -97 -333 -97 -333 -97 Z " fill="rgb(0, 0, 0)" stroke="none" stroke-width="1" stroke-opacity="1" fill-opacity="1" visibility="visible" stroke-linecap="butt" stroke-linejoin="miter" stroke-miterlimit="4"></path></g><g id="two-62" transform="matrix(1 0 0 1 4351 0)" opacity="1" data-mml-node="mn"><path transform="matrix(1 0 0 1 249.5 333)" id="two-63" d="M -140.5 96 C -149.41 96 -167.5 96 -183.5 114 C -188.78 119.94 -199.5 132 -199.5 158 C -199.5 181.43 -199.5 229 -146.5 281 C -129.01 298.16 -93.5 333 -14.5 333 C 15.53 333 76.5 333 137.5 277 C 157.63 258.519999 198.5 221 199.5 132 C 199.5 117.81 199.5 89 179.5 50 C 172.9 37.129999 159.5 11 131.5 -18 C 122.26 -27.57 103.5 -47 51.5 -92 C 39.62 -102.23 15.5 -123 -48.5 -184 L -107.5 -240 L -31.5 -241 C 20.31 -241 125.5 -241 135.5 -236 C 137.81 -235.34 142.5 -234 159.5 -147 L 159.5 -144 L 199.5 -144 L 199.5 -147 C 199.17 -147.99 198.5 -150 186.5 -238 C 182.54 -267.040001 174.5 -326 171.5 -330 L 171.5 -333 L -199.5 -333 L -199.5 -314 L -199.5 -302 C -199.5 -299.69 -199.5 -295 -193.5 -287 C -191.52 -284.36 -187.5 -279 -163.5 -252 C -153.93 -241.44 -134.5 -220 -113.5 -196 C -110.53 -192.7 -104.5 -186 -79.5 -159 C -71.25 -150.09 -54.5 -132 -45.5 -122 C -42.53 -118.7 -36.5 -112 -16.5 -89 C -9.9 -81.41 3.5 -66 11.5 -55 C 14.14 -51.37 19.5 -44 34.5 -25 C 39.45 -18.73 49.5 -6 55.5 7 C 57.48 11.29 61.5 20 70.5 36 C 73.47 41.28 79.5 52 83.5 68 C 84.82 73.28 87.5 84 90.5 98 C 91.49 102.62 93.5 112 93.5 131 C 93.5 151.79 93.5 194 59.5 240 C 48.28 255.18 25.5 286 -37.5 286 C -48.39 286 -70.5 286 -95.5 269 C -103.75 263.39 -120.5 252 -130.5 236 C -133.800001 230.72 -140.5 220 -140.5 217 C -140.5 216.67 -140.5 216 -135.5 216 C -129.56 216 -117.5 216 -98.5 202 C -92.23 197.38 -79.5 188 -79.5 156 C -79.5 147.75 -79.5 131 -95.5 114 C -100.78 108.39 -111.5 97 -140.5 96 C -140.5 96 -140.5 96 -140.5 96 Z " fill="rgb(0, 0, 0)" stroke="none" stroke-width="1" stroke-opacity="1" fill-opacity="1" visibility="visible" stroke-linecap="butt" stroke-linejoin="miter" stroke-miterlimit="4"></path></g><g id="two-64" transform="matrix(1 0 0 1 4851 0)" opacity="1" data-mml-node="TeXAtom" data-mjx-texclass="ORD"><g id="two-65" transform="matrix(1 0 0 1 0 0)" opacity="1" data-mml-node="mo"><path transform="matrix(1 0 0 1 250 250)" id="two-66" d="M 173 500 C 175.97 500 182 500 188 494 C 189.98 492.02 194 488 194 480 C 194 478.35 194 475 21 -2 C -36.09 -159.41 -152 -479 -158 -490 C -160.31 -493.3 -165 -500 -175 -500 C -177.31 -500 -182 -500 -188 -495 C -189.98 -493.35 -194 -490 -194 -481 C -194 -477.7 -194 -471 -20 7 C 37.42 164.74 154 485 157 490 C 158.32 493.3 161 500 173 500 C 173 500 173 500 173 500 Z " fill="rgb(0, 0, 0)" stroke="none" stroke-width="1" stroke-opacity="1" fill-opacity="1" visibility="visible" stroke-linecap="butt" stroke-linejoin="miter" stroke-miterlimit="4"></path></g></g><g id="two-67" transform="matrix(1 0 0 1 5351 0)" opacity="1" data-mml-node="mn"><path transform="matrix(1 0 0 1 249.5 321.5)" id="two-68" d="M -122.5 141.5 C -131.41 141.5 -149.5 141.5 -164.5 158.5 C -169.45 164.11 -179.5 175.5 -180.5 202.5 C -180.5 220.65 -180.5 257.5 -132.5 300.5 C -116.66 314.69 -84.5 343.5 -16.5 343.5 C -4.95 343.5 18.5 343.5 27.5 342.5 C 51.92 338.54 101.5 330.5 140.5 289.5 C 153.37 275.97 179.5 248.5 180.5 200.5 C 180.5 183.34 180.5 148.5 146.5 99.5 C 135.28 83.33 112.5 50.5 52.5 28.5 L 49.5 26.5 C 49.5 26.17 49.5 25.5 58.5 23.5 C 61.47 22.84 67.5 21.5 87.5 14.5 C 94.1 12.19 107.5 7.5 125.5 -6.5 C 152.56 -23.990001 207.5 -59.5 207.5 -146.5 C 207.5 -172.57 207.5 -225.5 145.5 -284.5 C 125.039999 -303.97 83.5 -343.5 -11.5 -343.5 C -37.900001 -343.5 -91.5 -343.5 -149.5 -300.5 C -168.64 -286.31 -207.5 -257.5 -207.5 -191.5 C -207.5 -182.26 -207.5 -163.5 -189.5 -146.5 C -183.56 -140.89 -171.5 -129.5 -144.5 -128.5 C -135.26 -128.5 -116.5 -128.5 -98.5 -146.5 C -92.56 -152.44 -80.5 -164.5 -80.5 -191.5 C -80.5 -195.13 -80.5 -202.5 -83.5 -211.5 C -84.49 -214.47 -86.5 -220.5 -90.5 -227.5 C -91.82 -229.81 -94.5 -234.5 -101.5 -239.5 C -103.81 -241.15 -108.5 -244.5 -113.5 -247.5 C -115.15 -248.49 -118.5 -250.5 -123.5 -251.5 C -125.15 -251.83 -128.5 -252.5 -131.5 -254.5 L -135.5 -255.5 C -118.67 -270.35 -84.5 -300.5 -11.5 -300.5 C 6.65 -300.5 43.5 -300.5 71.5 -247.5 C 77.11 -236.61 88.5 -214.5 88.5 -146.5 L 88.5 -126.5 C 88.5 -95.15 88.5 -31.5 24.5 0.5 C 19.55 2.48 9.5 6.5 -36.5 7.5 L -78.5 8.5 L -81.5 10.5 C -82.16 11.49 -83.5 13.5 -83.5 26.5 C -83.5 32.439999 -83.5 44.5 -75.5 44.5 C -66.260001 44.5 -47.5 44.5 -17.5 49.5 C -6.28 51.15 16.5 54.5 44.5 91.5 C 53.74 103.71 72.5 128.5 72.5 203.5 L 72.5 211.5 C 72.5 230.31 72.5 268.5 37.5 290.5 C 30.24 295.12 15.5 304.5 -9.5 304.5 C -20.060001 304.5 -41.5 304.5 -68.5 293.5 C -77.41 289.87 -95.5 282.5 -106.5 270.5 C -110.13 266.54 -117.5 258.5 -117.5 258.5 L -114.5 258.5 C -113.51 258.17 -111.5 257.5 -106.5 256.5 C -104.85 256.17 -101.5 255.5 -96.5 251.5 C -94.85 250.18 -91.5 247.5 -84.5 244.5 C -82.19 243.51 -77.5 241.5 -74.5 233.5 C -73.51 230.86 -71.5 225.5 -66.5 218.5 C -64.85 216.19 -61.5 211.5 -63.5 198.5 C -63.5 191.24 -63.5 176.5 -77.5 159.5 C -82.12 153.89 -91.5 142.5 -122.5 141.5 C -122.5 141.5 -122.5 141.5 -122.5 141.5 Z " fill="rgb(0, 0, 0)" stroke="none" stroke-width="1" stroke-opacity="1" fill-opacity="1" visibility="visible" stroke-linecap="butt" stroke-linejoin="miter" stroke-miterlimit="4"></path></g></g></g></g><path transform="matrix(1 0 0 1 0 0)" id="two-70" d="M 213 85 C 202.6875 85 213 54.0625 202.6875 54.0625 " fill="none" stroke="rgb(0,0,0)" stroke-width="1.125" stroke-opacity="1" fill-opacity="1" visibility="visible" stroke-linecap="butt" stroke-linejoin="miter" stroke-miterlimit="4"></path><path transform="matrix(1 0 0 1 0 0)" id="two-71" d="M 213 85 C 202.6875 85 213 115.9375 202.6875 115.9375 " fill="none" stroke="rgb(0,0,0)" stroke-width="1.125" stroke-opacity="1" fill-opacity="1" visibility="visible" stroke-linecap="butt" stroke-linejoin="miter" stroke-miterlimit="4"></path><path transform="matrix(1 0 0 1 0 0)" id="two-72" d="M 118.5 208 C 115.894014 201.638045 135.619441 200.98753 133.013455 194.625575 " fill="none" stroke="rgb(0,0,0)" stroke-width="1.125" stroke-opacity="1" fill-opacity="1" visibility="visible" stroke-linecap="butt" stroke-linejoin="miter" stroke-miterlimit="4"></path><path transform="matrix(1 0 0 1 0 0)" id="two-73" d="M 118.5 208 C 115.894014 201.638045 101.380558 215.012469 98.774573 208.650515 " fill="none" stroke="rgb(0,0,0)" stroke-width="1.125" stroke-opacity="1" fill-opacity="1" visibility="visible" stroke-linecap="butt" stroke-linejoin="miter" stroke-miterlimit="4"></path><path transform="matrix(1 0 0 1 0 0)" id="two-74" d="M 171 187 C 168.394014 180.638045 188.119441 179.98753 185.513455 173.625575 " fill="none" stroke="rgb(0,0,0)" stroke-width="1.125" stroke-opacity="1" fill-opacity="1" visibility="visible" stroke-linecap="butt" stroke-linejoin="miter" stroke-miterlimit="4"></path><path transform="matrix(1 0 0 1 0 0)" id="two-75" d="M 171 187 C 168.394014 180.638045 153.880558 194.012469 151.274573 187.650515 " fill="none" stroke="rgb(0,0,0)" stroke-width="1.125" stroke-opacity="1" fill-opacity="1" visibility="visible" stroke-linecap="butt" stroke-linejoin="miter" stroke-miterlimit="4"></path><g id="two-76" transform="matrix(0.0175 0 0 -0.017501 118.5 227)" opacity="1" clip-path="url(#two-86)"><g id="two-77" transform="matrix(1 0 0 1 0 0)" opacity="1"><g id="two-78" transform="matrix(1 0 0 1 0 0)" opacity="1" data-mml-node="math"><g id="two-79" transform="matrix(1 0 0 1 0 0)" opacity="1" data-mml-node="mn"><path transform="matrix(1 0 0 1 255 333)" id="two-80" d="M -42 245 L -55 240 C -59.62 238.35 -69 235 -95 230 C -103.58 228.35 -121 225 -153 223 L -172 223 L -172 269 L -153 269 C -137.49 269.66 -106 271 -66 284 C -52.8 288.29 -26 297 -10 308 C -4.72 311.63 6 319 18 330 C 18.66 330.99 20 333 30 333 C 32.97 333 39 333 47 327 L 47 28 L 48 -272 C 50.31 -274.31 55 -279 60 -281 C 61.65 -281.66 65 -283 84 -285 C 90.27 -285.66 103 -287 146 -287 L 172 -287 L 172 -333 L 161 -333 C 154.07 -332.01 140 -330 2 -330 C -42.88 -330 -134 -330 -155 -333 L -167 -333 L -167 -287 L -141 -287 C -133.740001 -287 -119 -287 -103 -287 C -97.72 -287 -87 -287 -78 -286 C -75.03 -285.67 -69 -285 -62 -283 C -59.69 -282.34 -55 -281 -54 -281 C -53.67 -281 -53 -281 -48 -276 C -46.35 -274.35 -43 -271 -42 -272 L -42 245 Z " fill="rgb(0, 0, 0)" stroke="none" stroke-width="1" stroke-opacity="1" fill-opacity="1" visibility="visible" stroke-linecap="butt" stroke-linejoin="miter" stroke-miterlimit="4"></path></g><g id="two-81" transform="matrix(1 0 0 1 500 0)" opacity="1" data-mml-node="TeXAtom" data-mjx-texclass="ORD"><g id="two-82" transform="matrix(1 0 0 1 0 0)" opacity="1" data-mml-node="mo"><path transform="matrix(1 0 0 1 250 250)" id="two-83" d="M 173 500 C 175.97 500 182 500 188 494 C 189.98 492.02 194 488 194 480 C 194 478.35 194 475 21 -2 C -36.09 -159.41 -152 -479 -158 -490 C -160.31 -493.3 -165 -500 -175 -500 C -177.31 -500 -182 -500 -188 -495 C -189.98 -493.35 -194 -490 -194 -481 C -194 -477.7 -194 -471 -20 7 C 37.42 164.74 154 485 157 490 C 158.32 493.3 161 500 173 500 C 173 500 173 500 173 500 Z " fill="rgb(0, 0, 0)" stroke="none" stroke-width="1" stroke-opacity="1" fill-opacity="1" visibility="visible" stroke-linecap="butt" stroke-linejoin="miter" stroke-miterlimit="4"></path></g></g><g id="two-84" transform="matrix(1 0 0 1 1000 0)" opacity="1" data-mml-node="mn"><path transform="matrix(1 0 0 1 249.5 333)" id="two-85" d="M -140.5 96 C -149.41 96 -167.5 96 -183.5 114 C -188.78 119.94 -199.5 132 -199.5 158 C -199.5 181.43 -199.5 229 -146.5 281 C -129.01 298.16 -93.5 333 -14.5 333 C 15.53 333 76.5 333 137.5 277 C 157.63 258.519999 198.5 221 199.5 132 C 199.5 117.81 199.5 89 179.5 50 C 172.9 37.129999 159.5 11 131.5 -18 C 122.26 -27.57 103.5 -47 51.5 -92 C 39.62 -102.23 15.5 -123 -48.5 -184 L -107.5 -240 L -31.5 -241 C 20.31 -241 125.5 -241 135.5 -236 C 137.81 -235.34 142.5 -234 159.5 -147 L 159.5 -144 L 199.5 -144 L 199.5 -147 C 199.17 -147.99 198.5 -150 186.5 -238 C 182.54 -267.040001 174.5 -326 171.5 -330 L 171.5 -333 L -199.5 -333 L -199.5 -314 L -199.5 -302 C -199.5 -299.69 -199.5 -295 -193.5 -287 C -191.52 -284.36 -187.5 -279 -163.5 -252 C -153.93 -241.44 -134.5 -220 -113.5 -196 C -110.53 -192.7 -104.5 -186 -79.5 -159 C -71.25 -150.09 -54.5 -132 -45.5 -122 C -42.53 -118.7 -36.5 -112 -16.5 -89 C -9.9 -81.41 3.5 -66 11.5 -55 C 14.14 -51.37 19.5 -44 34.5 -25 C 39.45 -18.73 49.5 -6 55.5 7 C 57.48 11.29 61.5 20 70.5 36 C 73.47 41.28 79.5 52 83.5 68 C 84.82 73.28 87.5 84 90.5 98 C 91.49 102.62 93.5 112 93.5 131 C 93.5 151.79 93.5 194 59.5 240 C 48.28 255.18 25.5 286 -37.5 286 C -48.39 286 -70.5 286 -95.5 269 C -103.75 263.39 -120.5 252 -130.5 236 C -133.800001 230.72 -140.5 220 -140.5 217 C -140.5 216.67 -140.5 216 -135.5 216 C -129.56 216 -117.5 216 -98.5 202 C -92.23 197.38 -79.5 188 -79.5 156 C -79.5 147.75 -79.5 131 -95.5 114 C -100.78 108.39 -111.5 97 -140.5 96 C -140.5 96 -140.5 96 -140.5 96 Z " fill="rgb(0, 0, 0)" stroke="none" stroke-width="1" stroke-opacity="1" fill-opacity="1" visibility="visible" stroke-linecap="butt" stroke-linejoin="miter" stroke-miterlimit="4"></path></g></g></g></g><g id="two-87" transform="matrix(0.0175 0 0 -0.017501 171 210)" opacity="1" clip-path="url(#two-97)"><g id="two-88" transform="matrix(1 0 0 1 0 0)" opacity="1"><g id="two-89" transform="matrix(1 0 0 1 0 0)" opacity="1" data-mml-node="math"><g id="two-90" transform="matrix(1 0 0 1 0 0)" opacity="1" data-mml-node="mn"><path transform="matrix(1 0 0 1 255 333)" id="two-91" d="M -42 245 L -55 240 C -59.62 238.35 -69 235 -95 230 C -103.58 228.35 -121 225 -153 223 L -172 223 L -172 269 L -153 269 C -137.49 269.66 -106 271 -66 284 C -52.8 288.29 -26 297 -10 308 C -4.72 311.63 6 319 18 330 C 18.66 330.99 20 333 30 333 C 32.97 333 39 333 47 327 L 47 28 L 48 -272 C 50.31 -274.31 55 -279 60 -281 C 61.65 -281.66 65 -283 84 -285 C 90.27 -285.66 103 -287 146 -287 L 172 -287 L 172 -333 L 161 -333 C 154.07 -332.01 140 -330 2 -330 C -42.88 -330 -134 -330 -155 -333 L -167 -333 L -167 -287 L -141 -287 C -133.740001 -287 -119 -287 -103 -287 C -97.72 -287 -87 -287 -78 -286 C -75.03 -285.67 -69 -285 -62 -283 C -59.69 -282.34 -55 -281 -54 -281 C -53.67 -281 -53 -281 -48 -276 C -46.35 -274.35 -43 -271 -42 -272 L -42 245 Z " fill="rgb(0, 0, 0)" stroke="none" stroke-width="1" stroke-opacity="1" fill-opacity="1" visibility="visible" stroke-linecap="butt" stroke-linejoin="miter" stroke-miterlimit="4"></path></g><g id="two-92" transform="matrix(1 0 0 1 500 0)" opacity="1" data-mml-node="TeXAtom" data-mjx-texclass="ORD"><g id="two-93" transform="matrix(1 0 0 1 0 0)" opacity="1" data-mml-node="mo"><path transform="matrix(1 0 0 1 250 250)" id="two-94" d="M 173 500 C 175.97 500 182 500 188 494 C 189.98 492.02 194 488 194 480 C 194 478.35 194 475 21 -2 C -36.09 -159.41 -152 -479 -158 -490 C -160.31 -493.3 -165 -500 -175 -500 C -177.31 -500 -182 -500 -188 -495 C -189.98 -493.35 -194 -490 -194 -481 C -194 -477.7 -194 -471 -20 7 C 37.42 164.74 154 485 157 490 C 158.32 493.3 161 500 173 500 C 173 500 173 500 173 500 Z " fill="rgb(0, 0, 0)" stroke="none" stroke-width="1" stroke-opacity="1" fill-opacity="1" visibility="visible" stroke-linecap="butt" stroke-linejoin="miter" stroke-miterlimit="4"></path></g></g><g id="two-95" transform="matrix(1 0 0 1 1000 0)" opacity="1" data-mml-node="mn"><path transform="matrix(1 0 0 1 249.5 333)" id="two-96" d="M -140.5 96 C -149.41 96 -167.5 96 -183.5 114 C -188.78 119.94 -199.5 132 -199.5 158 C -199.5 181.43 -199.5 229 -146.5 281 C -129.01 298.16 -93.5 333 -14.5 333 C 15.53 333 76.5 333 137.5 277 C 157.63 258.519999 198.5 221 199.5 132 C 199.5 117.81 199.5 89 179.5 50 C 172.9 37.129999 159.5 11 131.5 -18 C 122.26 -27.57 103.5 -47 51.5 -92 C 39.62 -102.23 15.5 -123 -48.5 -184 L -107.5 -240 L -31.5 -241 C 20.31 -241 125.5 -241 135.5 -236 C 137.81 -235.34 142.5 -234 159.5 -147 L 159.5 -144 L 199.5 -144 L 199.5 -147 C 199.17 -147.99 198.5 -150 186.5 -238 C 182.54 -267.040001 174.5 -326 171.5 -330 L 171.5 -333 L -199.5 -333 L -199.5 -314 L -199.5 -302 C -199.5 -299.69 -199.5 -295 -193.5 -287 C -191.52 -284.36 -187.5 -279 -163.5 -252 C -153.93 -241.44 -134.5 -220 -113.5 -196 C -110.53 -192.7 -104.5 -186 -79.5 -159 C -71.25 -150.09 -54.5 -132 -45.5 -122 C -42.53 -118.7 -36.5 -112 -16.5 -89 C -9.9 -81.41 3.5 -66 11.5 -55 C 14.14 -51.37 19.5 -44 34.5 -25 C 39.45 -18.73 49.5 -6 55.5 7 C 57.48 11.29 61.5 20 70.5 36 C 73.47 41.28 79.5 52 83.5 68 C 84.82 73.28 87.5 84 90.5 98 C 91.49 102.62 93.5 112 93.5 131 C 93.5 151.79 93.5 194 59.5 240 C 48.28 255.18 25.5 286 -37.5 286 C -48.39 286 -70.5 286 -95.5 269 C -103.75 263.39 -120.5 252 -130.5 236 C -133.800001 230.72 -140.5 220 -140.5 217 C -140.5 216.67 -140.5 216 -135.5 216 C -129.56 216 -117.5 216 -98.5 202 C -92.23 197.38 -79.5 188 -79.5 156 C -79.5 147.75 -79.5 131 -95.5 114 C -100.78 108.39 -111.5 97 -140.5 96 C -140.5 96 -140.5 96 -140.5 96 Z " fill="rgb(0, 0, 0)" stroke="none" stroke-width="1" stroke-opacity="1" fill-opacity="1" visibility="visible" stroke-linecap="butt" stroke-linejoin="miter" stroke-miterlimit="4"></path></g></g></g></g><g id="two-98" transform="matrix(0.0175 0 0 -0.017501 300 230)" opacity="1" clip-path="url(#two-106)"><g id="two-99" transform="matrix(1 0 0 1 0 0)" opacity="1"><g id="two-100" transform="matrix(1 0 0 1 0 0)" opacity="1" data-mml-node="math"><g id="two-101" transform="matrix(1 0 0 1 0 0)" opacity="1" data-mml-node="msub"><g id="two-102" transform="matrix(1 0 0 1 0 0)" opacity="1" data-mml-node="mi"><path transform="matrix(1 0 0 1 348.5 341.5)" id="two-103" d="M -40.5 -317.5 C -21.03 -317.5 18.5 -317.5 67.5 -265.5 C 83.67 -248.34 116.5 -213.5 117.5 -144.5 C 117.5 -123.71 117.5 -81.5 65.5 -57.5 C 30.519999 -48.59 -40.5 -30.5 -70.5 -20.5 C -80.4 -17.2 -100.5 -10.5 -112.5 -0.5 C -132.300001 13.36 -172.5 41.5 -172.5 120.5 C -172.5 140.63 -172.5 181.5 -140.5 231.5 C -129.94 248 -108.5 281.5 -75.5 306.5 C -65.930001 314.75 -46.5 331.5 -5.5 346.5 C 8.03 351.45 35.5 361.5 58.5 362.5 L 69.5 362.5 L 76.5 362.5 C 108.18 362.5 172.5 362.5 215.5 298.5 C 215.83 298.5 216.5 298.5 228.5 311.5 C 232.46 315.79 240.5 324.5 254.5 340.5 C 259.12 345.78 268.5 356.5 274.5 362.5 C 274.83 362.5 275.5 362.5 278.5 362.5 C 279.49 362.5 281.5 362.5 283.5 363.5 C 287.79 363.5 296.5 363.5 296.5 356.5 C 296.5 354.19 296.5 349.5 268.5 235.5 C 259.26 197.88 240.5 121.5 236.5 117.5 C 235.18 116.18 232.5 113.5 220.5 114.5 C 213.9 114.5 200.5 114.5 200.5 123.5 C 200.5 125.48 200.5 129.5 201.5 133.5 C 201.5 134.49 201.5 136.5 202.5 152.5 C 202.83 157.78 203.5 168.5 204.5 178.5 C 204.5 189.72 204.5 212.5 195.5 237.5 C 192.53 245.75 186.5 262.5 177.5 274.5 C 174.53 278.46 168.5 286.5 152.5 299.5 C 140.62 306.43 116.5 320.5 70.5 320.5 C 51.69 320.5 13.5 320.5 -35.5 274.5 C -51.67 259.32 -84.5 228.5 -85.5 168.5 C -85.5 158.6 -85.5 138.5 -70.5 116.5 C -65.55 109.24 -55.5 94.5 -29.5 85.5 C -28.18 84.84 -25.5 83.5 40.5 66.5 C 62.28 60.89 106.5 49.5 107.5 48.5 C 118.72 44.87 141.5 37.5 173.5 0.5 C 184.06 -11.71 205.5 -36.5 205.5 -99.5 C 205.5 -108.08 205.5 -125.5 197.5 -155.5 C 195.85 -162.76 192.5 -177.5 179.5 -204.5 C 175.21 -213.41 166.5 -231.5 143.5 -263.5 C 135.91 -274.06 120.5 -295.5 77.5 -323.5 C 63.31 -332.74 34.5 -351.5 -16.5 -361.5 C -20.46 -362.16 -28.5 -363.5 -50.5 -363.5 C -83.17 -363.5 -149.5 -363.5 -204.5 -308.5 L -214.5 -297.5 L -242.5 -328.5 C -250.09 -337.41 -265.5 -355.5 -270.5 -359.5 C -272.15 -360.82 -275.5 -363.5 -283.5 -363.5 C -287.79 -363.5 -296.5 -363.5 -296.5 -355.5 C -296.5 -354.51 -296.5 -352.5 -238.5 -120.5 C -237.84 -118.52 -236.5 -114.5 -218.5 -114.5 L -205.5 -114.5 C -203.52 -116.48 -199.5 -120.5 -199.5 -125.5 C -199.5 -126.16 -199.5 -127.5 -200.5 -134.5 C -200.83 -136.81 -201.5 -141.5 -204.5 -155.5 C -205.49 -160.12 -207.5 -169.5 -206.5 -188.5 C -205.84 -201.37 -204.5 -227.5 -188.5 -254.5 C -183.22 -263.410001 -172.5 -281.5 -145.5 -294.5 C -136.59 -298.79 -118.5 -307.5 -93.5 -312.5 C -85.25 -314.15 -68.5 -317.5 -40.5 -317.5 C -40.5 -317.5 -40.5 -317.5 -40.5 -317.5 Z " fill="rgb(0, 0, 0)" stroke="none" stroke-width="1" stroke-opacity="1" fill-opacity="1" visibility="visible" stroke-linecap="butt" stroke-linejoin="miter" stroke-miterlimit="4"></path></g><g id="two-104" transform="matrix(0.699999 0 0 0.699999 646 -150)" opacity="1" data-mml-node="mn"><path transform="matrix(1 0 0 1 255 333)" id="two-105" d="M -42 245 L -55 240 C -59.62 238.35 -69 235 -95 230 C -103.58 228.35 -121 225 -153 223 L -172 223 L -172 269 L -153 269 C -137.49 269.66 -106 271 -66 284 C -52.8 288.29 -26 297 -10 308 C -4.72 311.63 6 319 18 330 C 18.66 330.99 20 333 30 333 C 32.97 333 39 333 47 327 L 47 28 L 48 -272 C 50.31 -274.31 55 -279 60 -281 C 61.65 -281.66 65 -283 84 -285 C 90.27 -285.66 103 -287 146 -287 L 172 -287 L 172 -333 L 161 -333 C 154.07 -332.01 140 -330 2 -330 C -42.88 -330 -134 -330 -155 -333 L -167 -333 L -167 -287 L -141 -287 C -133.740001 -287 -119 -287 -103 -287 C -97.72 -287 -87 -287 -78 -286 C -75.03 -285.67 -69 -285 -62 -283 C -59.69 -282.34 -55 -281 -54 -281 C -53.67 -281 -53 -281 -48 -276 C -46.35 -274.35 -43 -271 -42 -272 L -42 245 Z " fill="rgb(0, 0, 0)" stroke="none" stroke-width="1" stroke-opacity="1" fill-opacity="1" visibility="visible" stroke-linecap="butt" stroke-linejoin="miter" stroke-miterlimit="4"></path></g></g></g></g></g><path transform="matrix(1 0 0 1 0 0)" id="two-107" d="M 30 50 L 50.366762 42.14305 " fill="rgba(0,0,0,0)" stroke="rgb(240,10,20)" stroke-width="3" stroke-opacity="1" fill-opacity="1" visibility="visible" stroke-linecap="round" stroke-linejoin="miter" stroke-miterlimit="4"></path><g id="two-108" transform="matrix(0.017999 0 0 -0.018 55.550144 38.214576)" opacity="1" clip-path="url(#two-113)"><g id="two-109" transform="matrix(1 0 0 1 0 0)" opacity="1"><g id="two-110" transform="matrix(1 0 0 1 0 0)" opacity="1" data-mml-node="math"><g id="two-111" transform="matrix(1 0 0 1 0 0)" opacity="1" data-mml-node="mi"><path transform="matrix(1 0 0 1 318.5 215.5)" id="two-112" d="M -284.5 -59.5 C -284.5 -21.88 -284.5 54.5 -198.5 140.5 C -170.12 168.88 -112.5 226.5 -9.5 226.5 C 13.6 226.5 60.5 226.5 102.5 186.5 C 116.36 173.3 144.5 146.5 159.5 88.5 C 161.48 78.93 165.5 59.5 166.5 21.5 L 166.5 -7.5 C 182.67 16.92 215.5 66.5 241.5 158.5 C 242.82 163.12 245.5 172.5 247.5 174.5 C 248.16 175.16 249.5 176.5 263.5 177.5 C 270.43 177.5 284.5 177.5 284.5 169.5 C 284.5 166.53 284.5 160.5 275.5 130.5 C 272.53 120.6 266.5 100.5 239.5 45.5 C 230.59 27.349999 212.5 -9.5 178.5 -54.5 L 167.5 -68.5 L 168.5 -92.5 C 169.16 -110.98 170.5 -148.5 176.5 -168.5 C 178.48 -175.1 182.5 -188.5 195.5 -189.5 C 200.12 -188.84 209.5 -187.5 221.5 -178.5 C 225.46 -175.53 233.5 -169.5 238.5 -155.5 C 239.16 -153.19 240.5 -148.5 243.5 -147.5 C 244.49 -147.17 246.5 -146.5 258.5 -145.5 C 265.1 -145.5 278.5 -145.5 278.5 -153.5 C 278.5 -155.48 278.5 -159.5 272.5 -172.5 C 268.54 -180.42 260.5 -196.5 237.5 -210.5 C 229.91 -215.12 214.5 -224.5 193.5 -225.5 L 186.5 -225.5 C 164.39 -225.5 119.5 -225.5 95.5 -153.5 L 92.5 -146.5 L 81.5 -154.5 C 78.2 -157.14 71.5 -162.5 51.5 -174.5 C 44.9 -178.46 31.5 -186.5 6.5 -197.5 C -1.75 -201.13 -18.5 -208.5 -51.5 -217.5 C -62.39 -220.47 -84.5 -226.5 -115.5 -226.5 C -141.57 -226.5 -194.5 -226.5 -239.5 -176.5 C -254.35 -160 -284.5 -126.5 -284.5 -59.5 Z M -110.5 -189.5 C -94.33 -189.5 -61.5 -189.5 -12.5 -168.5 C 3.67 -161.57 36.5 -147.5 60.5 -125.5 L 84.5 -103.5 C 83.84 -56.31 82.5 39.5 77.5 74.5 C 72.88 112.45 63.5 189.5 -14.5 189.5 C -37.27 189.5 -83.5 189.5 -135.5 116.5 C -144.41 103.3 -162.5 76.5 -179.5 8.5 C -185.11 -13.940001 -196.5 -59.5 -197.5 -95.5 C -197.5 -111.67 -197.5 -144.5 -172.5 -166.5 C -164.25 -173.76 -147.5 -188.5 -110.5 -189.5 C -110.5 -189.5 -110.5 -189.5 -110.5 -189.5 Z " fill="rgb(0, 0, 0)" stroke="none" stroke-width="1" stroke-opacity="1" fill-opacity="1" visibility="visible" stroke-linecap="butt" stroke-linejoin="miter" stroke-miterlimit="4"></path></g></g></g></g><path transform="matrix(1 0 0 1 0 0)" id="two-114" d="M 30 50 L 16.391364 38.241243 " fill="rgba(0,0,0,0)" stroke="rgb(32,220,32)" stroke-width="3" stroke-opacity="1" fill-opacity="1" visibility="visible" stroke-linecap="round" stroke-linejoin="miter" stroke-miterlimit="4"></path><g id="two-115" transform="matrix(0.017999 0 0 -0.018 4.587046 32.361865)" opacity="1" clip-path="url(#two-120)"><g id="two-116" transform="matrix(1 0 0 1 0 0)" opacity="1"><g id="two-117" transform="matrix(1 0 0 1 0 0)" opacity="1" data-mml-node="math"><g id="two-118" transform="matrix(1 0 0 1 0 0)" opacity="1" data-mml-node="mi"><path transform="matrix(1 0 0 1 298 255.5)" id="two-119" d="M -269 -449.5 C -270.98 -447.52 -275 -443.5 -275 -441.5 C -275 -440.51 -275 -438.5 -196 -121.5 C -169.93 -16.89 -117 195.5 -112 209.5 C -104.74 231.94 -90 277.5 -55 328.5 C -43.45 345.33 -20 379.5 11 402.5 C 29.48 418.01 67 449.5 131 449.5 L 133 449.5 C 153.46 449.5 195 449.5 235 411.5 C 248.2 398.96 275 373.5 275 314.5 C 275 279.85 275 209.5 171 140.5 L 184 127.5 C 200.83 110.67 235 76.5 235 -3.5 C 235 -40.79 235 -116.5 150 -190.5 C 121.95 -214.920001 65 -264.5 -41 -265.5 C -50.9 -265.5 -71 -265.5 -95 -257.5 C -102.92 -254.86 -119 -249.5 -133 -238.5 C -137.62 -234.87 -147 -227.5 -155 -215.5 C -157.64 -211.54 -163 -203.5 -167 -196.5 C -168.32 -194.19 -171 -189.5 -172 -190.5 L -236 -443.5 C -236.66 -445.48 -238 -449.5 -256 -449.5 L -269 -449.5 Z M 55 175.5 C 67.87 175.5 94 175.5 129 163.5 L 134 166.5 C 135.32 167.82 138 170.5 141 173.5 C 141.99 174.49 144 176.5 151 183.5 C 153.31 185.81 158 190.5 163 197.5 C 164.65 199.81 168 204.5 174 215.5 C 175.98 219.13 180 226.5 186 239.5 C 187.98 243.79 192 252.5 195 268.5 C 195.99 273.78 198 284.5 203 304.5 C 203.66 307.47 205 313.5 205 337.5 C 205 343.44 205 355.5 204 360.5 C 199.05 377.33 189 411.5 128 411.5 C 114.14 411.5 86 411.5 49 387.5 C 36.79 379.58 12 363.5 -12 326.5 C -19.92 314.29 -36 289.5 -51 258.5 C -55.95 248.27 -66 227.5 -74 199.5 C -75.65 194.22 -79 183.5 -112 52.5 C -122.89 9.269999 -145 -78.5 -146 -87.5 C -146.33 -89.15 -147 -92.5 -147 -108.5 C -147 -124.34 -147 -156.5 -125 -187.5 C -114.77 -201.36 -94 -229.5 -38 -229.5 C -24.14 -229.5 4 -229.5 51 -204.5 C 66.51 -196.25 98 -179.5 127 -118.5 C 132.28 -107.28 143 -84.5 151 -41.5 C 153.64 -27.31 159 1.5 159 23.5 C 159 42.64 159 81.5 124 116.5 C 110.14 111.88 82 102.5 49 102.5 L 39 102.5 C 12.93 102.5 -40 102.5 -40 133.5 C -40 135.81 -40 140.5 -37 147.5 C -32.380001 156.74 -23 175.5 55 175.5 C 55 175.5 55 175.5 55 175.5 Z " fill="rgb(0, 0, 0)" stroke="none" stroke-width="1" stroke-opacity="1" fill-opacity="1" visibility="visible" stroke-linecap="butt" stroke-linejoin="miter" stroke-miterlimit="4"></path></g></g></g></g><path transform="matrix(1 0 0 1 0 0)" id="two-121" d="M 30 50 L 30 30 " fill="rgba(0,0,0,0)" stroke="rgb(20,10,240)" stroke-width="3" stroke-opacity="1" fill-opacity="1" visibility="visible" stroke-linecap="round" stroke-linejoin="miter" stroke-miterlimit="4"></path><g id="two-122" transform="matrix(0.017999 0 0 -0.018 25 20)" opacity="1" clip-path="url(#two-127)"><g id="two-123" transform="matrix(1 0 0 1 0 0)" opacity="1"><g id="two-124" transform="matrix(1 0 0 1 0 0)" opacity="1" data-mml-node="math"><g id="two-125" transform="matrix(1 0 0 1 0 0)" opacity="1" data-mml-node="mi"><path transform="matrix(1 0 0 1 277 112.5)" id="two-126" d="M -246 136.5 C -252.6 136.5 -266 136.5 -266 145.5 C -266 151.11 -266 162.5 -251 191.5 C -246.05 201.07 -236 220.5 -211 252.5 C -202.75 263.06 -186 284.5 -148 305.5 C -135.46 312.43 -110 326.5 -71 328.5 C -62.09 328.5 -44 328.5 -38 327.5 C -22.16 323.87 10 316.5 41 273.5 C 51.23 259.31 72 230.5 94 142.5 C 98.62 122.7 108 82.5 108 57.5 C 108 56.18 108 53.5 109 53.5 L 121 80.5 C 127.6 97.33 141 131.5 166 187.5 C 174.25 205.98 191 243.5 209 278.5 C 214.94 290.05 227 313.5 231 317.5 C 231.66 317.83 233 318.5 247 318.5 L 260 318.5 C 261.98 316.52 266 312.5 266 309.5 C 266 308.18 266 305.5 245 265.5 C 238.07 252.3 224 225.5 186 138.5 C 173.46 109.789999 148 51.5 114 -41.5 C 112.02 -46.78 108 -57.5 101 -106.5 C 98.69 -122.67 94 -155.5 80 -212.5 C 74.72 -233.95 64 -277.5 53 -302.5 C 49.37 -310.75 42 -327.5 26 -328.5 C 20.39 -328.5 9 -328.5 9 -300.5 C 9 -284 9 -250.5 63 -80.5 L 69 -61.5 L 70 -43.5 C 70.33 -40.2 71 -33.5 71 -12.5 C 71 39.31 71 144.5 14 204.5 C 0.799999 217.04 -26 242.5 -81 242.5 C -96.84 242.5 -129 242.5 -169 216.5 C -182.2 207.92 -209 190.5 -226 147.5 C -226.66 144.53 -228 138.5 -230 138.5 C -230.66 137.84 -232 136.5 -246 136.5 C -246 136.5 -246 136.5 -246 136.5 Z " fill="rgb(0, 0, 0)" stroke="none" stroke-width="1" stroke-opacity="1" fill-opacity="1" visibility="visible" stroke-linecap="butt" stroke-linejoin="miter" stroke-miterlimit="4"></path></g></g></g></g><path transform="matrix(1 0 0 1 30 50)" id="two-128" d="M 3 0 C 3 1.656854 1.656854 3 0 3 C -1.656855 3 -3 1.656854 -3 0 C -3.000001 -1.656855 -1.656855 -3 -0.000001 -3 C 1.656854 -3.000001 3 -1.656855 3 0 Z " fill="#000" stroke="#000" stroke-width="0" stroke-opacity="1" fill-opacity="1" visibility="visible" stroke-linecap="butt" stroke-linejoin="miter" stroke-miterlimit="4"></path></g></svg>