 <svg version="1.1" style="overflow: hidden; display: block;" width="450" height="330"><defs><clipPath clip-rule="nonzero" id="two-34"><path transform="matrix(1 0 0 1 0 0)" d="M -4000 -4000 L 9000 -4000 L 4000 4000 L -4000 4000 Z" fill="#fff" stroke="#000" stroke-width="1" stroke-opacity="1" fill-opacity="1" visibility="visible" stroke-linecap="butt" stroke-linejoin="miter" stroke-miterlimit="4"></path></clipPath><clipPath clip-rule="nonzero" id="two-46"><path transform="matrix(1 0 0 1 0 0)" d="M -4000 -4000 L 9000 -4000 L 4000 4000 L -4000 4000 Z" fill="#fff" stroke="#000" stroke-width="1" stroke-opacity="1" fill-opacity="1" visibility="visible" stroke-linecap="butt" stroke-linejoin="miter" stroke-miterlimit="4"></path></clipPath><clipPath clip-rule="nonzero" id="two-64"><path transform="matrix(1 0 0 1 0 0)" d="M -4000 -4000 L 9000 -4000 L 4000 4000 L -4000 4000 Z" fill="#fff" stroke="#000" stroke-width="1" stroke-opacity="1" fill-opacity="1" visibility="visible" stroke-linecap="butt" stroke-linejoin="miter" stroke-miterlimit="4"></path></clipPath><clipPath clip-rule="nonzero" id="two-82"><path transform="matrix(1 0 0 1 0 0)" d="M -4000 -4000 L 9000 -4000 L 4000 4000 L -4000 4000 Z" fill="#fff" stroke="#000" stroke-width="1" stroke-opacity="1" fill-opacity="1" visibility="visible" stroke-linecap="butt" stroke-linejoin="miter" stroke-miterlimit="4"></path></clipPath></defs><g id="two-0" transform="matrix(1 0 0 1 0 0)" opacity="1"><path transform="matrix(1 0 0 1 160 145)" id="two-1" d="M -85 -100 L 85 -100 L 85 100 L -85 100 Z " fill="hsl(359,70.2%,65.1%)" stroke="rgb(100,100,100)" stroke-width="2" stroke-opacity="1" fill-opacity="1" visibility="visible" stroke-linecap="butt" stroke-linejoin="round" stroke-miterlimit="4"></path><path transform="matrix(1 0 0 1 330 145)" id="two-2" d="M -85 -100 L 85 -100 L 85 100 L -85 100 Z " fill="hsl(203,53.9%,54.5%)" stroke="rgb(100,100,100)" stroke-width="2" stroke-opacity="1" fill-opacity="1" visibility="visible" stroke-linecap="butt" stroke-linejoin="round" stroke-miterlimit="4"></path><path transform="matrix(1 0 0 1 0 0)" id="two-3" d="M 245 45 L 245 245 " fill="#fff" stroke="#000" stroke-width="1" stroke-opacity="1" fill-opacity="1" visibility="visible" stroke-linecap="butt" stroke-linejoin="miter" stroke-miterlimit="4"></path><g id="two-4" transform="matrix(0.025 0 0 -0.025001 197 305)" opacity="1" clip-path="url(#two-34)"><g id="two-5" transform="matrix(1 0 0 1 0 0)" opacity="1"><g id="two-6" transform="matrix(1 0 0 1 0 0)" opacity="1" data-mml-node="math"><g id="two-7" transform="matrix(1 0 0 1 0 -0.5)" opacity="1" data-mml-node="mo"><path transform="matrix(1 0 0 1 139 250.5)" id="two-8" d="M 0 -499.5 L -2 -499.5 C -5.96 -499.5 -14 -499.5 -20 -485.5 L -20 0.5 L -19 486.5 C -15.7 490.79 -9 499.5 0 499.5 C 4.29 499.5 13 499.5 20 484.5 L 20 -485.5 C 17.36 -490.12 12 -499.5 2 -499.5 L 0 -499.5 Z " fill="rgb(0, 0, 0)" stroke="none" stroke-width="1" stroke-opacity="1" fill-opacity="1" visibility="visible" stroke-linecap="butt" stroke-linejoin="miter" stroke-miterlimit="4"></path></g><g id="two-9" transform="matrix(1 0 0 1 278 0)" opacity="1" data-mml-node="mi"><path transform="matrix(1 0 0 1 318.5 215.5)" id="two-10" d="M -284.5 -59.5 C -284.5 -21.88 -284.5 54.5 -198.5 140.5 C -170.12 168.88 -112.5 226.5 -9.5 226.5 C 13.6 226.5 60.5 226.5 102.5 186.5 C 116.36 173.3 144.5 146.5 159.5 88.5 C 161.48 78.93 165.5 59.5 166.5 21.5 L 166.5 -7.5 C 182.67 16.92 215.5 66.5 241.5 158.5 C 242.82 163.12 245.5 172.5 247.5 174.5 C 248.16 175.16 249.5 176.5 263.5 177.5 C 270.43 177.5 284.5 177.5 284.5 169.5 C 284.5 166.53 284.5 160.5 275.5 130.5 C 272.53 120.6 266.5 100.5 239.5 45.5 C 230.59 27.349999 212.5 -9.5 178.5 -54.5 L 167.5 -68.5 L 168.5 -92.5 C 169.16 -110.98 170.5 -148.5 176.5 -168.5 C 178.48 -175.1 182.5 -188.5 195.5 -189.5 C 200.12 -188.84 209.5 -187.5 221.5 -178.5 C 225.46 -175.53 233.5 -169.5 238.5 -155.5 C 239.16 -153.19 240.5 -148.5 243.5 -147.5 C 244.49 -147.17 246.5 -146.5 258.5 -145.5 C 265.1 -145.5 278.5 -145.5 278.5 -153.5 C 278.5 -155.48 278.5 -159.5 272.5 -172.5 C 268.54 -180.42 260.5 -196.5 237.5 -210.5 C 229.91 -215.12 214.5 -224.5 193.5 -225.5 L 186.5 -225.5 C 164.39 -225.5 119.5 -225.5 95.5 -153.5 L 92.5 -146.5 L 81.5 -154.5 C 78.2 -157.14 71.5 -162.5 51.5 -174.5 C 44.9 -178.46 31.5 -186.5 6.5 -197.5 C -1.75 -201.13 -18.5 -208.5 -51.5 -217.5 C -62.39 -220.47 -84.5 -226.5 -115.5 -226.5 C -141.57 -226.5 -194.5 -226.5 -239.5 -176.5 C -254.35 -160 -284.5 -126.5 -284.5 -59.5 Z M -110.5 -189.5 C -94.33 -189.5 -61.5 -189.5 -12.5 -168.5 C 3.67 -161.57 36.5 -147.5 60.5 -125.5 L 84.5 -103.5 C 83.84 -56.31 82.5 39.5 77.5 74.5 C 72.88 112.45 63.5 189.5 -14.5 189.5 C -37.27 189.5 -83.5 189.5 -135.5 116.5 C -144.41 103.3 -162.5 76.5 -179.5 8.5 C -185.11 -13.940001 -196.5 -59.5 -197.5 -95.5 C -197.5 -111.67 -197.5 -144.5 -172.5 -166.5 C -164.25 -173.76 -147.5 -188.5 -110.5 -189.5 C -110.5 -189.5 -110.5 -189.5 -110.5 -189.5 Z " fill="rgb(0, 0, 0)" stroke="none" stroke-width="1" stroke-opacity="1" fill-opacity="1" visibility="visible" stroke-linecap="butt" stroke-linejoin="miter" stroke-miterlimit="4"></path></g><g id="two-11" transform="matrix(1 0 0 1 918 0)" opacity="1" data-mml-node="TeXAtom" data-mjx-texclass="ORD"><g id="two-12" transform="matrix(1 0 0 1 0 -0.5)" opacity="1" data-mml-node="mo"><path transform="matrix(1 0 0 1 139 250.5)" id="two-13" d="M 0 -499.5 L -2 -499.5 C -5.96 -499.5 -14 -499.5 -20 -485.5 L -20 0.5 L -19 486.5 C -15.7 490.79 -9 499.5 0 499.5 C 4.29 499.5 13 499.5 20 484.5 L 20 -485.5 C 17.36 -490.12 12 -499.5 2 -499.5 L 0 -499.5 Z " fill="rgb(0, 0, 0)" stroke="none" stroke-width="1" stroke-opacity="1" fill-opacity="1" visibility="visible" stroke-linecap="butt" stroke-linejoin="miter" stroke-miterlimit="4"></path></g></g><g id="two-14" transform="matrix(1 0 0 1 1473.800048 0)" opacity="1" data-mml-node="mo"><path transform="matrix(1 0 0 1 388.442565 250)" id="two-15" d="M -304.442579 270 C -304.442579 272.64 -304.442579 278 -300.442579 283 C -299.122579 284.65 -296.442579 288 -292.442579 289 L -289.442579 290 C -287.132579 290 -282.442579 290 -135.442579 221 C -86.932579 198.23 11.557421 152 155.557421 84 L 298.557421 15 C 300.867421 13.35 305.557421 10 305.557421 0 C 305.557421 -3.300001 305.557421 -10 298.557421 -15 C 297.897421 -15.66 296.557421 -17 6.557421 -154 L -281.442579 -290 L -287.442579 -290 C -293.382579 -289.34 -305.442579 -288 -305.442579 -270 C -305.442579 -269.67 -305.442579 -269 -305.442579 -267 C -305.772579 -264.69 -306.442579 -260 -290.442579 -251 C -284.172579 -247.7 -271.442579 -241 -140.442579 -179 C -114.702579 -166.79 -62.442579 -142 -10.442579 -118 L 237.557421 0 L -10.442579 118 C -105.482579 162.88 -298.442579 254 -302.442579 259 C -303.102579 260.32 -304.442579 263 -304.442579 270 C -304.442579 270 -304.442579 270 -304.442579 270 Z " fill="rgb(0, 0, 0)" stroke="none" stroke-width="1" stroke-opacity="1" fill-opacity="1" visibility="visible" stroke-linecap="butt" stroke-linejoin="miter" stroke-miterlimit="4"></path></g><g id="two-16" transform="matrix(1 0 0 1 2529.600097 0)" opacity="1" data-mml-node="mo"><path transform="matrix(1 0 0 1 213.5 250)" id="two-17" d="M -119.5 0 C -119.5 22.77 -119.5 69 -109.5 131 C -106.2 151.46 -99.5 193 -86.5 238 C -82.21 252.85 -73.5 283 -49.5 326 C -41.58 340.19 -25.5 369 -11.5 393 C -6.88 400.92 2.5 417 30.5 445 C 39.74 454.24 58.5 473 63.5 479 C 65.15 480.98 68.5 485 88.5 500 L 101.5 500 L 105.5 500 C 110.12 500 119.5 500 119.5 491 C 119.5 490.01 119.5 488 102.5 470 C 96.89 464.06 85.5 452 61.5 417 C 53.58 405.45 37.5 382 12.5 331 C 4.25 314.17 -12.5 280 -29.5 193 C -35.11 164.29 -46.5 106 -46.5 0 C -46.5 -34.980001 -46.5 -106 -29.5 -192 C -23.89 -220.38 -12.5 -278 11.5 -331 C 19.42 -348.49 35.5 -384 60.5 -417 C 68.75 -427.89 85.5 -450 102.5 -470 C 108.11 -476.6 119.5 -490 119.5 -491 C 119.5 -493.97 119.5 -500 104.5 -500 L 101.5 -500 L 88.5 -500 L 60.5 -476 C 29.479999 -447.95 -33.5 -391 -76.5 -264 C -90.69 -222.09 -119.5 -137 -119.5 0 C -119.5 0 -119.5 0 -119.5 0 Z " fill="rgb(0, 0, 0)" stroke="none" stroke-width="1" stroke-opacity="1" fill-opacity="1" visibility="visible" stroke-linecap="butt" stroke-linejoin="miter" stroke-miterlimit="4"></path></g><g id="two-18" transform="matrix(1 0 0 1 2918.600097 0)" opacity="1" data-mml-node="mn"><path transform="matrix(1 0 0 1 249.5 321.5)" id="two-19" d="M -122.5 141.5 C -131.41 141.5 -149.5 141.5 -164.5 158.5 C -169.45 164.11 -179.5 175.5 -180.5 202.5 C -180.5 220.65 -180.5 257.5 -132.5 300.5 C -116.66 314.69 -84.5 343.5 -16.5 343.5 C -4.95 343.5 18.5 343.5 27.5 342.5 C 51.92 338.54 101.5 330.5 140.5 289.5 C 153.37 275.97 179.5 248.5 180.5 200.5 C 180.5 183.34 180.5 148.5 146.5 99.5 C 135.28 83.33 112.5 50.5 52.5 28.5 L 49.5 26.5 C 49.5 26.17 49.5 25.5 58.5 23.5 C 61.47 22.84 67.5 21.5 87.5 14.5 C 94.1 12.19 107.5 7.5 125.5 -6.5 C 152.56 -23.990001 207.5 -59.5 207.5 -146.5 C 207.5 -172.57 207.5 -225.5 145.5 -284.5 C 125.039999 -303.97 83.5 -343.5 -11.5 -343.5 C -37.900001 -343.5 -91.5 -343.5 -149.5 -300.5 C -168.64 -286.31 -207.5 -257.5 -207.5 -191.5 C -207.5 -182.26 -207.5 -163.5 -189.5 -146.5 C -183.56 -140.89 -171.5 -129.5 -144.5 -128.5 C -135.26 -128.5 -116.5 -128.5 -98.5 -146.5 C -92.56 -152.44 -80.5 -164.5 -80.5 -191.5 C -80.5 -195.13 -80.5 -202.5 -83.5 -211.5 C -84.49 -214.47 -86.5 -220.5 -90.5 -227.5 C -91.82 -229.81 -94.5 -234.5 -101.5 -239.5 C -103.81 -241.15 -108.5 -244.5 -113.5 -247.5 C -115.15 -248.49 -118.5 -250.5 -123.5 -251.5 C -125.15 -251.83 -128.5 -252.5 -131.5 -254.5 L -135.5 -255.5 C -118.67 -270.35 -84.5 -300.5 -11.5 -300.5 C 6.65 -300.5 43.5 -300.5 71.5 -247.5 C 77.11 -236.61 88.5 -214.5 88.5 -146.5 L 88.5 -126.5 C 88.5 -95.15 88.5 -31.5 24.5 0.5 C 19.55 2.48 9.5 6.5 -36.5 7.5 L -78.5 8.5 L -81.5 10.5 C -82.16 11.49 -83.5 13.5 -83.5 26.5 C -83.5 32.439999 -83.5 44.5 -75.5 44.5 C -66.260001 44.5 -47.5 44.5 -17.5 49.5 C -6.28 51.15 16.5 54.5 44.5 91.5 C 53.74 103.71 72.5 128.5 72.5 203.5 L 72.5 211.5 C 72.5 230.31 72.5 268.5 37.5 290.5 C 30.24 295.12 15.5 304.5 -9.5 304.5 C -20.060001 304.5 -41.5 304.5 -68.5 293.5 C -77.41 289.87 -95.5 282.5 -106.5 270.5 C -110.13 266.54 -117.5 258.5 -117.5 258.5 L -114.5 258.5 C -113.51 258.17 -111.5 257.5 -106.5 256.5 C -104.85 256.17 -101.5 255.5 -96.5 251.5 C -94.85 250.18 -91.5 247.5 -84.5 244.5 C -82.19 243.51 -77.5 241.5 -74.5 233.5 C -73.51 230.86 -71.5 225.5 -66.5 218.5 C -64.85 216.19 -61.5 211.5 -63.5 198.5 C -63.5 191.24 -63.5 176.5 -77.5 159.5 C -82.12 153.89 -91.5 142.5 -122.5 141.5 C -122.5 141.5 -122.5 141.5 -122.5 141.5 Z " fill="rgb(0, 0, 0)" stroke="none" stroke-width="1" stroke-opacity="1" fill-opacity="1" visibility="visible" stroke-linecap="butt" stroke-linejoin="miter" stroke-miterlimit="4"></path></g><g id="two-20" transform="matrix(1 0 0 1 3418.600097 0)" opacity="1" data-mml-node="TeXAtom" data-mjx-texclass="ORD"><g id="two-21" transform="matrix(1 0 0 1 0 0)" opacity="1" data-mml-node="mo"><path transform="matrix(1 0 0 1 250 250)" id="two-22" d="M 173 500 C 175.97 500 182 500 188 494 C 189.98 492.02 194 488 194 480 C 194 478.35 194 475 21 -2 C -36.09 -159.41 -152 -479 -158 -490 C -160.31 -493.3 -165 -500 -175 -500 C -177.31 -500 -182 -500 -188 -495 C -189.98 -493.35 -194 -490 -194 -481 C -194 -477.7 -194 -471 -20 7 C 37.42 164.74 154 485 157 490 C 158.32 493.3 161 500 173 500 C 173 500 173 500 173 500 Z " fill="rgb(0, 0, 0)" stroke="none" stroke-width="1" stroke-opacity="1" fill-opacity="1" visibility="visible" stroke-linecap="butt" stroke-linejoin="miter" stroke-miterlimit="4"></path></g></g><g id="two-23" transform="matrix(1 0 0 1 3918.600097 0)" opacity="1" data-mml-node="mn"><path transform="matrix(1 0 0 1 249.5 333)" id="two-24" d="M -140.5 96 C -149.41 96 -167.5 96 -183.5 114 C -188.78 119.94 -199.5 132 -199.5 158 C -199.5 181.43 -199.5 229 -146.5 281 C -129.01 298.16 -93.5 333 -14.5 333 C 15.53 333 76.5 333 137.5 277 C 157.63 258.519999 198.5 221 199.5 132 C 199.5 117.81 199.5 89 179.5 50 C 172.9 37.129999 159.5 11 131.5 -18 C 122.26 -27.57 103.5 -47 51.5 -92 C 39.62 -102.23 15.5 -123 -48.5 -184 L -107.5 -240 L -31.5 -241 C 20.31 -241 125.5 -241 135.5 -236 C 137.81 -235.34 142.5 -234 159.5 -147 L 159.5 -144 L 199.5 -144 L 199.5 -147 C 199.17 -147.99 198.5 -150 186.5 -238 C 182.54 -267.040001 174.5 -326 171.5 -330 L 171.5 -333 L -199.5 -333 L -199.5 -314 L -199.5 -302 C -199.5 -299.69 -199.5 -295 -193.5 -287 C -191.52 -284.36 -187.5 -279 -163.5 -252 C -153.93 -241.44 -134.5 -220 -113.5 -196 C -110.53 -192.7 -104.5 -186 -79.5 -159 C -71.25 -150.09 -54.5 -132 -45.5 -122 C -42.53 -118.7 -36.5 -112 -16.5 -89 C -9.9 -81.41 3.5 -66 11.5 -55 C 14.14 -51.37 19.5 -44 34.5 -25 C 39.45 -18.73 49.5 -6 55.5 7 C 57.48 11.29 61.5 20 70.5 36 C 73.47 41.28 79.5 52 83.5 68 C 84.82 73.28 87.5 84 90.5 98 C 91.49 102.62 93.5 112 93.5 131 C 93.5 151.79 93.5 194 59.5 240 C 48.28 255.18 25.5 286 -37.5 286 C -48.39 286 -70.5 286 -95.5 269 C -103.75 263.39 -120.5 252 -130.5 236 C -133.800001 230.72 -140.5 220 -140.5 217 C -140.5 216.67 -140.5 216 -135.5 216 C -129.56 216 -117.5 216 -98.5 202 C -92.23 197.38 -79.5 188 -79.5 156 C -79.5 147.75 -79.5 131 -95.5 114 C -100.78 108.39 -111.5 97 -140.5 96 C -140.5 96 -140.5 96 -140.5 96 Z " fill="rgb(0, 0, 0)" stroke="none" stroke-width="1" stroke-opacity="1" fill-opacity="1" visibility="visible" stroke-linecap="butt" stroke-linejoin="miter" stroke-miterlimit="4"></path></g><g id="two-25" transform="matrix(1 0 0 1 4418.600097 0)" opacity="1" data-mml-node="mo"><path transform="matrix(1 0 0 1 174.5 250)" id="two-26" d="M -114.5 499 L -110.5 500 C -108.85 500 -105.5 500 -100.5 500 L -88.5 500 L -60.5 476 C -29.48 447.95 33.5 391 76.5 264 C 90.69 222.09 119.5 137 119.5 0 C 119.5 -22.44 119.5 -68 109.5 -131 C 106.2 -151.79 99.5 -194 86.5 -238 C 82.21 -252.52 73.5 -282 49.5 -326 C 41.58 -340.52 25.5 -370 11.5 -393 C 6.88 -400.59 -2.5 -416 -29.5 -444 C -38.41 -453.24 -56.5 -472 -61.5 -477 C -63.15 -478.65 -66.5 -482 -84.5 -496 C -85.49 -496.99 -87.5 -499 -88.5 -500 L -100.5 -500 C -103.14 -500 -108.5 -500 -111.5 -500 C -112.49 -500 -114.5 -500 -116.5 -497 C -117.16 -496.01 -118.5 -494 -119.5 -488 C -119.17 -487.67 -118.5 -487 -108.5 -475 C -57.35 -421.87 46.5 -314 46.5 0 C 46.5 103.62 46.5 314 -108.5 475 C -111.8 478.96 -118.5 487 -119.5 488 C -119.5 490.64 -119.5 496 -114.5 499 C -114.5 499 -114.5 499 -114.5 499 Z " fill="rgb(0, 0, 0)" stroke="none" stroke-width="1" stroke-opacity="1" fill-opacity="1" visibility="visible" stroke-linecap="butt" stroke-linejoin="miter" stroke-miterlimit="4"></path></g><g id="two-27" transform="matrix(1 0 0 1 4807.600097 0)" opacity="1" data-mml-node="TeXAtom" data-mjx-texclass="ORD"><g id="two-28" transform="matrix(1 0 0 1 0 -0.5)" opacity="1" data-mml-node="mo"><path transform="matrix(1 0 0 1 139 250.5)" id="two-29" d="M 0 -499.5 L -2 -499.5 C -5.96 -499.5 -14 -499.5 -20 -485.5 L -20 0.5 L -19 486.5 C -15.7 490.79 -9 499.5 0 499.5 C 4.29 499.5 13 499.5 20 484.5 L 20 -485.5 C 17.36 -490.12 12 -499.5 2 -499.5 L 0 -499.5 Z " fill="rgb(0, 0, 0)" stroke="none" stroke-width="1" stroke-opacity="1" fill-opacity="1" visibility="visible" stroke-linecap="butt" stroke-linejoin="miter" stroke-miterlimit="4"></path></g></g><g id="two-30" transform="matrix(1 0 0 1 5085.600097 0)" opacity="1" data-mml-node="mi"><path transform="matrix(1 0 0 1 298 255.5)" id="two-31" d="M -269 -449.5 C -270.98 -447.52 -275 -443.5 -275 -441.5 C -275 -440.51 -275 -438.5 -196 -121.5 C -169.93 -16.89 -117 195.5 -112 209.5 C -104.74 231.94 -90 277.5 -55 328.5 C -43.45 345.33 -20 379.5 11 402.5 C 29.48 418.01 67 449.5 131 449.5 L 133 449.5 C 153.46 449.5 195 449.5 235 411.5 C 248.2 398.96 275 373.5 275 314.5 C 275 279.85 275 209.5 171 140.5 L 184 127.5 C 200.83 110.67 235 76.5 235 -3.5 C 235 -40.79 235 -116.5 150 -190.5 C 121.95 -214.920001 65 -264.5 -41 -265.5 C -50.9 -265.5 -71 -265.5 -95 -257.5 C -102.92 -254.86 -119 -249.5 -133 -238.5 C -137.62 -234.87 -147 -227.5 -155 -215.5 C -157.64 -211.54 -163 -203.5 -167 -196.5 C -168.32 -194.19 -171 -189.5 -172 -190.5 L -236 -443.5 C -236.66 -445.48 -238 -449.5 -256 -449.5 L -269 -449.5 Z M 55 175.5 C 67.87 175.5 94 175.5 129 163.5 L 134 166.5 C 135.32 167.82 138 170.5 141 173.5 C 141.99 174.49 144 176.5 151 183.5 C 153.31 185.81 158 190.5 163 197.5 C 164.65 199.81 168 204.5 174 215.5 C 175.98 219.13 180 226.5 186 239.5 C 187.98 243.79 192 252.5 195 268.5 C 195.99 273.78 198 284.5 203 304.5 C 203.66 307.47 205 313.5 205 337.5 C 205 343.44 205 355.5 204 360.5 C 199.05 377.33 189 411.5 128 411.5 C 114.14 411.5 86 411.5 49 387.5 C 36.79 379.58 12 363.5 -12 326.5 C -19.92 314.29 -36 289.5 -51 258.5 C -55.95 248.27 -66 227.5 -74 199.5 C -75.65 194.22 -79 183.5 -112 52.5 C -122.89 9.269999 -145 -78.5 -146 -87.5 C -146.33 -89.15 -147 -92.5 -147 -108.5 C -147 -124.34 -147 -156.5 -125 -187.5 C -114.77 -201.36 -94 -229.5 -38 -229.5 C -24.14 -229.5 4 -229.5 51 -204.5 C 66.51 -196.25 98 -179.5 127 -118.5 C 132.28 -107.28 143 -84.5 151 -41.5 C 153.64 -27.31 159 1.5 159 23.5 C 159 42.64 159 81.5 124 116.5 C 110.14 111.88 82 102.5 49 102.5 L 39 102.5 C 12.93 102.5 -40 102.5 -40 133.5 C -40 135.81 -40 140.5 -37 147.5 C -32.380001 156.74 -23 175.5 55 175.5 C 55 175.5 55 175.5 55 175.5 Z " fill="rgb(0, 0, 0)" stroke="none" stroke-width="1" stroke-opacity="1" fill-opacity="1" visibility="visible" stroke-linecap="butt" stroke-linejoin="miter" stroke-miterlimit="4"></path></g><g id="two-32" transform="matrix(1 0 0 1 5651.600097 0)" opacity="1" data-mml-node="mo"><path transform="matrix(1 0 0 1 139 250.5)" id="two-33" d="M 0 -499.5 L -2 -499.5 C -5.96 -499.5 -14 -499.5 -20 -485.5 L -20 0.5 L -19 486.5 C -15.7 490.79 -9 499.5 0 499.5 C 4.29 499.5 13 499.5 20 484.5 L 20 -485.5 C 17.36 -490.12 12 -499.5 2 -499.5 L 0 -499.5 Z " fill="rgb(0, 0, 0)" stroke="none" stroke-width="1" stroke-opacity="1" fill-opacity="1" visibility="visible" stroke-linecap="butt" stroke-linejoin="miter" stroke-miterlimit="4"></path></g></g></g></g><path transform="matrix(1 0 0 1 0 0)" id="two-35" d="M 245 275 C 245 260 406.5 275 406.5 260 " fill="none" stroke="rgb(0,0,0)" stroke-width="1.35" stroke-opacity="1" fill-opacity="1" visibility="visible" stroke-linecap="butt" stroke-linejoin="miter" stroke-miterlimit="4"></path><path transform="matrix(1 0 0 1 0 0)" id="two-36" d="M 245 275 C 245 260 83.5 275 83.5 260 " fill="none" stroke="rgb(0,0,0)" stroke-width="1.35" stroke-opacity="1" fill-opacity="1" visibility="visible" stroke-linecap="butt" stroke-linejoin="miter" stroke-miterlimit="4"></path><g id="two-37" transform="matrix(0.025 0 0 -0.025001 15 151)" opacity="1" clip-path="url(#two-46)"><g id="two-38" transform="matrix(1 0 0 1 0 0)" opacity="1"><g id="two-39" transform="matrix(1 0 0 1 0 0)" opacity="1" data-mml-node="math"><g id="two-40" transform="matrix(1 0 0 1 0 -0.5)" opacity="1" data-mml-node="mo"><path transform="matrix(1 0 0 1 139 250.5)" id="two-41" d="M 0 -499.5 L -2 -499.5 C -5.96 -499.5 -14 -499.5 -20 -485.5 L -20 0.5 L -19 486.5 C -15.7 490.79 -9 499.5 0 499.5 C 4.29 499.5 13 499.5 20 484.5 L 20 -485.5 C 17.36 -490.12 12 -499.5 2 -499.5 L 0 -499.5 Z " fill="rgb(0, 0, 0)" stroke="none" stroke-width="1" stroke-opacity="1" fill-opacity="1" visibility="visible" stroke-linecap="butt" stroke-linejoin="miter" stroke-miterlimit="4"></path></g><g id="two-42" transform="matrix(1 0 0 1 278 0)" opacity="1" data-mml-node="mi"><path transform="matrix(1 0 0 1 298 255.5)" id="two-43" d="M -269 -449.5 C -270.98 -447.52 -275 -443.5 -275 -441.5 C -275 -440.51 -275 -438.5 -196 -121.5 C -169.93 -16.89 -117 195.5 -112 209.5 C -104.74 231.94 -90 277.5 -55 328.5 C -43.45 345.33 -20 379.5 11 402.5 C 29.48 418.01 67 449.5 131 449.5 L 133 449.5 C 153.46 449.5 195 449.5 235 411.5 C 248.2 398.96 275 373.5 275 314.5 C 275 279.85 275 209.5 171 140.5 L 184 127.5 C 200.83 110.67 235 76.5 235 -3.5 C 235 -40.79 235 -116.5 150 -190.5 C 121.95 -214.920001 65 -264.5 -41 -265.5 C -50.9 -265.5 -71 -265.5 -95 -257.5 C -102.92 -254.86 -119 -249.5 -133 -238.5 C -137.62 -234.87 -147 -227.5 -155 -215.5 C -157.64 -211.54 -163 -203.5 -167 -196.5 C -168.32 -194.19 -171 -189.5 -172 -190.5 L -236 -443.5 C -236.66 -445.48 -238 -449.5 -256 -449.5 L -269 -449.5 Z M 55 175.5 C 67.87 175.5 94 175.5 129 163.5 L 134 166.5 C 135.32 167.82 138 170.5 141 173.5 C 141.99 174.49 144 176.5 151 183.5 C 153.31 185.81 158 190.5 163 197.5 C 164.65 199.81 168 204.5 174 215.5 C 175.98 219.13 180 226.5 186 239.5 C 187.98 243.79 192 252.5 195 268.5 C 195.99 273.78 198 284.5 203 304.5 C 203.66 307.47 205 313.5 205 337.5 C 205 343.44 205 355.5 204 360.5 C 199.05 377.33 189 411.5 128 411.5 C 114.14 411.5 86 411.5 49 387.5 C 36.79 379.58 12 363.5 -12 326.5 C -19.92 314.29 -36 289.5 -51 258.5 C -55.95 248.27 -66 227.5 -74 199.5 C -75.65 194.22 -79 183.5 -112 52.5 C -122.89 9.269999 -145 -78.5 -146 -87.5 C -146.33 -89.15 -147 -92.5 -147 -108.5 C -147 -124.34 -147 -156.5 -125 -187.5 C -114.77 -201.36 -94 -229.5 -38 -229.5 C -24.14 -229.5 4 -229.5 51 -204.5 C 66.51 -196.25 98 -179.5 127 -118.5 C 132.28 -107.28 143 -84.5 151 -41.5 C 153.64 -27.31 159 1.5 159 23.5 C 159 42.64 159 81.5 124 116.5 C 110.14 111.88 82 102.5 49 102.5 L 39 102.5 C 12.93 102.5 -40 102.5 -40 133.5 C -40 135.81 -40 140.5 -37 147.5 C -32.380001 156.74 -23 175.5 55 175.5 C 55 175.5 55 175.5 55 175.5 Z " fill="rgb(0, 0, 0)" stroke="none" stroke-width="1" stroke-opacity="1" fill-opacity="1" visibility="visible" stroke-linecap="butt" stroke-linejoin="miter" stroke-miterlimit="4"></path></g><g id="two-44" transform="matrix(1 0 0 1 844 0)" opacity="1" data-mml-node="mo"><path transform="matrix(1 0 0 1 139 250.5)" id="two-45" d="M 0 -499.5 L -2 -499.5 C -5.96 -499.5 -14 -499.5 -20 -485.5 L -20 0.5 L -19 486.5 C -15.7 490.79 -9 499.5 0 499.5 C 4.29 499.5 13 499.5 20 484.5 L 20 -485.5 C 17.36 -490.12 12 -499.5 2 -499.5 L 0 -499.5 Z " fill="rgb(0, 0, 0)" stroke="none" stroke-width="1" stroke-opacity="1" fill-opacity="1" visibility="visible" stroke-linecap="butt" stroke-linejoin="miter" stroke-miterlimit="4"></path></g></g></g></g><path transform="matrix(1 0 0 1 0 0)" id="two-47" d="M 45 145 C 60 145 44.999999 240 59.999999 240 " fill="none" stroke="rgb(0,0,0)" stroke-width="1.35" stroke-opacity="1" fill-opacity="1" visibility="visible" stroke-linecap="butt" stroke-linejoin="miter" stroke-miterlimit="4"></path><path transform="matrix(1 0 0 1 0 0)" id="two-48" d="M 45 145 C 60 145 45 50 60 50 " fill="none" stroke="rgb(0,0,0)" stroke-width="1.35" stroke-opacity="1" fill-opacity="1" visibility="visible" stroke-linecap="butt" stroke-linejoin="miter" stroke-miterlimit="4"></path><g id="two-49" transform="matrix(0.025 0 0 -0.025001 135 200)" opacity="1" clip-path="url(#two-64)"><g id="two-50" transform="matrix(1 0 0 1 0 0)" opacity="1"><g id="two-51" transform="matrix(1 0 0 1 0 0)" opacity="1" data-mml-node="math"><g id="two-52" transform="matrix(1 0 0 1 0 -0.5)" opacity="1" data-mml-node="mo"><path transform="matrix(1 0 0 1 139 250.5)" id="two-53" d="M 0 -499.5 L -2 -499.5 C -5.96 -499.5 -14 -499.5 -20 -485.5 L -20 0.5 L -19 486.5 C -15.7 490.79 -9 499.5 0 499.5 C 4.29 499.5 13 499.5 20 484.5 L 20 -485.5 C 17.36 -490.12 12 -499.5 2 -499.5 L 0 -499.5 Z " fill="rgb(0, 0, 0)" stroke="none" stroke-width="1" stroke-opacity="1" fill-opacity="1" visibility="visible" stroke-linecap="butt" stroke-linejoin="miter" stroke-miterlimit="4"></path></g><g id="two-54" transform="matrix(1 0 0 1 278 0)" opacity="1" data-mml-node="mi"><path transform="matrix(1 0 0 1 318.5 215.5)" id="two-55" d="M -284.5 -59.5 C -284.5 -21.88 -284.5 54.5 -198.5 140.5 C -170.12 168.88 -112.5 226.5 -9.5 226.5 C 13.6 226.5 60.5 226.5 102.5 186.5 C 116.36 173.3 144.5 146.5 159.5 88.5 C 161.48 78.93 165.5 59.5 166.5 21.5 L 166.5 -7.5 C 182.67 16.92 215.5 66.5 241.5 158.5 C 242.82 163.12 245.5 172.5 247.5 174.5 C 248.16 175.16 249.5 176.5 263.5 177.5 C 270.43 177.5 284.5 177.5 284.5 169.5 C 284.5 166.53 284.5 160.5 275.5 130.5 C 272.53 120.6 266.5 100.5 239.5 45.5 C 230.59 27.349999 212.5 -9.5 178.5 -54.5 L 167.5 -68.5 L 168.5 -92.5 C 169.16 -110.98 170.5 -148.5 176.5 -168.5 C 178.48 -175.1 182.5 -188.5 195.5 -189.5 C 200.12 -188.84 209.5 -187.5 221.5 -178.5 C 225.46 -175.53 233.5 -169.5 238.5 -155.5 C 239.16 -153.19 240.5 -148.5 243.5 -147.5 C 244.49 -147.17 246.5 -146.5 258.5 -145.5 C 265.1 -145.5 278.5 -145.5 278.5 -153.5 C 278.5 -155.48 278.5 -159.5 272.5 -172.5 C 268.54 -180.42 260.5 -196.5 237.5 -210.5 C 229.91 -215.12 214.5 -224.5 193.5 -225.5 L 186.5 -225.5 C 164.39 -225.5 119.5 -225.5 95.5 -153.5 L 92.5 -146.5 L 81.5 -154.5 C 78.2 -157.14 71.5 -162.5 51.5 -174.5 C 44.9 -178.46 31.5 -186.5 6.5 -197.5 C -1.75 -201.13 -18.5 -208.5 -51.5 -217.5 C -62.39 -220.47 -84.5 -226.5 -115.5 -226.5 C -141.57 -226.5 -194.5 -226.5 -239.5 -176.5 C -254.35 -160 -284.5 -126.5 -284.5 -59.5 Z M -110.5 -189.5 C -94.33 -189.5 -61.5 -189.5 -12.5 -168.5 C 3.67 -161.57 36.5 -147.5 60.5 -125.5 L 84.5 -103.5 C 83.84 -56.31 82.5 39.5 77.5 74.5 C 72.88 112.45 63.5 189.5 -14.5 189.5 C -37.27 189.5 -83.5 189.5 -135.5 116.5 C -144.41 103.3 -162.5 76.5 -179.5 8.5 C -185.11 -13.940001 -196.5 -59.5 -197.5 -95.5 C -197.5 -111.67 -197.5 -144.5 -172.5 -166.5 C -164.25 -173.76 -147.5 -188.5 -110.5 -189.5 C -110.5 -189.5 -110.5 -189.5 -110.5 -189.5 Z " fill="rgb(0, 0, 0)" stroke="none" stroke-width="1" stroke-opacity="1" fill-opacity="1" visibility="visible" stroke-linecap="butt" stroke-linejoin="miter" stroke-miterlimit="4"></path></g><g id="two-56" transform="matrix(1 0 0 1 918 0)" opacity="1" data-mml-node="TeXAtom" data-mjx-texclass="ORD"><g id="two-57" transform="matrix(1 0 0 1 0 -0.5)" opacity="1" data-mml-node="mo"><path transform="matrix(1 0 0 1 139 250.5)" id="two-58" d="M 0 -499.5 L -2 -499.5 C -5.96 -499.5 -14 -499.5 -20 -485.5 L -20 0.5 L -19 486.5 C -15.7 490.79 -9 499.5 0 499.5 C 4.29 499.5 13 499.5 20 484.5 L 20 -485.5 C 17.36 -490.12 12 -499.5 2 -499.5 L 0 -499.5 Z " fill="rgb(0, 0, 0)" stroke="none" stroke-width="1" stroke-opacity="1" fill-opacity="1" visibility="visible" stroke-linecap="butt" stroke-linejoin="miter" stroke-miterlimit="4"></path></g></g><g id="two-59" transform="matrix(1 0 0 1 1196 0)" opacity="1" data-mml-node="TeXAtom" data-mjx-texclass="ORD"><g id="two-60" transform="matrix(1 0 0 1 0 0)" opacity="1" data-mml-node="mo"><path transform="matrix(1 0 0 1 250 250)" id="two-61" d="M 173 500 C 175.97 500 182 500 188 494 C 189.98 492.02 194 488 194 480 C 194 478.35 194 475 21 -2 C -36.09 -159.41 -152 -479 -158 -490 C -160.31 -493.3 -165 -500 -175 -500 C -177.31 -500 -182 -500 -188 -495 C -189.98 -493.35 -194 -490 -194 -481 C -194 -477.7 -194 -471 -20 7 C 37.42 164.74 154 485 157 490 C 158.32 493.3 161 500 173 500 C 173 500 173 500 173 500 Z " fill="rgb(0, 0, 0)" stroke="none" stroke-width="1" stroke-opacity="1" fill-opacity="1" visibility="visible" stroke-linecap="butt" stroke-linejoin="miter" stroke-miterlimit="4"></path></g></g><g id="two-62" transform="matrix(1 0 0 1 1696 0)" opacity="1" data-mml-node="mn"><path transform="matrix(1 0 0 1 249.5 333)" id="two-63" d="M -140.5 96 C -149.41 96 -167.5 96 -183.5 114 C -188.78 119.94 -199.5 132 -199.5 158 C -199.5 181.43 -199.5 229 -146.5 281 C -129.01 298.16 -93.5 333 -14.5 333 C 15.53 333 76.5 333 137.5 277 C 157.63 258.519999 198.5 221 199.5 132 C 199.5 117.81 199.5 89 179.5 50 C 172.9 37.129999 159.5 11 131.5 -18 C 122.26 -27.57 103.5 -47 51.5 -92 C 39.62 -102.23 15.5 -123 -48.5 -184 L -107.5 -240 L -31.5 -241 C 20.31 -241 125.5 -241 135.5 -236 C 137.81 -235.34 142.5 -234 159.5 -147 L 159.5 -144 L 199.5 -144 L 199.5 -147 C 199.17 -147.99 198.5 -150 186.5 -238 C 182.54 -267.040001 174.5 -326 171.5 -330 L 171.5 -333 L -199.5 -333 L -199.5 -314 L -199.5 -302 C -199.5 -299.69 -199.5 -295 -193.5 -287 C -191.52 -284.36 -187.5 -279 -163.5 -252 C -153.93 -241.44 -134.5 -220 -113.5 -196 C -110.53 -192.7 -104.5 -186 -79.5 -159 C -71.25 -150.09 -54.5 -132 -45.5 -122 C -42.53 -118.7 -36.5 -112 -16.5 -89 C -9.9 -81.41 3.5 -66 11.5 -55 C 14.14 -51.37 19.5 -44 34.5 -25 C 39.45 -18.73 49.5 -6 55.5 7 C 57.48 11.29 61.5 20 70.5 36 C 73.47 41.28 79.5 52 83.5 68 C 84.82 73.28 87.5 84 90.5 98 C 91.49 102.62 93.5 112 93.5 131 C 93.5 151.79 93.5 194 59.5 240 C 48.28 255.18 25.5 286 -37.5 286 C -48.39 286 -70.5 286 -95.5 269 C -103.75 263.39 -120.5 252 -130.5 236 C -133.800001 230.72 -140.5 220 -140.5 217 C -140.5 216.67 -140.5 216 -135.5 216 C -129.56 216 -117.5 216 -98.5 202 C -92.23 197.38 -79.5 188 -79.5 156 C -79.5 147.75 -79.5 131 -95.5 114 C -100.78 108.39 -111.5 97 -140.5 96 C -140.5 96 -140.5 96 -140.5 96 Z " fill="rgb(0, 0, 0)" stroke="none" stroke-width="1" stroke-opacity="1" fill-opacity="1" visibility="visible" stroke-linecap="butt" stroke-linejoin="miter" stroke-miterlimit="4"></path></g></g></g></g><path transform="matrix(1 0 0 1 0 0)" id="two-65" d="M 160 215 C 160 230 83.5 215 83.5 230 " fill="none" stroke="rgb(0,0,0)" stroke-width="1.35" stroke-opacity="1" fill-opacity="1" visibility="visible" stroke-linecap="butt" stroke-linejoin="miter" stroke-miterlimit="4"></path><path transform="matrix(1 0 0 1 0 0)" id="two-66" d="M 160 215 C 160 230 236.5 215 236.5 230 " fill="none" stroke="rgb(0,0,0)" stroke-width="1.35" stroke-opacity="1" fill-opacity="1" visibility="visible" stroke-linecap="butt" stroke-linejoin="miter" stroke-miterlimit="4"></path><g id="two-67" transform="matrix(0.025 0 0 -0.025001 305 200)" opacity="1" clip-path="url(#two-82)"><g id="two-68" transform="matrix(1 0 0 1 0 0)" opacity="1"><g id="two-69" transform="matrix(1 0 0 1 0 0)" opacity="1" data-mml-node="math"><g id="two-70" transform="matrix(1 0 0 1 0 -0.5)" opacity="1" data-mml-node="mo"><path transform="matrix(1 0 0 1 139 250.5)" id="two-71" d="M 0 -499.5 L -2 -499.5 C -5.96 -499.5 -14 -499.5 -20 -485.5 L -20 0.5 L -19 486.5 C -15.7 490.79 -9 499.5 0 499.5 C 4.29 499.5 13 499.5 20 484.5 L 20 -485.5 C 17.36 -490.12 12 -499.5 2 -499.5 L 0 -499.5 Z " fill="rgb(0, 0, 0)" stroke="none" stroke-width="1" stroke-opacity="1" fill-opacity="1" visibility="visible" stroke-linecap="butt" stroke-linejoin="miter" stroke-miterlimit="4"></path></g><g id="two-72" transform="matrix(1 0 0 1 278 0)" opacity="1" data-mml-node="mi"><path transform="matrix(1 0 0 1 318.5 215.5)" id="two-73" d="M -284.5 -59.5 C -284.5 -21.88 -284.5 54.5 -198.5 140.5 C -170.12 168.88 -112.5 226.5 -9.5 226.5 C 13.6 226.5 60.5 226.5 102.5 186.5 C 116.36 173.3 144.5 146.5 159.5 88.5 C 161.48 78.93 165.5 59.5 166.5 21.5 L 166.5 -7.5 C 182.67 16.92 215.5 66.5 241.5 158.5 C 242.82 163.12 245.5 172.5 247.5 174.5 C 248.16 175.16 249.5 176.5 263.5 177.5 C 270.43 177.5 284.5 177.5 284.5 169.5 C 284.5 166.53 284.5 160.5 275.5 130.5 C 272.53 120.6 266.5 100.5 239.5 45.5 C 230.59 27.349999 212.5 -9.5 178.5 -54.5 L 167.5 -68.5 L 168.5 -92.5 C 169.16 -110.98 170.5 -148.5 176.5 -168.5 C 178.48 -175.1 182.5 -188.5 195.5 -189.5 C 200.12 -188.84 209.5 -187.5 221.5 -178.5 C 225.46 -175.53 233.5 -169.5 238.5 -155.5 C 239.16 -153.19 240.5 -148.5 243.5 -147.5 C 244.49 -147.17 246.5 -146.5 258.5 -145.5 C 265.1 -145.5 278.5 -145.5 278.5 -153.5 C 278.5 -155.48 278.5 -159.5 272.5 -172.5 C 268.54 -180.42 260.5 -196.5 237.5 -210.5 C 229.91 -215.12 214.5 -224.5 193.5 -225.5 L 186.5 -225.5 C 164.39 -225.5 119.5 -225.5 95.5 -153.5 L 92.5 -146.5 L 81.5 -154.5 C 78.2 -157.14 71.5 -162.5 51.5 -174.5 C 44.9 -178.46 31.5 -186.5 6.5 -197.5 C -1.75 -201.13 -18.5 -208.5 -51.5 -217.5 C -62.39 -220.47 -84.5 -226.5 -115.5 -226.5 C -141.57 -226.5 -194.5 -226.5 -239.5 -176.5 C -254.35 -160 -284.5 -126.5 -284.5 -59.5 Z M -110.5 -189.5 C -94.33 -189.5 -61.5 -189.5 -12.5 -168.5 C 3.67 -161.57 36.5 -147.5 60.5 -125.5 L 84.5 -103.5 C 83.84 -56.31 82.5 39.5 77.5 74.5 C 72.88 112.45 63.5 189.5 -14.5 189.5 C -37.27 189.5 -83.5 189.5 -135.5 116.5 C -144.41 103.3 -162.5 76.5 -179.5 8.5 C -185.11 -13.940001 -196.5 -59.5 -197.5 -95.5 C -197.5 -111.67 -197.5 -144.5 -172.5 -166.5 C -164.25 -173.76 -147.5 -188.5 -110.5 -189.5 C -110.5 -189.5 -110.5 -189.5 -110.5 -189.5 Z " fill="rgb(0, 0, 0)" stroke="none" stroke-width="1" stroke-opacity="1" fill-opacity="1" visibility="visible" stroke-linecap="butt" stroke-linejoin="miter" stroke-miterlimit="4"></path></g><g id="two-74" transform="matrix(1 0 0 1 918 0)" opacity="1" data-mml-node="TeXAtom" data-mjx-texclass="ORD"><g id="two-75" transform="matrix(1 0 0 1 0 -0.5)" opacity="1" data-mml-node="mo"><path transform="matrix(1 0 0 1 139 250.5)" id="two-76" d="M 0 -499.5 L -2 -499.5 C -5.96 -499.5 -14 -499.5 -20 -485.5 L -20 0.5 L -19 486.5 C -15.7 490.79 -9 499.5 0 499.5 C 4.29 499.5 13 499.5 20 484.5 L 20 -485.5 C 17.36 -490.12 12 -499.5 2 -499.5 L 0 -499.5 Z " fill="rgb(0, 0, 0)" stroke="none" stroke-width="1" stroke-opacity="1" fill-opacity="1" visibility="visible" stroke-linecap="butt" stroke-linejoin="miter" stroke-miterlimit="4"></path></g></g><g id="two-77" transform="matrix(1 0 0 1 1196 0)" opacity="1" data-mml-node="TeXAtom" data-mjx-texclass="ORD"><g id="two-78" transform="matrix(1 0 0 1 0 0)" opacity="1" data-mml-node="mo"><path transform="matrix(1 0 0 1 250 250)" id="two-79" d="M 173 500 C 175.97 500 182 500 188 494 C 189.98 492.02 194 488 194 480 C 194 478.35 194 475 21 -2 C -36.09 -159.41 -152 -479 -158 -490 C -160.31 -493.3 -165 -500 -175 -500 C -177.31 -500 -182 -500 -188 -495 C -189.98 -493.35 -194 -490 -194 -481 C -194 -477.7 -194 -471 -20 7 C 37.42 164.74 154 485 157 490 C 158.32 493.3 161 500 173 500 C 173 500 173 500 173 500 Z " fill="rgb(0, 0, 0)" stroke="none" stroke-width="1" stroke-opacity="1" fill-opacity="1" visibility="visible" stroke-linecap="butt" stroke-linejoin="miter" stroke-miterlimit="4"></path></g></g><g id="two-80" transform="matrix(1 0 0 1 1696 0)" opacity="1" data-mml-node="mn"><path transform="matrix(1 0 0 1 249.5 333)" id="two-81" d="M -140.5 96 C -149.41 96 -167.5 96 -183.5 114 C -188.78 119.94 -199.5 132 -199.5 158 C -199.5 181.43 -199.5 229 -146.5 281 C -129.01 298.16 -93.5 333 -14.5 333 C 15.53 333 76.5 333 137.5 277 C 157.63 258.519999 198.5 221 199.5 132 C 199.5 117.81 199.5 89 179.5 50 C 172.9 37.129999 159.5 11 131.5 -18 C 122.26 -27.57 103.5 -47 51.5 -92 C 39.62 -102.23 15.5 -123 -48.5 -184 L -107.5 -240 L -31.5 -241 C 20.31 -241 125.5 -241 135.5 -236 C 137.81 -235.34 142.5 -234 159.5 -147 L 159.5 -144 L 199.5 -144 L 199.5 -147 C 199.17 -147.99 198.5 -150 186.5 -238 C 182.54 -267.040001 174.5 -326 171.5 -330 L 171.5 -333 L -199.5 -333 L -199.5 -314 L -199.5 -302 C -199.5 -299.69 -199.5 -295 -193.5 -287 C -191.52 -284.36 -187.5 -279 -163.5 -252 C -153.93 -241.44 -134.5 -220 -113.5 -196 C -110.53 -192.7 -104.5 -186 -79.5 -159 C -71.25 -150.09 -54.5 -132 -45.5 -122 C -42.53 -118.7 -36.5 -112 -16.5 -89 C -9.9 -81.41 3.5 -66 11.5 -55 C 14.14 -51.37 19.5 -44 34.5 -25 C 39.45 -18.73 49.5 -6 55.5 7 C 57.48 11.29 61.5 20 70.5 36 C 73.47 41.28 79.5 52 83.5 68 C 84.82 73.28 87.5 84 90.5 98 C 91.49 102.62 93.5 112 93.5 131 C 93.5 151.79 93.5 194 59.5 240 C 48.28 255.18 25.5 286 -37.5 286 C -48.39 286 -70.5 286 -95.5 269 C -103.75 263.39 -120.5 252 -130.5 236 C -133.800001 230.72 -140.5 220 -140.5 217 C -140.5 216.67 -140.5 216 -135.5 216 C -129.56 216 -117.5 216 -98.5 202 C -92.23 197.38 -79.5 188 -79.5 156 C -79.5 147.75 -79.5 131 -95.5 114 C -100.78 108.39 -111.5 97 -140.5 96 C -140.5 96 -140.5 96 -140.5 96 Z " fill="rgb(0, 0, 0)" stroke="none" stroke-width="1" stroke-opacity="1" fill-opacity="1" visibility="visible" stroke-linecap="butt" stroke-linejoin="miter" stroke-miterlimit="4"></path></g></g></g></g><path transform="matrix(1 0 0 1 0 0)" id="two-83" d="M 330 215 C 330 230 253.5 215 253.5 230 " fill="none" stroke="rgb(0,0,0)" stroke-width="1.35" stroke-opacity="1" fill-opacity="1" visibility="visible" stroke-linecap="butt" stroke-linejoin="miter" stroke-miterlimit="4"></path><path transform="matrix(1 0 0 1 0 0)" id="two-84" d="M 330 215 C 330 230 406.5 215 406.5 230 " fill="none" stroke="rgb(0,0,0)" stroke-width="1.35" stroke-opacity="1" fill-opacity="1" visibility="visible" stroke-linecap="butt" stroke-linejoin="miter" stroke-miterlimit="4"></path></g></svg>