 <svg version="1.1" style="overflow: hidden; display: block;" width="700" height="350"><defs><clipPath clip-rule="nonzero" id="two-33"><path transform="matrix(1 0 0 1 0 0)" d="M -4000 -4000 L 8000 -4000 L 4000 4000 L -4000 4000 Z" fill="#fff" stroke="#000" stroke-width="1" stroke-opacity="1" fill-opacity="1" visibility="visible" stroke-linecap="butt" stroke-linejoin="miter" stroke-miterlimit="4"></path></clipPath><clipPath clip-rule="nonzero" id="two-39"><path transform="matrix(1 0 0 1 0 0)" d="M -4000 -4000 L 8000 -4000 L 4000 4000 L -4000 4000 Z" fill="#fff" stroke="#000" stroke-width="1" stroke-opacity="1" fill-opacity="1" visibility="visible" stroke-linecap="butt" stroke-linejoin="miter" stroke-miterlimit="4"></path></clipPath><clipPath clip-rule="nonzero" id="two-45"><path transform="matrix(1 0 0 1 0 0)" d="M -4000 -4000 L 8000 -4000 L 4000 4000 L -4000 4000 Z" fill="#fff" stroke="#000" stroke-width="1" stroke-opacity="1" fill-opacity="1" visibility="visible" stroke-linecap="butt" stroke-linejoin="miter" stroke-miterlimit="4"></path></clipPath><clipPath clip-rule="nonzero" id="two-62"><path transform="matrix(1 0 0 1 0 0)" d="M -4000 -4000 L 8000 -4000 L 4000 4000 L -4000 4000 Z" fill="#fff" stroke="#000" stroke-width="1" stroke-opacity="1" fill-opacity="1" visibility="visible" stroke-linecap="butt" stroke-linejoin="miter" stroke-miterlimit="4"></path></clipPath><clipPath clip-rule="nonzero" id="two-73"><path transform="matrix(1 0 0 1 0 0)" d="M -4000 -4000 L 8000 -4000 L 4000 4000 L -4000 4000 Z" fill="#fff" stroke="#000" stroke-width="1" stroke-opacity="1" fill-opacity="1" visibility="visible" stroke-linecap="butt" stroke-linejoin="miter" stroke-miterlimit="4"></path></clipPath><clipPath clip-rule="nonzero" id="two-84"><path transform="matrix(1 0 0 1 0 0)" d="M -4000 -4000 L 8000 -4000 L 4000 4000 L -4000 4000 Z" fill="#fff" stroke="#000" stroke-width="1" stroke-opacity="1" fill-opacity="1" visibility="visible" stroke-linecap="butt" stroke-linejoin="miter" stroke-miterlimit="4"></path></clipPath></defs><g id="two-0" transform="matrix(1 0 0 1 0 0)" opacity="1"><path transform="matrix(1 0 0 1 0 0)" id="two-1" d="M 65 285 C 125 240 225 240 285 285 " fill="none" stroke="rgb(81,166,10)" stroke-width="3" stroke-opacity="1" fill-opacity="1" visibility="visible" stroke-linecap="round" stroke-linejoin="miter" stroke-miterlimit="4"></path><path transform="matrix(1 0 0 1 279 280.200012)" id="two-2" d="M 9 7.8 L -1.800001 -7.800001 L -4.680001 -2.46 L -9 1.8 Z " fill="rgb(81,166,10)" stroke="rgb(81,166,10)" stroke-width="3" stroke-opacity="1" fill-opacity="1" visibility="visible" stroke-linecap="butt" stroke-linejoin="round" stroke-miterlimit="4"></path><path transform="matrix(1 0 0 1 175 185)" id="two-3" d="M -130 -120 L 130 -120 L 130 120 L -130 120 Z " fill="none" stroke="rgb(100,100,100)" stroke-width="2" stroke-opacity="1" fill-opacity="1" visibility="visible" stroke-linecap="butt" stroke-linejoin="round" stroke-miterlimit="4"></path><path transform="matrix(1 0 0 1 55 295)" id="two-4" d="M 6 0 C 6 3.313708 3.313708 6 0 6 C -3.313709 6 -6 3.313708 -6 0 C -6.000001 -3.313709 -3.313709 -6 -0.000001 -6 C 3.313708 -6.000001 6 -3.313709 6 0 Z " fill="rgb(80,80,140)" stroke="none" stroke-width="1" stroke-opacity="1" fill-opacity="1" visibility="visible" stroke-linecap="butt" stroke-linejoin="miter" stroke-miterlimit="4"></path><path transform="matrix(1 0 0 1 295 295)" id="two-5" d="M 6 0 C 6 3.313708 3.313708 6 0 6 C -3.313709 6 -6 3.313708 -6 0 C -6.000001 -3.313709 -3.313709 -6 -0.000001 -6 C 3.313708 -6.000001 6 -3.313709 6 0 Z " fill="rgb(120,180,180)" stroke="none" stroke-width="1" stroke-opacity="1" fill-opacity="1" visibility="visible" stroke-linecap="butt" stroke-linejoin="miter" stroke-miterlimit="4"></path><path transform="matrix(1 0 0 1 495 185)" id="two-6" d="M -130 -120 L 130 -120 L 130 120 L -130 120 Z " fill="none" stroke="rgb(100,100,100)" stroke-width="2" stroke-opacity="1" fill-opacity="1" visibility="visible" stroke-linecap="butt" stroke-linejoin="round" stroke-miterlimit="4"></path><path transform="matrix(1 0 0 1 0 0)" id="two-7" d="M 365 160 L 625 160 " fill="none" stroke="rgb(100,100,100)" stroke-width="2" stroke-opacity="1" fill-opacity="1" visibility="visible" stroke-linecap="round" stroke-linejoin="miter" stroke-miterlimit="4"></path><path transform="matrix(1 0 0 1 0 0)" id="two-8" d="M 505 160 L 505 305 " fill="none" stroke="rgb(100,100,100)" stroke-width="2" stroke-opacity="1" fill-opacity="1" visibility="visible" stroke-linecap="round" stroke-linejoin="miter" stroke-miterlimit="4"></path><path transform="matrix(1 0 0 1 375 295)" id="two-9" d="M 5 0 C 5 2.761423 2.761423 5 0 5 C -2.761424 5 -5 2.761423 -5 0 C -5.000001 -2.761424 -2.761424 -5 -0.000001 -5 C 2.761423 -5.000001 5 -2.761424 5 0 Z " fill="rgb(80,80,140)" stroke="none" stroke-width="1" stroke-opacity="1" fill-opacity="1" visibility="visible" stroke-linecap="butt" stroke-linejoin="miter" stroke-miterlimit="4"></path><path transform="matrix(1 0 0 1 375 170)" id="two-10" d="M 5 0 C 5 2.761423 2.761423 5 0 5 C -2.761424 5 -5 2.761423 -5 0 C -5.000001 -2.761424 -2.761424 -5 -0.000001 -5 C 2.761423 -5.000001 5 -2.761424 5 0 Z " fill="rgb(120,180,180)" stroke="none" stroke-width="1" stroke-opacity="1" fill-opacity="1" visibility="visible" stroke-linecap="butt" stroke-linejoin="miter" stroke-miterlimit="4"></path><path transform="matrix(1 0 0 1 375 150)" id="two-11" d="M 5 0 C 5 2.761423 2.761423 5 0 5 C -2.761424 5 -5 2.761423 -5 0 C -5.000001 -2.761424 -2.761424 -5 -0.000001 -5 C 2.761423 -5.000001 5 -2.761424 5 0 Z " fill="rgb(80,80,140)" stroke="none" stroke-width="1" stroke-opacity="1" fill-opacity="1" visibility="visible" stroke-linecap="butt" stroke-linejoin="miter" stroke-miterlimit="4"></path><path transform="matrix(1 0 0 1 615 150)" id="two-12" d="M 5 0 C 5 2.761423 2.761423 5 0 5 C -2.761424 5 -5 2.761423 -5 0 C -5.000001 -2.761424 -2.761424 -5 -0.000001 -5 C 2.761423 -5.000001 5 -2.761424 5 0 Z " fill="rgb(120,180,180)" stroke="none" stroke-width="1" stroke-opacity="1" fill-opacity="1" visibility="visible" stroke-linecap="butt" stroke-linejoin="miter" stroke-miterlimit="4"></path><path transform="matrix(1 0 0 1 615 170)" id="two-13" d="M 5 0 C 5 2.761423 2.761423 5 0 5 C -2.761424 5 -5 2.761423 -5 0 C -5.000001 -2.761424 -2.761424 -5 -0.000001 -5 C 2.761423 -5.000001 5 -2.761424 5 0 Z " fill="rgb(80,80,140)" stroke="none" stroke-width="1" stroke-opacity="1" fill-opacity="1" visibility="visible" stroke-linecap="butt" stroke-linejoin="miter" stroke-miterlimit="4"></path><path transform="matrix(1 0 0 1 615 295)" id="two-14" d="M 5 0 C 5 2.761423 2.761423 5 0 5 C -2.761424 5 -5 2.761423 -5 0 C -5.000001 -2.761424 -2.761424 -5 -0.000001 -5 C 2.761423 -5.000001 5 -2.761424 5 0 Z " fill="rgb(120,180,180)" stroke="none" stroke-width="1" stroke-opacity="1" fill-opacity="1" visibility="visible" stroke-linecap="butt" stroke-linejoin="miter" stroke-miterlimit="4"></path><path transform="matrix(1 0 0 1 387 183.949996)" id="two-15" d="M -6 -6.95 L -1.2 6.95 L 1.98 3.689999 L 6 1.55 Z " fill="rgb(81,166,10)" stroke="rgb(81,166,10)" stroke-width="3" stroke-opacity="1" fill-opacity="1" visibility="visible" stroke-linecap="butt" stroke-linejoin="round" stroke-miterlimit="4"></path><path transform="matrix(1 0 0 1 601.655639 140.435394)" id="two-16" d="M 7.344331 4.564604 L -4.184222 -4.564605 L -5.108847 -0.105338 L -7.344332 3.862357 Z " fill="rgb(81,166,10)" stroke="rgb(81,166,10)" stroke-width="3" stroke-opacity="1" fill-opacity="1" visibility="visible" stroke-linecap="butt" stroke-linejoin="round" stroke-miterlimit="4"></path><path transform="matrix(1 0 0 1 603 281.049987)" id="two-17" d="M 6 6.949999 L 1.2 -6.95 L -1.980001 -3.69 L -6 -1.550001 Z " fill="rgb(81,166,10)" stroke="rgb(81,166,10)" stroke-width="3" stroke-opacity="1" fill-opacity="1" visibility="visible" stroke-linecap="butt" stroke-linejoin="round" stroke-miterlimit="4"></path><path transform="matrix(1 0 0 1 0 0)" id="two-18" d="M 381 283 C 403.5 253 403.5 207 381 177 " fill="none" stroke="rgb(81,166,10)" stroke-width="3" stroke-opacity="1" fill-opacity="1" visibility="visible" stroke-linecap="round" stroke-linejoin="miter" stroke-miterlimit="4"></path><path transform="matrix(1 0 0 1 0 0)" id="two-19" d="M 381 143 C 441 120.5 546 120.5 606 143 " fill="none" stroke="rgb(81,166,10)" stroke-width="3" stroke-opacity="1" fill-opacity="1" visibility="visible" stroke-linecap="round" stroke-linejoin="miter" stroke-miterlimit="4"></path><path transform="matrix(1 0 0 1 0 0)" id="two-20" d="M 604 177 C 581.5 207 581.5 253 604 283 " fill="none" stroke="rgb(81,166,10)" stroke-width="3" stroke-opacity="1" fill-opacity="1" visibility="visible" stroke-linecap="round" stroke-linejoin="miter" stroke-miterlimit="4"></path><g id="two-21" transform="matrix(0.025 0 0 -0.025001 145 55)" opacity="1" clip-path="url(#two-33)"><g id="two-22" transform="matrix(1 0 0 1 0 0)" opacity="1"><g id="two-23" transform="matrix(1 0 0 1 0 0)" opacity="1" data-mml-node="math"><g id="two-24" transform="matrix(1 0 0 1 0 0)" opacity="1" data-mml-node="mtext"><path transform="matrix(1 0 0 1 144.5 347.17929)" id="two-25" d="M -102.5 -301.179303 L -88.5 -301.179303 C -75.63 -301.179303 -49.5 -301.179303 -41.5 -287.179303 L -41.5 -279.179303 C -41.5 -276.209303 -41.5 -270.179303 -41.5 -256.179303 C -41.5 -251.559303 -41.5 -242.179303 -41.5 -223.179303 C -41.5 -216.909303 -41.5 -204.179303 -40.5 -180.179303 C -40.17 -172.259303 -39.5 -156.179303 -40.5 -130.179303 C -40.83 -121.599303 -41.5 -104.179303 -40.5 -75.179303 C -40.17 -65.609303 -39.5 -46.179303 -40.5 -18.179303 C -40.5 -5.969303 -40.5 18.820697 -40.5 59.820697 C -40.5 73.350697 -40.5 100.820697 -40.5 134.820697 C -40.5 146.040697 -40.5 168.820697 -40.5 194.820697 C -40.5 203.400697 -40.5 220.820697 -41.5 238.820697 C -41.83 244.760697 -42.5 256.820697 -41.5 255.820697 C -42.49 262.090697 -44.5 274.820697 -55.5 280.820697 C -59.13 282.800697 -66.5 286.820697 -100.5 289.820697 L -118.5 289.820697 L -118.5 312.820697 C -118.5 320.410697 -118.5 335.820697 -116.5 335.820697 L -106.5 336.820697 C -103.2 337.150697 -96.5 337.820697 -77.5 338.820697 C -71.23 339.150697 -58.5 339.820697 -40.5 340.820697 C -34.89 341.150697 -23.5 341.820697 -3.5 342.820697 C 3.1 343.150697 16.5 343.820697 26.5 345.820697 C 29.8 346.480697 36.5 347.820697 37.5 346.820697 L 40.5 346.820697 L 40.5 31.820697 C 40.5 -72.789303 40.5 -285.179303 41.5 -287.179303 C 42.82 -289.819303 45.5 -295.179303 53.5 -298.179303 C 60.43 -299.169303 74.5 -301.179303 102.5 -301.179303 L 118.5 -301.179303 L 118.5 -347.179303 L 110.5 -347.179303 L 87.5 -346.179303 C 79.91 -345.849303 64.5 -345.179303 38.5 -345.179303 C 29.92 -345.179303 12.5 -345.179303 0.5 -344.179303 C -3.46 -343.849303 -11.5 -343.179303 -37.5 -344.179303 C -46.08 -344.509303 -63.5 -345.179303 -87.5 -346.179303 L -110.5 -347.179303 L -118.5 -347.179303 L -118.5 -301.179303 L -102.5 -301.179303 Z " fill="rgb(0, 0, 0)" stroke="none" stroke-width="1" stroke-opacity="1" fill-opacity="1" visibility="visible" stroke-linecap="butt" stroke-linejoin="miter" stroke-miterlimit="4"></path><path transform="matrix(1 0 0 1 499.5 218.5)" id="two-26" d="M -193.5 -0.5 C -193.5 17.65 -193.5 54.5 -173.5 99.5 C -166.9 114.35 -153.5 144.5 -123.5 172.5 C -113.6 181.74 -93.5 200.5 -58.5 214.5 C -46.95 219.12 -23.5 228.5 7.5 229.5 C 24.99 229.5 60.5 229.5 98.5 211.5 C 111.04 205.56 136.5 193.5 156.5 161.5 C 163.1 150.94 176.5 129.5 184.5 97.5 C 187.14 86.94 192.5 65.5 193.5 26.5 C 193.5 24.19 193.5 19.5 186.5 12.5 L -95.5 12.5 L -95.5 -2.5 C -95.5 -51.34 -95.5 -150.5 4.5 -182.5 C 11.1 -184.48 24.5 -188.5 48.5 -188.5 C 62.36 -188.5 90.5 -188.5 120.5 -156.5 C 126.11 -150.89 137.5 -139.5 147.5 -114.5 L 157.5 -90.5 C 158.49 -89.51 160.5 -87.5 173.5 -87.5 L 176.5 -87.5 C 182.11 -87.5 193.5 -87.5 193.5 -97.5 C 193.5 -98.82 193.5 -101.5 190.5 -110.5 C 184.23 -128.65 171.5 -165.5 127.5 -197.5 C 112.98 -208.06 83.5 -229.5 28.5 -229.5 C -2.850001 -229.5 -66.5 -229.5 -129.5 -160.5 C -150.29 -137.73 -192.5 -91.5 -193.5 -0.5 Z M 111.5 56.5 C 107.87 98.74 100.5 184.5 16.5 192.5 L 14.5 192.5 C 11.86 192.5 6.5 192.5 -1.5 191.5 C -4.140001 191.17 -9.5 190.5 -26.5 183.5 C -32.11 181.19 -43.5 176.5 -55.5 162.5 C -59.46 157.88 -67.5 148.5 -78.5 121.5 C -82.13 112.59 -89.5 94.5 -94.5 55.5 L -94.5 48.5 L 111.5 48.5 L 111.5 56.5 Z " fill="rgb(0, 0, 0)" stroke="none" stroke-width="1" stroke-opacity="1" fill-opacity="1" visibility="visible" stroke-linecap="butt" stroke-linejoin="miter" stroke-miterlimit="4"></path><path transform="matrix(1 0 0 1 985.5 210)" id="two-27" d="M 74.5 221 C 76.48 220.34 80.5 219 158.5 219 C 177.31 219 215.5 219 239.5 221 L 244.5 221 L 244.5 175 L 233.5 175 C 214.36 173.68 175.5 171 159.5 135 C 158.84 133.68 157.5 131 92.5 -38 C 71.05 -93.770001 27.5 -207 24.5 -212 C 22.85 -214.97 19.5 -221 -0.5 -221 C -6.77 -221 -19.5 -221 -24.5 -212 C -70.7 -92.87 -164.5 149 -165.5 154 C -167.15 158.62 -170.5 168 -181.5 171 C -185.13 171.99 -192.5 174 -220.5 175 L -244.5 175 L -244.5 221 L -238.5 221 L -230.5 220 C -227.86 220 -222.5 220 -210.5 220 C -206.54 220 -198.5 220 -184.5 220 C -179.88 220 -170.5 220 -159.5 219 C -155.87 218.67 -148.5 218 -141.5 218 C -110.15 218 -46.5 218 -31.5 221 L -23.5 221 L -23.5 175 L -37.5 175 C -50.370001 174.67 -76.5 174 -79.5 160 C -79.5 158.68 -79.5 156 -28.5 24 L 22.5 -108 L 113.5 131 L 113.5 139 C 113.5 143.62 113.5 153 103.5 162 C 100.2 164.97 93.5 171 85.5 173 C 82.86 173.66 77.5 175 71.5 175 L 67.5 175 L 67.5 221 L 74.5 221 Z " fill="rgb(0, 0, 0)" stroke="none" stroke-width="1" stroke-opacity="1" fill-opacity="1" visibility="visible" stroke-linecap="butt" stroke-linejoin="miter" stroke-miterlimit="4"></path><path transform="matrix(1 0 0 1 1471.5 218.5)" id="two-28" d="M -193.5 -0.5 C -193.5 17.65 -193.5 54.5 -173.5 99.5 C -166.9 114.35 -153.5 144.5 -123.5 172.5 C -113.6 181.74 -93.5 200.5 -58.5 214.5 C -46.95 219.12 -23.5 228.5 7.5 229.5 C 24.99 229.5 60.5 229.5 98.5 211.5 C 111.04 205.56 136.5 193.5 156.5 161.5 C 163.1 150.94 176.5 129.5 184.5 97.5 C 187.14 86.94 192.5 65.5 193.5 26.5 C 193.5 24.19 193.5 19.5 186.5 12.5 L -95.5 12.5 L -95.5 -2.5 C -95.5 -51.34 -95.5 -150.5 4.5 -182.5 C 11.1 -184.48 24.5 -188.5 48.5 -188.5 C 62.36 -188.5 90.5 -188.5 120.5 -156.5 C 126.11 -150.89 137.5 -139.5 147.5 -114.5 L 157.5 -90.5 C 158.49 -89.51 160.5 -87.5 173.5 -87.5 L 176.5 -87.5 C 182.11 -87.5 193.5 -87.5 193.5 -97.5 C 193.5 -98.82 193.5 -101.5 190.5 -110.5 C 184.23 -128.65 171.5 -165.5 127.5 -197.5 C 112.98 -208.06 83.5 -229.5 28.5 -229.5 C -2.850001 -229.5 -66.5 -229.5 -129.5 -160.5 C -150.29 -137.73 -192.5 -91.5 -193.5 -0.5 Z M 111.5 56.5 C 107.87 98.74 100.5 184.5 16.5 192.5 L 14.5 192.5 C 11.86 192.5 6.5 192.5 -1.5 191.5 C -4.140001 191.17 -9.5 190.5 -26.5 183.5 C -32.11 181.19 -43.5 176.5 -55.5 162.5 C -59.46 157.88 -67.5 148.5 -78.5 121.5 C -82.13 112.59 -89.5 94.5 -94.5 55.5 L -94.5 48.5 L 111.5 48.5 L 111.5 56.5 Z " fill="rgb(0, 0, 0)" stroke="none" stroke-width="1" stroke-opacity="1" fill-opacity="1" visibility="visible" stroke-linecap="butt" stroke-linejoin="miter" stroke-miterlimit="4"></path><path transform="matrix(1 0 0 1 1838.5 347.17929)" id="two-29" d="M -102.5 -301.179303 L -88.5 -301.179303 C -75.63 -301.179303 -49.5 -301.179303 -41.5 -287.179303 L -41.5 -279.179303 C -41.5 -276.209303 -41.5 -270.179303 -41.5 -256.179303 C -41.5 -251.559303 -41.5 -242.179303 -41.5 -223.179303 C -41.5 -216.909303 -41.5 -204.179303 -40.5 -180.179303 C -40.17 -172.259303 -39.5 -156.179303 -40.5 -130.179303 C -40.83 -121.599303 -41.5 -104.179303 -40.5 -75.179303 C -40.17 -65.609303 -39.5 -46.179303 -40.5 -18.179303 C -40.5 -5.969303 -40.5 18.820697 -40.5 59.820697 C -40.5 73.350697 -40.5 100.820697 -40.5 134.820697 C -40.5 146.040697 -40.5 168.820697 -40.5 194.820697 C -40.5 203.400697 -40.5 220.820697 -41.5 238.820697 C -41.83 244.760697 -42.5 256.820697 -41.5 255.820697 C -42.49 262.090697 -44.5 274.820697 -55.5 280.820697 C -59.13 282.800697 -66.5 286.820697 -100.5 289.820697 L -118.5 289.820697 L -118.5 312.820697 C -118.5 320.410697 -118.5 335.820697 -116.5 335.820697 L -106.5 336.820697 C -103.2 337.150697 -96.5 337.820697 -77.5 338.820697 C -71.23 339.150697 -58.5 339.820697 -40.5 340.820697 C -34.89 341.150697 -23.5 341.820697 -3.5 342.820697 C 3.1 343.150697 16.5 343.820697 26.5 345.820697 C 29.8 346.480697 36.5 347.820697 37.5 346.820697 L 40.5 346.820697 L 40.5 31.820697 C 40.5 -72.789303 40.5 -285.179303 41.5 -287.179303 C 42.82 -289.819303 45.5 -295.179303 53.5 -298.179303 C 60.43 -299.169303 74.5 -301.179303 102.5 -301.179303 L 118.5 -301.179303 L 118.5 -347.179303 L 110.5 -347.179303 L 87.5 -346.179303 C 79.91 -345.849303 64.5 -345.179303 38.5 -345.179303 C 29.92 -345.179303 12.5 -345.179303 0.5 -344.179303 C -3.46 -343.849303 -11.5 -343.179303 -37.5 -344.179303 C -46.08 -344.509303 -63.5 -345.179303 -87.5 -346.179303 L -110.5 -347.179303 L -118.5 -347.179303 L -118.5 -301.179303 L -102.5 -301.179303 Z " fill="rgb(0, 0, 0)" stroke="none" stroke-width="1" stroke-opacity="1" fill-opacity="1" visibility="visible" stroke-linecap="butt" stroke-linejoin="miter" stroke-miterlimit="4"></path><path transform="matrix(NaN NaN NaN NaN NaN NaN)" id="two-30" d="" fill="rgb(0, 0, 0)" stroke="none" stroke-width="1" stroke-opacity="1" fill-opacity="1" visibility="visible" stroke-linecap="butt" stroke-linejoin="miter" stroke-miterlimit="4"></path></g><g id="two-31" transform="matrix(1 0 0 1 2222 0)" opacity="1" data-mml-node="mi"><path transform="matrix(1 0 0 1 300.5 215.529281)" id="two-32" d="M -279.5 71.470724 C -279.17 73.450724 -278.5 77.470724 -276.5 87.470724 C -275.84 90.770724 -274.5 97.470724 -264.5 125.470724 C -261.2 134.710724 -254.5 153.470724 -244.5 172.470724 C -241.2 178.740724 -234.5 191.470724 -211.5 209.470724 C -203.91 215.410724 -188.5 227.470724 -165.5 226.470724 C -153.62 226.470724 -129.5 226.470724 -105.5 208.470724 C -97.58 202.530724 -81.5 190.470724 -75.5 174.470724 C -73.52 169.190724 -69.5 158.470724 -69.5 153.470724 C -69.5 152.810724 -69.5 151.470724 -68.5 151.470724 L -57.5 162.470724 C -37.37 183.590724 3.5 226.470724 81.5 226.470724 C 99.32 226.470724 135.5 226.470724 168.5 199.470724 C 179.39 190.560724 201.5 172.470724 202.5 120.470724 C 202.83 103.310724 203.5 68.470724 164.5 -36.529276 C 151.63 -71.179276 125.5 -141.529276 126.5 -163.529276 C 126.5 -172.109276 126.5 -189.529276 143.5 -189.529276 C 145.48 -189.529276 149.5 -189.529276 152.5 -188.529276 C 162.07 -186.879276 181.5 -183.529276 204.5 -150.529276 C 212.09 -139.639276 227.5 -117.529276 239.5 -70.529276 C 240.16 -67.889276 241.5 -62.529276 259.5 -62.529276 C 266.1 -62.529276 279.5 -62.529276 279.5 -70.529276 C 279.5 -70.859276 279.5 -71.529276 275.5 -85.529276 C 272.86 -95.099276 267.5 -114.529276 253.5 -142.529276 C 248.88 -151.769276 239.5 -170.529276 207.5 -198.529276 C 196.94 -207.769276 175.5 -226.529276 138.5 -225.529276 C 122.99 -225.529276 91.5 -225.529276 70.5 -198.529276 C 63.57 -189.619276 49.5 -171.529276 49.5 -142.529276 C 49.5 -136.259276 49.5 -123.529276 85.5 -22.529276 C 97.38 10.800724 121.5 78.470724 122.5 129.470724 C 122.5 148.940724 122.5 188.470724 78.5 188.470724 L 73.5 188.470724 C 45.12 188.470724 -12.5 188.470724 -71.5 87.470724 L -78.5 75.470724 L -111.5 -58.529276 C -122.39 -101.759276 -144.5 -189.529276 -149.5 -199.529276 C -153.79 -208.439276 -162.5 -226.529276 -192.5 -226.529276 C -196.79 -226.529276 -205.5 -226.529276 -213.5 -220.529276 C -216.14 -218.549276 -221.5 -214.529276 -224.5 -208.529276 C -225.49 -206.549276 -227.5 -202.529276 -226.5 -198.529276 C -226.5 -194.239276 -226.5 -185.529276 -188.5 -35.529276 C -175.96 13.970724 -150.5 114.470724 -148.5 127.470724 C -148.17 129.120724 -147.5 132.470724 -147.5 150.470724 C -147.5 163.340724 -147.5 189.470724 -171.5 189.470724 C -184.04 189.470724 -209.5 189.470724 -234.5 89.470724 C -236.48 82.870724 -240.5 69.470724 -240.5 68.470724 C -241.16 66.490724 -242.5 62.470724 -259.5 62.470724 L -273.5 62.470724 C -275.48 64.450724 -279.5 68.470724 -279.5 71.470724 C -279.5 71.470724 -279.5 71.470724 -279.5 71.470724 Z " fill="rgb(0, 0, 0)" stroke="none" stroke-width="1" stroke-opacity="1" fill-opacity="1" visibility="visible" stroke-linecap="butt" stroke-linejoin="miter" stroke-miterlimit="4"></path></g></g></g></g><g id="two-34" transform="matrix(0.025 0 0 -0.025001 25 185)" opacity="1" clip-path="url(#two-39)"><g id="two-35" transform="matrix(1 0 0 1 0 0)" opacity="1"><g id="two-36" transform="matrix(1 0 0 1 0 0)" opacity="1" data-mml-node="math"><g id="two-37" transform="matrix(1 0 0 1 0 0)" opacity="1" data-mml-node="mi"><path transform="matrix(1 0 0 1 231 341.5)" id="two-38" d="M -158 305.5 C -158 308.8 -158 315.5 -154 328.5 C -152.68 332.79 -150 341.5 -142 341.5 C -141.67 341.5 -141 341.5 -70 346.5 C -46.57 348.15 1 351.5 3 352.5 C 6.96 352.5 15 352.5 15 343.5 C 15 340.53 15 334.5 -19 200.5 C -21.64 189.28 -27 166.5 -36 130.5 C -38.97 118.62 -45 94.5 -51 76.5 L -55 57.5 C -55 56.51 -55 54.5 -49 60.5 C -32.83 73.7 0 100.5 52 100.5 C 72.46 100.5 114 100.5 152 54.5 C 164.54 39.32 190 8.5 191 -61.5 C 191 -98.13 191 -172.5 112 -262.5 C 85.93 -292.2 33 -352.5 -58 -352.5 C -74.5 -352.5 -108 -352.5 -149 -314.5 C -162.53 -301.96 -190 -276.5 -191 -191.5 L -191 -182.5 C -191 -175.57 -191 -161.5 -183 -124.5 C -180.36 -112.29 -175 -87.5 -134 72.5 C -117.5 137.51 -84 269.5 -84 281.5 C -84 285.46 -84 293.5 -122 295.5 C -123.65 295.5 -127 295.5 -130 295.5 L -135 295.5 C -138.3 295.5 -145 295.5 -148 295.5 C -148.99 295.5 -151 295.5 -155 298.5 C -156.32 299.49 -159 301.5 -158 305.5 Z M 105 -16.5 L 105 -10.5 C 105 13.92 105 63.5 44 63.5 C 38.39 63.5 27 63.5 9 55.5 C 3.059999 52.86 -9 47.5 -24 34.5 C -28.95 30.21 -39 21.5 -50 10.5 C -53.63 6.869999 -61 -0.5 -68 -11.5 L -74 -19.5 L -95 -105.5 C -102.26 -133.88 -117 -191.5 -117 -227.5 C -117 -243.34 -117 -275.5 -93 -299.5 C -87.72 -304.78 -77 -315.5 -53 -315.5 C -42.11 -315.5 -20 -315.5 14 -283.5 C 22.25 -275.91 39 -260.5 54 -227.5 C 58.95 -216.61 69 -194.5 87 -122.5 C 92.94 -98.74 105 -50.5 105 -16.5 C 105 -16.5 105 -16.5 105 -16.5 Z " fill="rgb(0, 0, 0)" stroke="none" stroke-width="1" stroke-opacity="1" fill-opacity="1" visibility="visible" stroke-linecap="butt" stroke-linejoin="miter" stroke-miterlimit="4"></path></g></g></g></g><g id="two-40" transform="matrix(0.025 0 0 -0.025001 175 330)" opacity="1" clip-path="url(#two-45)"><g id="two-41" transform="matrix(1 0 0 1 0 0)" opacity="1"><g id="two-42" transform="matrix(1 0 0 1 0 0)" opacity="1" data-mml-node="math"><g id="two-43" transform="matrix(1 0 0 1 0 0)" opacity="1" data-mml-node="mi"><path transform="matrix(1 0 0 1 269.5 215.5)" id="two-44" d="M -236.5 -58.5 C -236.5 -25.17 -236.5 42.5 -160.5 133.5 C -135.42 163.53 -84.5 224.5 10.5 225.5 C 27.33 225.5 61.5 225.5 100.5 176.5 C 105.78 186.4 116.5 206.5 146.5 206.5 C 150.79 206.5 159.5 206.5 169.5 198.5 C 172.8 195.86 179.5 190.5 179.5 178.5 C 179.5 174.21 179.5 165.5 142.5 18.5 C 130.289999 -30.010001 105.5 -128.5 104.5 -147.5 C 104.5 -155.75 104.5 -172.5 111.5 -180.5 C 113.81 -183.14 118.5 -188.5 132.5 -189.5 C 135.47 -189.17 141.5 -188.5 152.5 -180.5 C 159.43 -173.9 173.5 -160.5 193.5 -84.5 C 195.48 -77.9 199.5 -64.5 203.5 -63.5 C 204.16 -63.17 205.5 -62.5 213.5 -62.5 L 217.5 -62.5 C 223.77 -62.5 236.5 -62.5 236.5 -71.5 C 236.5 -73.48 236.5 -77.5 231.5 -98.5 C 229.85 -105.43 226.5 -119.5 211.5 -152.5 C 206.55 -163.39 196.5 -185.5 179.5 -202.5 C 175.21 -206.79 166.5 -215.5 147.5 -223.5 C 144.86 -224.16 139.5 -225.5 123.5 -225.5 C 112.28 -225.5 89.5 -225.5 66.5 -210.5 C 58.91 -205.55 43.5 -195.5 36.5 -179.5 L 30.5 -164.5 C 30.17 -164.17 29.5 -163.5 26.5 -165.5 C 25.84 -166.16 24.5 -167.5 22.5 -169.5 C 3.029999 -187.98 -36.5 -225.5 -97.5 -225.5 C -115.65 -225.5 -152.5 -225.5 -194.5 -185.5 C -208.36 -172.3 -236.5 -145.5 -236.5 -58.5 Z M 81.5 112.5 C 81.5 114.48 81.5 118.5 76.5 134.5 C 74.85 139.78 71.5 150.5 53.5 169.5 C 47.56 175.77 35.5 188.5 7.5 189.5 C -4.050001 189.5 -27.5 189.5 -59.5 158.5 C -70.06 148.27 -91.5 127.5 -109.5 77.5 C -119.07 51.43 -138.5 -1.5 -150.5 -86.5 C -150.5 -87.49 -150.5 -89.5 -150.5 -97.5 C -150.5 -100.14 -150.5 -105.5 -151.5 -109.5 C -151.5 -124.35 -151.5 -154.5 -133.5 -171.5 C -127.56 -177.11 -115.5 -188.5 -90.5 -189.5 C -77.96 -189.5 -52.5 -189.5 -15.5 -156.5 C -3.29 -145.61 21.5 -123.5 28.5 -105.5 C 29.16 -104.18 30.5 -101.5 55.5 1.5 C 63.75 35.49 80.5 104.5 81.5 112.5 C 81.5 112.5 81.5 112.5 81.5 112.5 Z " fill="rgb(0, 0, 0)" stroke="none" stroke-width="1" stroke-opacity="1" fill-opacity="1" visibility="visible" stroke-linecap="butt" stroke-linejoin="miter" stroke-miterlimit="4"></path></g></g></g></g><g id="two-46" transform="matrix(0.025 0 0 -0.025001 445 55)" opacity="1" clip-path="url(#two-62)"><g id="two-47" transform="matrix(1 0 0 1 0 0)" opacity="1"><g id="two-48" transform="matrix(1 0 0 1 0 0)" opacity="1" data-mml-node="math"><g id="two-49" transform="matrix(1 0 0 1 0 0)" opacity="1" data-mml-node="mtext"><path transform="matrix(1 0 0 1 144.5 347.17929)" id="two-50" d="M -102.5 -301.179303 L -88.5 -301.179303 C -75.63 -301.179303 -49.5 -301.179303 -41.5 -287.179303 L -41.5 -279.179303 C -41.5 -276.209303 -41.5 -270.179303 -41.5 -256.179303 C -41.5 -251.559303 -41.5 -242.179303 -41.5 -223.179303 C -41.5 -216.909303 -41.5 -204.179303 -40.5 -180.179303 C -40.17 -172.259303 -39.5 -156.179303 -40.5 -130.179303 C -40.83 -121.599303 -41.5 -104.179303 -40.5 -75.179303 C -40.17 -65.609303 -39.5 -46.179303 -40.5 -18.179303 C -40.5 -5.969303 -40.5 18.820697 -40.5 59.820697 C -40.5 73.350697 -40.5 100.820697 -40.5 134.820697 C -40.5 146.040697 -40.5 168.820697 -40.5 194.820697 C -40.5 203.400697 -40.5 220.820697 -41.5 238.820697 C -41.83 244.760697 -42.5 256.820697 -41.5 255.820697 C -42.49 262.090697 -44.5 274.820697 -55.5 280.820697 C -59.13 282.800697 -66.5 286.820697 -100.5 289.820697 L -118.5 289.820697 L -118.5 312.820697 C -118.5 320.410697 -118.5 335.820697 -116.5 335.820697 L -106.5 336.820697 C -103.2 337.150697 -96.5 337.820697 -77.5 338.820697 C -71.23 339.150697 -58.5 339.820697 -40.5 340.820697 C -34.89 341.150697 -23.5 341.820697 -3.5 342.820697 C 3.1 343.150697 16.5 343.820697 26.5 345.820697 C 29.8 346.480697 36.5 347.820697 37.5 346.820697 L 40.5 346.820697 L 40.5 31.820697 C 40.5 -72.789303 40.5 -285.179303 41.5 -287.179303 C 42.82 -289.819303 45.5 -295.179303 53.5 -298.179303 C 60.43 -299.169303 74.5 -301.179303 102.5 -301.179303 L 118.5 -301.179303 L 118.5 -347.179303 L 110.5 -347.179303 L 87.5 -346.179303 C 79.91 -345.849303 64.5 -345.179303 38.5 -345.179303 C 29.92 -345.179303 12.5 -345.179303 0.5 -344.179303 C -3.46 -343.849303 -11.5 -343.179303 -37.5 -344.179303 C -46.08 -344.509303 -63.5 -345.179303 -87.5 -346.179303 L -110.5 -347.179303 L -118.5 -347.179303 L -118.5 -301.179303 L -102.5 -301.179303 Z " fill="rgb(0, 0, 0)" stroke="none" stroke-width="1" stroke-opacity="1" fill-opacity="1" visibility="visible" stroke-linecap="butt" stroke-linejoin="miter" stroke-miterlimit="4"></path><path transform="matrix(1 0 0 1 499.5 218.5)" id="two-51" d="M -193.5 -0.5 C -193.5 17.65 -193.5 54.5 -173.5 99.5 C -166.9 114.35 -153.5 144.5 -123.5 172.5 C -113.6 181.74 -93.5 200.5 -58.5 214.5 C -46.95 219.12 -23.5 228.5 7.5 229.5 C 24.99 229.5 60.5 229.5 98.5 211.5 C 111.04 205.56 136.5 193.5 156.5 161.5 C 163.1 150.94 176.5 129.5 184.5 97.5 C 187.14 86.94 192.5 65.5 193.5 26.5 C 193.5 24.19 193.5 19.5 186.5 12.5 L -95.5 12.5 L -95.5 -2.5 C -95.5 -51.34 -95.5 -150.5 4.5 -182.5 C 11.1 -184.48 24.5 -188.5 48.5 -188.5 C 62.36 -188.5 90.5 -188.5 120.5 -156.5 C 126.11 -150.89 137.5 -139.5 147.5 -114.5 L 157.5 -90.5 C 158.49 -89.51 160.5 -87.5 173.5 -87.5 L 176.5 -87.5 C 182.11 -87.5 193.5 -87.5 193.5 -97.5 C 193.5 -98.82 193.5 -101.5 190.5 -110.5 C 184.23 -128.65 171.5 -165.5 127.5 -197.5 C 112.98 -208.06 83.5 -229.5 28.5 -229.5 C -2.850001 -229.5 -66.5 -229.5 -129.5 -160.5 C -150.29 -137.73 -192.5 -91.5 -193.5 -0.5 Z M 111.5 56.5 C 107.87 98.74 100.5 184.5 16.5 192.5 L 14.5 192.5 C 11.86 192.5 6.5 192.5 -1.5 191.5 C -4.140001 191.17 -9.5 190.5 -26.5 183.5 C -32.11 181.19 -43.5 176.5 -55.5 162.5 C -59.46 157.88 -67.5 148.5 -78.5 121.5 C -82.13 112.59 -89.5 94.5 -94.5 55.5 L -94.5 48.5 L 111.5 48.5 L 111.5 56.5 Z " fill="rgb(0, 0, 0)" stroke="none" stroke-width="1" stroke-opacity="1" fill-opacity="1" visibility="visible" stroke-linecap="butt" stroke-linejoin="miter" stroke-miterlimit="4"></path><path transform="matrix(1 0 0 1 985.5 210)" id="two-52" d="M 74.5 221 C 76.48 220.34 80.5 219 158.5 219 C 177.31 219 215.5 219 239.5 221 L 244.5 221 L 244.5 175 L 233.5 175 C 214.36 173.68 175.5 171 159.5 135 C 158.84 133.68 157.5 131 92.5 -38 C 71.05 -93.770001 27.5 -207 24.5 -212 C 22.85 -214.97 19.5 -221 -0.5 -221 C -6.77 -221 -19.5 -221 -24.5 -212 C -70.7 -92.87 -164.5 149 -165.5 154 C -167.15 158.62 -170.5 168 -181.5 171 C -185.13 171.99 -192.5 174 -220.5 175 L -244.5 175 L -244.5 221 L -238.5 221 L -230.5 220 C -227.86 220 -222.5 220 -210.5 220 C -206.54 220 -198.5 220 -184.5 220 C -179.88 220 -170.5 220 -159.5 219 C -155.87 218.67 -148.5 218 -141.5 218 C -110.15 218 -46.5 218 -31.5 221 L -23.5 221 L -23.5 175 L -37.5 175 C -50.370001 174.67 -76.5 174 -79.5 160 C -79.5 158.68 -79.5 156 -28.5 24 L 22.5 -108 L 113.5 131 L 113.5 139 C 113.5 143.62 113.5 153 103.5 162 C 100.2 164.97 93.5 171 85.5 173 C 82.86 173.66 77.5 175 71.5 175 L 67.5 175 L 67.5 221 L 74.5 221 Z " fill="rgb(0, 0, 0)" stroke="none" stroke-width="1" stroke-opacity="1" fill-opacity="1" visibility="visible" stroke-linecap="butt" stroke-linejoin="miter" stroke-miterlimit="4"></path><path transform="matrix(1 0 0 1 1471.5 218.5)" id="two-53" d="M -193.5 -0.5 C -193.5 17.65 -193.5 54.5 -173.5 99.5 C -166.9 114.35 -153.5 144.5 -123.5 172.5 C -113.6 181.74 -93.5 200.5 -58.5 214.5 C -46.95 219.12 -23.5 228.5 7.5 229.5 C 24.99 229.5 60.5 229.5 98.5 211.5 C 111.04 205.56 136.5 193.5 156.5 161.5 C 163.1 150.94 176.5 129.5 184.5 97.5 C 187.14 86.94 192.5 65.5 193.5 26.5 C 193.5 24.19 193.5 19.5 186.5 12.5 L -95.5 12.5 L -95.5 -2.5 C -95.5 -51.34 -95.5 -150.5 4.5 -182.5 C 11.1 -184.48 24.5 -188.5 48.5 -188.5 C 62.36 -188.5 90.5 -188.5 120.5 -156.5 C 126.11 -150.89 137.5 -139.5 147.5 -114.5 L 157.5 -90.5 C 158.49 -89.51 160.5 -87.5 173.5 -87.5 L 176.5 -87.5 C 182.11 -87.5 193.5 -87.5 193.5 -97.5 C 193.5 -98.82 193.5 -101.5 190.5 -110.5 C 184.23 -128.65 171.5 -165.5 127.5 -197.5 C 112.98 -208.06 83.5 -229.5 28.5 -229.5 C -2.850001 -229.5 -66.5 -229.5 -129.5 -160.5 C -150.29 -137.73 -192.5 -91.5 -193.5 -0.5 Z M 111.5 56.5 C 107.87 98.74 100.5 184.5 16.5 192.5 L 14.5 192.5 C 11.86 192.5 6.5 192.5 -1.5 191.5 C -4.140001 191.17 -9.5 190.5 -26.5 183.5 C -32.11 181.19 -43.5 176.5 -55.5 162.5 C -59.46 157.88 -67.5 148.5 -78.5 121.5 C -82.13 112.59 -89.5 94.5 -94.5 55.5 L -94.5 48.5 L 111.5 48.5 L 111.5 56.5 Z " fill="rgb(0, 0, 0)" stroke="none" stroke-width="1" stroke-opacity="1" fill-opacity="1" visibility="visible" stroke-linecap="butt" stroke-linejoin="miter" stroke-miterlimit="4"></path><path transform="matrix(1 0 0 1 1838.5 347.17929)" id="two-54" d="M -102.5 -301.179303 L -88.5 -301.179303 C -75.63 -301.179303 -49.5 -301.179303 -41.5 -287.179303 L -41.5 -279.179303 C -41.5 -276.209303 -41.5 -270.179303 -41.5 -256.179303 C -41.5 -251.559303 -41.5 -242.179303 -41.5 -223.179303 C -41.5 -216.909303 -41.5 -204.179303 -40.5 -180.179303 C -40.17 -172.259303 -39.5 -156.179303 -40.5 -130.179303 C -40.83 -121.599303 -41.5 -104.179303 -40.5 -75.179303 C -40.17 -65.609303 -39.5 -46.179303 -40.5 -18.179303 C -40.5 -5.969303 -40.5 18.820697 -40.5 59.820697 C -40.5 73.350697 -40.5 100.820697 -40.5 134.820697 C -40.5 146.040697 -40.5 168.820697 -40.5 194.820697 C -40.5 203.400697 -40.5 220.820697 -41.5 238.820697 C -41.83 244.760697 -42.5 256.820697 -41.5 255.820697 C -42.49 262.090697 -44.5 274.820697 -55.5 280.820697 C -59.13 282.800697 -66.5 286.820697 -100.5 289.820697 L -118.5 289.820697 L -118.5 312.820697 C -118.5 320.410697 -118.5 335.820697 -116.5 335.820697 L -106.5 336.820697 C -103.2 337.150697 -96.5 337.820697 -77.5 338.820697 C -71.23 339.150697 -58.5 339.820697 -40.5 340.820697 C -34.89 341.150697 -23.5 341.820697 -3.5 342.820697 C 3.1 343.150697 16.5 343.820697 26.5 345.820697 C 29.8 346.480697 36.5 347.820697 37.5 346.820697 L 40.5 346.820697 L 40.5 31.820697 C 40.5 -72.789303 40.5 -285.179303 41.5 -287.179303 C 42.82 -289.819303 45.5 -295.179303 53.5 -298.179303 C 60.43 -299.169303 74.5 -301.179303 102.5 -301.179303 L 118.5 -301.179303 L 118.5 -347.179303 L 110.5 -347.179303 L 87.5 -346.179303 C 79.91 -345.849303 64.5 -345.179303 38.5 -345.179303 C 29.92 -345.179303 12.5 -345.179303 0.5 -344.179303 C -3.46 -343.849303 -11.5 -343.179303 -37.5 -344.179303 C -46.08 -344.509303 -63.5 -345.179303 -87.5 -346.179303 L -110.5 -347.179303 L -118.5 -347.179303 L -118.5 -301.179303 L -102.5 -301.179303 Z " fill="rgb(0, 0, 0)" stroke="none" stroke-width="1" stroke-opacity="1" fill-opacity="1" visibility="visible" stroke-linecap="butt" stroke-linejoin="miter" stroke-miterlimit="4"></path><path transform="matrix(NaN NaN NaN NaN NaN NaN)" id="two-55" d="" fill="rgb(0, 0, 0)" stroke="none" stroke-width="1" stroke-opacity="1" fill-opacity="1" visibility="visible" stroke-linecap="butt" stroke-linejoin="miter" stroke-miterlimit="4"></path></g><g id="two-56" transform="matrix(1 0 0 1 2222 0)" opacity="1" data-mml-node="mi"><path transform="matrix(1 0 0 1 300.5 215.529281)" id="two-57" d="M -279.5 71.470724 C -279.17 73.450724 -278.5 77.470724 -276.5 87.470724 C -275.84 90.770724 -274.5 97.470724 -264.5 125.470724 C -261.2 134.710724 -254.5 153.470724 -244.5 172.470724 C -241.2 178.740724 -234.5 191.470724 -211.5 209.470724 C -203.91 215.410724 -188.5 227.470724 -165.5 226.470724 C -153.62 226.470724 -129.5 226.470724 -105.5 208.470724 C -97.58 202.530724 -81.5 190.470724 -75.5 174.470724 C -73.52 169.190724 -69.5 158.470724 -69.5 153.470724 C -69.5 152.810724 -69.5 151.470724 -68.5 151.470724 L -57.5 162.470724 C -37.37 183.590724 3.5 226.470724 81.5 226.470724 C 99.32 226.470724 135.5 226.470724 168.5 199.470724 C 179.39 190.560724 201.5 172.470724 202.5 120.470724 C 202.83 103.310724 203.5 68.470724 164.5 -36.529276 C 151.63 -71.179276 125.5 -141.529276 126.5 -163.529276 C 126.5 -172.109276 126.5 -189.529276 143.5 -189.529276 C 145.48 -189.529276 149.5 -189.529276 152.5 -188.529276 C 162.07 -186.879276 181.5 -183.529276 204.5 -150.529276 C 212.09 -139.639276 227.5 -117.529276 239.5 -70.529276 C 240.16 -67.889276 241.5 -62.529276 259.5 -62.529276 C 266.1 -62.529276 279.5 -62.529276 279.5 -70.529276 C 279.5 -70.859276 279.5 -71.529276 275.5 -85.529276 C 272.86 -95.099276 267.5 -114.529276 253.5 -142.529276 C 248.88 -151.769276 239.5 -170.529276 207.5 -198.529276 C 196.94 -207.769276 175.5 -226.529276 138.5 -225.529276 C 122.99 -225.529276 91.5 -225.529276 70.5 -198.529276 C 63.57 -189.619276 49.5 -171.529276 49.5 -142.529276 C 49.5 -136.259276 49.5 -123.529276 85.5 -22.529276 C 97.38 10.800724 121.5 78.470724 122.5 129.470724 C 122.5 148.940724 122.5 188.470724 78.5 188.470724 L 73.5 188.470724 C 45.12 188.470724 -12.5 188.470724 -71.5 87.470724 L -78.5 75.470724 L -111.5 -58.529276 C -122.39 -101.759276 -144.5 -189.529276 -149.5 -199.529276 C -153.79 -208.439276 -162.5 -226.529276 -192.5 -226.529276 C -196.79 -226.529276 -205.5 -226.529276 -213.5 -220.529276 C -216.14 -218.549276 -221.5 -214.529276 -224.5 -208.529276 C -225.49 -206.549276 -227.5 -202.529276 -226.5 -198.529276 C -226.5 -194.239276 -226.5 -185.529276 -188.5 -35.529276 C -175.96 13.970724 -150.5 114.470724 -148.5 127.470724 C -148.17 129.120724 -147.5 132.470724 -147.5 150.470724 C -147.5 163.340724 -147.5 189.470724 -171.5 189.470724 C -184.04 189.470724 -209.5 189.470724 -234.5 89.470724 C -236.48 82.870724 -240.5 69.470724 -240.5 68.470724 C -241.16 66.490724 -242.5 62.470724 -259.5 62.470724 L -273.5 62.470724 C -275.48 64.450724 -279.5 68.470724 -279.5 71.470724 C -279.5 71.470724 -279.5 71.470724 -279.5 71.470724 Z " fill="rgb(0, 0, 0)" stroke="none" stroke-width="1" stroke-opacity="1" fill-opacity="1" visibility="visible" stroke-linecap="butt" stroke-linejoin="miter" stroke-miterlimit="4"></path></g><g id="two-58" transform="matrix(1 0 0 1 3044.199951 0)" opacity="1" data-mml-node="mo"><path transform="matrix(1 0 0 1 389 250.5)" id="two-59" d="M -333 -13.5 C -333 -13.5 -333 -13.5 -333 -0.5 C -333 3.79 -333 12.5 -319 19.5 L -20 19.5 L -20 169.5 L -19 319.5 C -15.7 323.79 -9 332.5 0 332.5 C 4.29 332.5 13 332.5 20 317.5 L 20 19.5 L 318 19.5 C 322.95 16.86 333 11.5 333 -0.5 C 333 -4.46 333 -12.5 318 -20.5 L 20 -20.5 L 20 -318.5 C 17.36 -323.12 12 -332.5 2 -332.5 L 0 -332.5 L -2 -332.5 C -5.96 -332.5 -14 -332.5 -20 -318.5 L -20 -20.5 L -319 -20.5 C -323.62 -18.19 -333 -13.5 -333 -0.5 C -333 -0.5 -333 -13.5 -333 -13.5 Z " fill="rgb(0, 0, 0)" stroke="none" stroke-width="1" stroke-opacity="1" fill-opacity="1" visibility="visible" stroke-linecap="butt" stroke-linejoin="miter" stroke-miterlimit="4"></path></g><g id="two-60" transform="matrix(1 0 0 1 4044.399902 0)" opacity="1" data-mml-node="mn"><path transform="matrix(1 0 0 1 255 333)" id="two-61" d="M -42 245 L -55 240 C -59.62 238.35 -69 235 -95 230 C -103.58 228.35 -121 225 -153 223 L -172 223 L -172 269 L -153 269 C -137.49 269.66 -106 271 -66 284 C -52.8 288.29 -26 297 -10 308 C -4.72 311.63 6 319 18 330 C 18.66 330.99 20 333 30 333 C 32.97 333 39 333 47 327 L 47 28 L 48 -272 C 50.31 -274.31 55 -279 60 -281 C 61.65 -281.66 65 -283 84 -285 C 90.27 -285.66 103 -287 146 -287 L 172 -287 L 172 -333 L 161 -333 C 154.07 -332.01 140 -330 2 -330 C -42.88 -330 -134 -330 -155 -333 L -167 -333 L -167 -287 L -141 -287 C -133.740001 -287 -119 -287 -103 -287 C -97.72 -287 -87 -287 -78 -286 C -75.03 -285.67 -69 -285 -62 -283 C -59.69 -282.34 -55 -281 -54 -281 C -53.67 -281 -53 -281 -48 -276 C -46.35 -274.35 -43 -271 -42 -272 L -42 245 Z " fill="rgb(0, 0, 0)" stroke="none" stroke-width="1" stroke-opacity="1" fill-opacity="1" visibility="visible" stroke-linecap="butt" stroke-linejoin="miter" stroke-miterlimit="4"></path></g></g></g></g><g id="two-63" transform="matrix(0.025 0 0 -0.025001 325 235)" opacity="1" clip-path="url(#two-73)"><g id="two-64" transform="matrix(1 0 0 1 0 0)" opacity="1"><g id="two-65" transform="matrix(1 0 0 1 0 0)" opacity="1" data-mml-node="math"><g id="two-66" transform="matrix(1 0 0 1 0 0)" opacity="1" data-mml-node="mi"><path transform="matrix(1 0 0 1 231 341.5)" id="two-67" d="M -158 305.5 C -158 308.8 -158 315.5 -154 328.5 C -152.68 332.79 -150 341.5 -142 341.5 C -141.67 341.5 -141 341.5 -70 346.5 C -46.57 348.15 1 351.5 3 352.5 C 6.96 352.5 15 352.5 15 343.5 C 15 340.53 15 334.5 -19 200.5 C -21.64 189.28 -27 166.5 -36 130.5 C -38.97 118.62 -45 94.5 -51 76.5 L -55 57.5 C -55 56.51 -55 54.5 -49 60.5 C -32.83 73.7 0 100.5 52 100.5 C 72.46 100.5 114 100.5 152 54.5 C 164.54 39.32 190 8.5 191 -61.5 C 191 -98.13 191 -172.5 112 -262.5 C 85.93 -292.2 33 -352.5 -58 -352.5 C -74.5 -352.5 -108 -352.5 -149 -314.5 C -162.53 -301.96 -190 -276.5 -191 -191.5 L -191 -182.5 C -191 -175.57 -191 -161.5 -183 -124.5 C -180.36 -112.29 -175 -87.5 -134 72.5 C -117.5 137.51 -84 269.5 -84 281.5 C -84 285.46 -84 293.5 -122 295.5 C -123.65 295.5 -127 295.5 -130 295.5 L -135 295.5 C -138.3 295.5 -145 295.5 -148 295.5 C -148.99 295.5 -151 295.5 -155 298.5 C -156.32 299.49 -159 301.5 -158 305.5 Z M 105 -16.5 L 105 -10.5 C 105 13.92 105 63.5 44 63.5 C 38.39 63.5 27 63.5 9 55.5 C 3.059999 52.86 -9 47.5 -24 34.5 C -28.95 30.21 -39 21.5 -50 10.5 C -53.63 6.869999 -61 -0.5 -68 -11.5 L -74 -19.5 L -95 -105.5 C -102.26 -133.88 -117 -191.5 -117 -227.5 C -117 -243.34 -117 -275.5 -93 -299.5 C -87.72 -304.78 -77 -315.5 -53 -315.5 C -42.11 -315.5 -20 -315.5 14 -283.5 C 22.25 -275.91 39 -260.5 54 -227.5 C 58.95 -216.61 69 -194.5 87 -122.5 C 92.94 -98.74 105 -50.5 105 -16.5 C 105 -16.5 105 -16.5 105 -16.5 Z " fill="rgb(0, 0, 0)" stroke="none" stroke-width="1" stroke-opacity="1" fill-opacity="1" visibility="visible" stroke-linecap="butt" stroke-linejoin="miter" stroke-miterlimit="4"></path></g><g id="two-68" transform="matrix(1 0 0 1 429 0)" opacity="1" data-mml-node="TeXAtom" data-mjx-texclass="ORD"><g id="two-69" transform="matrix(1 0 0 1 0 0)" opacity="1" data-mml-node="mo"><path transform="matrix(1 0 0 1 250 250)" id="two-70" d="M 173 500 C 175.97 500 182 500 188 494 C 189.98 492.02 194 488 194 480 C 194 478.35 194 475 21 -2 C -36.09 -159.41 -152 -479 -158 -490 C -160.31 -493.3 -165 -500 -175 -500 C -177.31 -500 -182 -500 -188 -495 C -189.98 -493.35 -194 -490 -194 -481 C -194 -477.7 -194 -471 -20 7 C 37.42 164.74 154 485 157 490 C 158.32 493.3 161 500 173 500 C 173 500 173 500 173 500 Z " fill="rgb(0, 0, 0)" stroke="none" stroke-width="1" stroke-opacity="1" fill-opacity="1" visibility="visible" stroke-linecap="butt" stroke-linejoin="miter" stroke-miterlimit="4"></path></g></g><g id="two-71" transform="matrix(1 0 0 1 929 0)" opacity="1" data-mml-node="mn"><path transform="matrix(1 0 0 1 249.5 333)" id="two-72" d="M -140.5 96 C -149.41 96 -167.5 96 -183.5 114 C -188.78 119.94 -199.5 132 -199.5 158 C -199.5 181.43 -199.5 229 -146.5 281 C -129.01 298.16 -93.5 333 -14.5 333 C 15.53 333 76.5 333 137.5 277 C 157.63 258.519999 198.5 221 199.5 132 C 199.5 117.81 199.5 89 179.5 50 C 172.9 37.129999 159.5 11 131.5 -18 C 122.26 -27.57 103.5 -47 51.5 -92 C 39.62 -102.23 15.5 -123 -48.5 -184 L -107.5 -240 L -31.5 -241 C 20.31 -241 125.5 -241 135.5 -236 C 137.81 -235.34 142.5 -234 159.5 -147 L 159.5 -144 L 199.5 -144 L 199.5 -147 C 199.17 -147.99 198.5 -150 186.5 -238 C 182.54 -267.040001 174.5 -326 171.5 -330 L 171.5 -333 L -199.5 -333 L -199.5 -314 L -199.5 -302 C -199.5 -299.69 -199.5 -295 -193.5 -287 C -191.52 -284.36 -187.5 -279 -163.5 -252 C -153.93 -241.44 -134.5 -220 -113.5 -196 C -110.53 -192.7 -104.5 -186 -79.5 -159 C -71.25 -150.09 -54.5 -132 -45.5 -122 C -42.53 -118.7 -36.5 -112 -16.5 -89 C -9.9 -81.41 3.5 -66 11.5 -55 C 14.14 -51.37 19.5 -44 34.5 -25 C 39.45 -18.73 49.5 -6 55.5 7 C 57.48 11.29 61.5 20 70.5 36 C 73.47 41.28 79.5 52 83.5 68 C 84.82 73.28 87.5 84 90.5 98 C 91.49 102.62 93.5 112 93.5 131 C 93.5 151.79 93.5 194 59.5 240 C 48.28 255.18 25.5 286 -37.5 286 C -48.39 286 -70.5 286 -95.5 269 C -103.75 263.39 -120.5 252 -130.5 236 C -133.800001 230.72 -140.5 220 -140.5 217 C -140.5 216.67 -140.5 216 -135.5 216 C -129.56 216 -117.5 216 -98.5 202 C -92.23 197.38 -79.5 188 -79.5 156 C -79.5 147.75 -79.5 131 -95.5 114 C -100.78 108.39 -111.5 97 -140.5 96 C -140.5 96 -140.5 96 -140.5 96 Z " fill="rgb(0, 0, 0)" stroke="none" stroke-width="1" stroke-opacity="1" fill-opacity="1" visibility="visible" stroke-linecap="butt" stroke-linejoin="miter" stroke-miterlimit="4"></path></g></g></g></g><g id="two-74" transform="matrix(0.025 0 0 -0.025001 412.5 330)" opacity="1" clip-path="url(#two-84)"><g id="two-75" transform="matrix(1 0 0 1 0 0)" opacity="1"><g id="two-76" transform="matrix(1 0 0 1 0 0)" opacity="1" data-mml-node="math"><g id="two-77" transform="matrix(1 0 0 1 0 0)" opacity="1" data-mml-node="mi"><path transform="matrix(1 0 0 1 269.5 215.5)" id="two-78" d="M -236.5 -58.5 C -236.5 -25.17 -236.5 42.5 -160.5 133.5 C -135.42 163.53 -84.5 224.5 10.5 225.5 C 27.33 225.5 61.5 225.5 100.5 176.5 C 105.78 186.4 116.5 206.5 146.5 206.5 C 150.79 206.5 159.5 206.5 169.5 198.5 C 172.8 195.86 179.5 190.5 179.5 178.5 C 179.5 174.21 179.5 165.5 142.5 18.5 C 130.289999 -30.010001 105.5 -128.5 104.5 -147.5 C 104.5 -155.75 104.5 -172.5 111.5 -180.5 C 113.81 -183.14 118.5 -188.5 132.5 -189.5 C 135.47 -189.17 141.5 -188.5 152.5 -180.5 C 159.43 -173.9 173.5 -160.5 193.5 -84.5 C 195.48 -77.9 199.5 -64.5 203.5 -63.5 C 204.16 -63.17 205.5 -62.5 213.5 -62.5 L 217.5 -62.5 C 223.77 -62.5 236.5 -62.5 236.5 -71.5 C 236.5 -73.48 236.5 -77.5 231.5 -98.5 C 229.85 -105.43 226.5 -119.5 211.5 -152.5 C 206.55 -163.39 196.5 -185.5 179.5 -202.5 C 175.21 -206.79 166.5 -215.5 147.5 -223.5 C 144.86 -224.16 139.5 -225.5 123.5 -225.5 C 112.28 -225.5 89.5 -225.5 66.5 -210.5 C 58.91 -205.55 43.5 -195.5 36.5 -179.5 L 30.5 -164.5 C 30.17 -164.17 29.5 -163.5 26.5 -165.5 C 25.84 -166.16 24.5 -167.5 22.5 -169.5 C 3.029999 -187.98 -36.5 -225.5 -97.5 -225.5 C -115.65 -225.5 -152.5 -225.5 -194.5 -185.5 C -208.36 -172.3 -236.5 -145.5 -236.5 -58.5 Z M 81.5 112.5 C 81.5 114.48 81.5 118.5 76.5 134.5 C 74.85 139.78 71.5 150.5 53.5 169.5 C 47.56 175.77 35.5 188.5 7.5 189.5 C -4.050001 189.5 -27.5 189.5 -59.5 158.5 C -70.06 148.27 -91.5 127.5 -109.5 77.5 C -119.07 51.43 -138.5 -1.5 -150.5 -86.5 C -150.5 -87.49 -150.5 -89.5 -150.5 -97.5 C -150.5 -100.14 -150.5 -105.5 -151.5 -109.5 C -151.5 -124.35 -151.5 -154.5 -133.5 -171.5 C -127.56 -177.11 -115.5 -188.5 -90.5 -189.5 C -77.96 -189.5 -52.5 -189.5 -15.5 -156.5 C -3.29 -145.61 21.5 -123.5 28.5 -105.5 C 29.16 -104.18 30.5 -101.5 55.5 1.5 C 63.75 35.49 80.5 104.5 81.5 112.5 C 81.5 112.5 81.5 112.5 81.5 112.5 Z " fill="rgb(0, 0, 0)" stroke="none" stroke-width="1" stroke-opacity="1" fill-opacity="1" visibility="visible" stroke-linecap="butt" stroke-linejoin="miter" stroke-miterlimit="4"></path></g><g id="two-79" transform="matrix(1 0 0 1 529 0)" opacity="1" data-mml-node="TeXAtom" data-mjx-texclass="ORD"><g id="two-80" transform="matrix(1 0 0 1 0 0)" opacity="1" data-mml-node="mo"><path transform="matrix(1 0 0 1 250 250)" id="two-81" d="M 173 500 C 175.97 500 182 500 188 494 C 189.98 492.02 194 488 194 480 C 194 478.35 194 475 21 -2 C -36.09 -159.41 -152 -479 -158 -490 C -160.31 -493.3 -165 -500 -175 -500 C -177.31 -500 -182 -500 -188 -495 C -189.98 -493.35 -194 -490 -194 -481 C -194 -477.7 -194 -471 -20 7 C 37.42 164.74 154 485 157 490 C 158.32 493.3 161 500 173 500 C 173 500 173 500 173 500 Z " fill="rgb(0, 0, 0)" stroke="none" stroke-width="1" stroke-opacity="1" fill-opacity="1" visibility="visible" stroke-linecap="butt" stroke-linejoin="miter" stroke-miterlimit="4"></path></g></g><g id="two-82" transform="matrix(1 0 0 1 1029 0)" opacity="1" data-mml-node="mn"><path transform="matrix(1 0 0 1 249.5 333)" id="two-83" d="M -140.5 96 C -149.41 96 -167.5 96 -183.5 114 C -188.78 119.94 -199.5 132 -199.5 158 C -199.5 181.43 -199.5 229 -146.5 281 C -129.01 298.16 -93.5 333 -14.5 333 C 15.53 333 76.5 333 137.5 277 C 157.63 258.519999 198.5 221 199.5 132 C 199.5 117.81 199.5 89 179.5 50 C 172.9 37.129999 159.5 11 131.5 -18 C 122.26 -27.57 103.5 -47 51.5 -92 C 39.62 -102.23 15.5 -123 -48.5 -184 L -107.5 -240 L -31.5 -241 C 20.31 -241 125.5 -241 135.5 -236 C 137.81 -235.34 142.5 -234 159.5 -147 L 159.5 -144 L 199.5 -144 L 199.5 -147 C 199.17 -147.99 198.5 -150 186.5 -238 C 182.54 -267.040001 174.5 -326 171.5 -330 L 171.5 -333 L -199.5 -333 L -199.5 -314 L -199.5 -302 C -199.5 -299.69 -199.5 -295 -193.5 -287 C -191.52 -284.36 -187.5 -279 -163.5 -252 C -153.93 -241.44 -134.5 -220 -113.5 -196 C -110.53 -192.7 -104.5 -186 -79.5 -159 C -71.25 -150.09 -54.5 -132 -45.5 -122 C -42.53 -118.7 -36.5 -112 -16.5 -89 C -9.9 -81.41 3.5 -66 11.5 -55 C 14.14 -51.37 19.5 -44 34.5 -25 C 39.45 -18.73 49.5 -6 55.5 7 C 57.48 11.29 61.5 20 70.5 36 C 73.47 41.28 79.5 52 83.5 68 C 84.82 73.28 87.5 84 90.5 98 C 91.49 102.62 93.5 112 93.5 131 C 93.5 151.79 93.5 194 59.5 240 C 48.28 255.18 25.5 286 -37.5 286 C -48.39 286 -70.5 286 -95.5 269 C -103.75 263.39 -120.5 252 -130.5 236 C -133.800001 230.72 -140.5 220 -140.5 217 C -140.5 216.67 -140.5 216 -135.5 216 C -129.56 216 -117.5 216 -98.5 202 C -92.23 197.38 -79.5 188 -79.5 156 C -79.5 147.75 -79.5 131 -95.5 114 C -100.78 108.39 -111.5 97 -140.5 96 C -140.5 96 -140.5 96 -140.5 96 Z " fill="rgb(0, 0, 0)" stroke="none" stroke-width="1" stroke-opacity="1" fill-opacity="1" visibility="visible" stroke-linecap="butt" stroke-linejoin="miter" stroke-miterlimit="4"></path></g></g></g></g></g></svg>