 <svg version="1.1" style="overflow: hidden; display: block;" width="350" height="250"><defs><clipPath clip-rule="nonzero" id="two-14"><path transform="matrix(1 0 0 1 0 0)" d="M -4000 -4000 L 8000 -4000 L 8000 4000 L -4000 4000 Z" fill="#fff" stroke="#000" stroke-width="1" stroke-opacity="1" fill-opacity="1" visibility="visible" stroke-linecap="butt" stroke-linejoin="miter" stroke-miterlimit="4"></path></clipPath><clipPath clip-rule="nonzero" id="two-22"><path transform="matrix(1 0 0 1 0 0)" d="M -4000 -4000 L 8000 -4000 L 8000 4000 L -4000 4000 Z" fill="#fff" stroke="#000" stroke-width="1" stroke-opacity="1" fill-opacity="1" visibility="visible" stroke-linecap="butt" stroke-linejoin="miter" stroke-miterlimit="4"></path></clipPath><clipPath clip-rule="nonzero" id="two-33"><path transform="matrix(1 0 0 1 0 0)" d="M -4000 -4000 L 8000 -4000 L 8000 4000 L -4000 4000 Z" fill="#fff" stroke="#000" stroke-width="1" stroke-opacity="1" fill-opacity="1" visibility="visible" stroke-linecap="butt" stroke-linejoin="miter" stroke-miterlimit="4"></path></clipPath><clipPath clip-rule="nonzero" id="two-40"><path transform="matrix(1 0 0 1 0 0)" d="M -4000 -4000 L 8000 -4000 L 8000 4000 L -4000 4000 Z" fill="#fff" stroke="#000" stroke-width="1" stroke-opacity="1" fill-opacity="1" visibility="visible" stroke-linecap="butt" stroke-linejoin="miter" stroke-miterlimit="4"></path></clipPath><clipPath clip-rule="nonzero" id="two-47"><path transform="matrix(1 0 0 1 0 0)" d="M -4000 -4000 L 8000 -4000 L 8000 4000 L -4000 4000 Z" fill="#fff" stroke="#000" stroke-width="1" stroke-opacity="1" fill-opacity="1" visibility="visible" stroke-linecap="butt" stroke-linejoin="miter" stroke-miterlimit="4"></path></clipPath><clipPath clip-rule="nonzero" id="two-54"><path transform="matrix(1 0 0 1 0 0)" d="M -4000 -4000 L 8000 -4000 L 8000 4000 L -4000 4000 Z" fill="#fff" stroke="#000" stroke-width="1" stroke-opacity="1" fill-opacity="1" visibility="visible" stroke-linecap="butt" stroke-linejoin="miter" stroke-miterlimit="4"></path></clipPath></defs><g id="two-0" transform="matrix(1 0 0 1 0 0)" opacity="1"><path transform="matrix(1 0 0 1 221.925506 113.751014)" id="two-1" d="M -35.641836 48.749661 L -35.641836 -21.250339 L 35.641835 -48.749662 L 35.641835 21.250338 Z " fill="rgb(43,131,186)" stroke="rgb(13,91,136)" stroke-width="2" stroke-opacity="1" fill-opacity="1" visibility="visible" stroke-linecap="butt" stroke-linejoin="round" stroke-miterlimit="4"></path><path transform="matrix(1 0 0 1 162.468551 106.922851)" id="two-2" d="M 23.815112 55.577823 L 23.815112 -14.422177 L -23.815113 -55.577824 L -23.815113 14.422176 Z " fill="rgb(43,131,186)" stroke="rgb(13,91,136)" stroke-width="2" stroke-opacity="1" fill-opacity="1" visibility="visible" stroke-linecap="butt" stroke-linejoin="round" stroke-miterlimit="4"></path><path transform="matrix(1 0 0 1 198.110397 58.173191)" id="two-3" d="M -11.826723 34.327484 L -59.456948 -6.828162 L 11.826722 -34.327485 L 59.456947 6.828161 Z " fill="rgb(43,131,186)" stroke="rgb(13,91,136)" stroke-width="2" stroke-opacity="1" fill-opacity="1" visibility="visible" stroke-linecap="butt" stroke-linejoin="round" stroke-miterlimit="4"></path><path transform="matrix(1 0 0 1 150.64183 141.250335)" id="two-4" d="M -35.641836 48.749661 L -35.641836 -21.250339 L 35.641835 -48.749662 L 35.641835 21.250338 Z " fill="rgb(215,25,28)" stroke="rgb(120,25,28)" stroke-width="2" stroke-opacity="1" fill-opacity="1" visibility="visible" stroke-linecap="butt" stroke-linejoin="round" stroke-miterlimit="4"></path><path transform="matrix(1 0 0 1 91.18489 134.42218)" id="two-5" d="M 23.815112 55.577823 L 23.815112 -14.422177 L -23.815113 -55.577824 L -23.815113 14.422176 Z " fill="rgb(215,25,28)" stroke="rgb(120,25,28)" stroke-width="2" stroke-opacity="1" fill-opacity="1" visibility="visible" stroke-linecap="butt" stroke-linejoin="round" stroke-miterlimit="4"></path><path transform="matrix(1 0 0 1 126.826721 85.672515)" id="two-6" d="M -11.826723 34.327484 L -59.456948 -6.828162 L 11.826722 -34.327485 L 59.456947 6.828161 Z " fill="rgb(215,25,28)" stroke="rgb(120,25,28)" stroke-width="2" stroke-opacity="1" fill-opacity="1" visibility="visible" stroke-linecap="butt" stroke-linejoin="round" stroke-miterlimit="4"></path><g id="two-7" transform="matrix(0.0175 0 0 -0.017501 197.25 200)" opacity="1" clip-path="url(#two-14)"><g id="two-8" transform="matrix(1 0 0 1 0 0)" opacity="1"><g id="two-9" transform="matrix(1 0 0 1 0 0)" opacity="1" data-mml-node="math"><g id="two-10" transform="matrix(1 0 0 1 0 0)" opacity="1" data-mml-node="mi"><path transform="matrix(1 0 0 1 301.67929 210)" id="two-11" d="M -117.679303 -221 C -140.119303 -221 -185.679303 -221 -227.679303 -176 C -241.539303 -161.15 -269.679303 -131 -270.679303 -63 C -270.679303 -30 -270.679303 37 -197.679303 123 C -173.589303 151.38 -124.679303 209 -27.679303 220 C -27.349303 220.33 -26.679303 221 112.320697 221 L 250.320697 221 C 250.650697 220.67 251.320697 220 253.320697 219 C 253.980697 218.67 255.320697 218 257.320697 217 C 257.980697 216.67 259.320697 216 260.320697 215 C 260.650697 214.67 261.320697 214 263.320697 212 C 263.980697 211.34 265.320697 210 265.320697 210 C 265.320697 210 265.320697 210 267.320697 206 C 267.980697 204.68 269.320697 202 268.320697 202 C 267.990697 202 267.320697 202 269.320697 197 C 269.980697 195.35 271.320697 192 270.320697 191 C 270.320697 176.48 270.320697 147 205.320697 147 C 203.010697 147 198.320697 147 188.320697 147 C 185.020697 147 178.320697 147 174.320697 148 L 114.320697 148 L 119.320697 138 C 125.260697 125.46 137.320697 100 137.320697 53 C 137.320697 16.699999 137.320697 -57 57.320697 -139 C 30.920697 -166.06 -22.679303 -221 -117.679303 -221 Z M 59.320697 68 C 59.320697 94.4 59.320697 148 -25.679303 148 C -66.599303 148 -149.679303 148 -186.679303 -26 C -187.009303 -27.32 -187.679303 -30 -187.679303 -32 C -190.319303 -44.21 -195.679303 -69 -195.679303 -93 C -195.679303 -109.5 -195.679303 -143 -170.679303 -163 C -162.429303 -169.6 -145.679303 -183 -113.679303 -184 C -95.859303 -184 -59.679303 -184 -14.679303 -137 C -5.109303 -127.1 14.320697 -107 32.320697 -57 C 38.260697 -40.5 50.320697 -7 54.320697 23 C 55.640697 32.9 58.320697 53 59.320697 68 C 59.320697 68 59.320697 68 59.320697 68 Z " fill="rgb(0, 0, 0)" stroke="none" stroke-width="1" stroke-opacity="1" fill-opacity="1" visibility="visible" stroke-linecap="butt" stroke-linejoin="miter" stroke-miterlimit="4"></path></g><g id="two-12" transform="matrix(1 0 0 1 571 0)" opacity="1" data-mml-node="mi"><path transform="matrix(1 0 0 1 236 216.019226)" id="two-13" d="M -105 72.980778 C -105 83.540778 -105 104.980778 -89 137.980778 C -83.72 148.870778 -73 170.980778 -33 198.980778 C -19.8 208.220778 7 226.980778 64 225.980778 C 84.46 225.980778 126 225.980778 154 198.980778 C 163.24 190.070778 182 171.980778 183 138.980778 C 183 128.420778 183 106.980778 166 91.980778 C 160.39 87.030778 149 76.980778 128 75.980778 C 123.71 75.980778 115 75.980778 104 83.980778 C 100.37 86.620778 93 91.980778 92 109.980778 C 92 115.260778 92 125.980778 101 137.980778 C 103.97 141.940778 110 149.980778 118 155.980778 C 120.64 157.960778 126 161.980778 131 161.980778 C 131.33 161.980778 132 161.980778 132 162.980778 C 132 163.970778 132 165.980778 125 171.980778 C 122.69 173.960778 118 177.980778 100 182.980778 C 94.06 184.630778 82 187.980778 61 188.980778 C 45.16 188.980778 13 188.980778 -9 162.980778 C -16.260001 154.400778 -31 136.980778 -32 109.980778 C -32 101.730778 -32 84.980778 -13 74.980778 C -6.73 71.680778 6 64.980778 42 57.980778 C 53.88 55.670778 78 50.980778 94 42.980778 C 115.78 33.410778 160 13.980778 160 -53.019222 C 160 -62.259222 160 -81.019222 149 -109.019222 C 145.37 -118.259222 138 -137.019222 116 -165.019222 C 108.74 -174.259222 94 -193.019222 53 -209.019222 C 39.47 -214.299222 12 -225.019222 -41 -226.019222 C -66.41 -226.019222 -118 -226.019222 -150 -197.019222 C -160.56 -187.449222 -182 -168.019222 -183 -129.019222 C -183 -116.149222 -183 -90.019222 -162 -73.019222 C -155.07 -67.409222 -141 -56.019222 -118 -56.019222 C -113.05 -56.019222 -103 -56.019222 -90 -65.019222 C -85.71 -67.989222 -77 -74.019222 -76 -96.019222 C -76 -104.599222 -76 -122.019222 -94 -140.019222 C -99.94 -145.959222 -112 -158.019222 -125 -158.019222 C -125.66 -158.349222 -127 -159.019222 -128 -159.019222 C -128.330001 -159.019222 -129 -159.019222 -129 -161.019222 C -128.67 -162.009222 -128 -164.019222 -121 -169.019222 C -118.69 -170.669222 -114 -174.019222 -90 -182.019222 C -82.08 -184.659222 -66 -190.019222 -35 -189.019222 C -23.12 -189.019222 1 -189.019222 27 -178.019222 C 35.58 -174.389222 53 -167.019222 65 -150.019222 C 68.96 -144.409222 77 -133.019222 82 -119.019222 C 83.65 -114.399222 87 -105.019222 87 -94.019222 C 87 -84.779222 87 -66.019222 66 -52.019222 C 59.07 -47.399222 45 -38.019222 18 -35.019222 C 9.09 -34.029222 -9 -32.019222 -41 -20.019222 C -51.56 -16.059222 -73 -8.019222 -88 14.980778 C -93.61 23.230778 -105 39.980778 -105 72.980778 C -105 72.980778 -105 72.980778 -105 72.980778 Z " fill="rgb(0, 0, 0)" stroke="none" stroke-width="1" stroke-opacity="1" fill-opacity="1" visibility="visible" stroke-linecap="butt" stroke-linejoin="miter" stroke-miterlimit="4"></path></g></g></g></g><path transform="matrix(1 0 0 1 0 0)" id="two-15" d="M 197.25 185 C 193.724379 176.043961 262.384825 159.359123 258.859204 150.403085 " fill="none" stroke="rgb(0,0,0)" stroke-width="1.125" stroke-opacity="1" fill-opacity="1" visibility="visible" stroke-linecap="butt" stroke-linejoin="miter" stroke-miterlimit="4"></path><path transform="matrix(1 0 0 1 0 0)" id="two-16" d="M 197.25 185 C 193.724379 176.043961 132.115174 210.640876 128.589554 201.684837 " fill="none" stroke="rgb(0,0,0)" stroke-width="1.125" stroke-opacity="1" fill-opacity="1" visibility="visible" stroke-linecap="butt" stroke-linejoin="miter" stroke-miterlimit="4"></path><g id="two-17" transform="matrix(0.0175 0 0 -0.017501 60.75 200)" opacity="1" clip-path="url(#two-22)"><g id="two-18" transform="matrix(1 0 0 1 0 0)" opacity="1"><g id="two-19" transform="matrix(1 0 0 1 0 0)" opacity="1" data-mml-node="math"><g id="two-20" transform="matrix(1 0 0 1 0 0)" opacity="1" data-mml-node="mi"><path transform="matrix(1 0 0 1 236 216.019226)" id="two-21" d="M -105 72.980778 C -105 83.540778 -105 104.980778 -89 137.980778 C -83.72 148.870778 -73 170.980778 -33 198.980778 C -19.8 208.220778 7 226.980778 64 225.980778 C 84.46 225.980778 126 225.980778 154 198.980778 C 163.24 190.070778 182 171.980778 183 138.980778 C 183 128.420778 183 106.980778 166 91.980778 C 160.39 87.030778 149 76.980778 128 75.980778 C 123.71 75.980778 115 75.980778 104 83.980778 C 100.37 86.620778 93 91.980778 92 109.980778 C 92 115.260778 92 125.980778 101 137.980778 C 103.97 141.940778 110 149.980778 118 155.980778 C 120.64 157.960778 126 161.980778 131 161.980778 C 131.33 161.980778 132 161.980778 132 162.980778 C 132 163.970778 132 165.980778 125 171.980778 C 122.69 173.960778 118 177.980778 100 182.980778 C 94.06 184.630778 82 187.980778 61 188.980778 C 45.16 188.980778 13 188.980778 -9 162.980778 C -16.260001 154.400778 -31 136.980778 -32 109.980778 C -32 101.730778 -32 84.980778 -13 74.980778 C -6.73 71.680778 6 64.980778 42 57.980778 C 53.88 55.670778 78 50.980778 94 42.980778 C 115.78 33.410778 160 13.980778 160 -53.019222 C 160 -62.259222 160 -81.019222 149 -109.019222 C 145.37 -118.259222 138 -137.019222 116 -165.019222 C 108.74 -174.259222 94 -193.019222 53 -209.019222 C 39.47 -214.299222 12 -225.019222 -41 -226.019222 C -66.41 -226.019222 -118 -226.019222 -150 -197.019222 C -160.56 -187.449222 -182 -168.019222 -183 -129.019222 C -183 -116.149222 -183 -90.019222 -162 -73.019222 C -155.07 -67.409222 -141 -56.019222 -118 -56.019222 C -113.05 -56.019222 -103 -56.019222 -90 -65.019222 C -85.71 -67.989222 -77 -74.019222 -76 -96.019222 C -76 -104.599222 -76 -122.019222 -94 -140.019222 C -99.94 -145.959222 -112 -158.019222 -125 -158.019222 C -125.66 -158.349222 -127 -159.019222 -128 -159.019222 C -128.330001 -159.019222 -129 -159.019222 -129 -161.019222 C -128.67 -162.009222 -128 -164.019222 -121 -169.019222 C -118.69 -170.669222 -114 -174.019222 -90 -182.019222 C -82.08 -184.659222 -66 -190.019222 -35 -189.019222 C -23.12 -189.019222 1 -189.019222 27 -178.019222 C 35.58 -174.389222 53 -167.019222 65 -150.019222 C 68.96 -144.409222 77 -133.019222 82 -119.019222 C 83.65 -114.399222 87 -105.019222 87 -94.019222 C 87 -84.779222 87 -66.019222 66 -52.019222 C 59.07 -47.399222 45 -38.019222 18 -35.019222 C 9.09 -34.029222 -9 -32.019222 -41 -20.019222 C -51.56 -16.059222 -73 -8.019222 -88 14.980778 C -93.61 23.230778 -105 39.980778 -105 72.980778 C -105 72.980778 -105 72.980778 -105 72.980778 Z " fill="rgb(0, 0, 0)" stroke="none" stroke-width="1" stroke-opacity="1" fill-opacity="1" visibility="visible" stroke-linecap="butt" stroke-linejoin="miter" stroke-miterlimit="4"></path></g></g></g></g><path transform="matrix(1 0 0 1 0 0)" id="two-23" d="M 73 189 C 79.106035 181.559774 95.320676 207.318106 101.426712 199.87788 " fill="none" stroke="rgb(0,0,0)" stroke-width="1.125" stroke-opacity="1" fill-opacity="1" visibility="visible" stroke-linecap="butt" stroke-linejoin="miter" stroke-miterlimit="4"></path><path transform="matrix(1 0 0 1 0 0)" id="two-24" d="M 73 189 C 79.106035 181.559774 50.679323 170.681893 56.785358 163.241668 " fill="none" stroke="rgb(0,0,0)" stroke-width="1.125" stroke-opacity="1" fill-opacity="1" visibility="visible" stroke-linecap="butt" stroke-linejoin="miter" stroke-miterlimit="4"></path><g id="two-25" transform="matrix(0.0175 0 0 -0.017501 20 230)" opacity="1" clip-path="url(#two-33)"><g id="two-26" transform="matrix(1 0 0 1 0 0)" opacity="1"><g id="two-27" transform="matrix(1 0 0 1 0 0)" opacity="1" data-mml-node="math"><g id="two-28" transform="matrix(1 0 0 1 0 0)" opacity="1" data-mml-node="msub"><g id="two-29" transform="matrix(1 0 0 1 0 0)" opacity="1" data-mml-node="mi"><path transform="matrix(1 0 0 1 348.5 341.5)" id="two-30" d="M -40.5 -317.5 C -21.03 -317.5 18.5 -317.5 67.5 -265.5 C 83.67 -248.34 116.5 -213.5 117.5 -144.5 C 117.5 -123.71 117.5 -81.5 65.5 -57.5 C 30.519999 -48.59 -40.5 -30.5 -70.5 -20.5 C -80.4 -17.2 -100.5 -10.5 -112.5 -0.5 C -132.300001 13.36 -172.5 41.5 -172.5 120.5 C -172.5 140.63 -172.5 181.5 -140.5 231.5 C -129.94 248 -108.5 281.5 -75.5 306.5 C -65.930001 314.75 -46.5 331.5 -5.5 346.5 C 8.03 351.45 35.5 361.5 58.5 362.5 L 69.5 362.5 L 76.5 362.5 C 108.18 362.5 172.5 362.5 215.5 298.5 C 215.83 298.5 216.5 298.5 228.5 311.5 C 232.46 315.79 240.5 324.5 254.5 340.5 C 259.12 345.78 268.5 356.5 274.5 362.5 C 274.83 362.5 275.5 362.5 278.5 362.5 C 279.49 362.5 281.5 362.5 283.5 363.5 C 287.79 363.5 296.5 363.5 296.5 356.5 C 296.5 354.19 296.5 349.5 268.5 235.5 C 259.26 197.88 240.5 121.5 236.5 117.5 C 235.18 116.18 232.5 113.5 220.5 114.5 C 213.9 114.5 200.5 114.5 200.5 123.5 C 200.5 125.48 200.5 129.5 201.5 133.5 C 201.5 134.49 201.5 136.5 202.5 152.5 C 202.83 157.78 203.5 168.5 204.5 178.5 C 204.5 189.72 204.5 212.5 195.5 237.5 C 192.53 245.75 186.5 262.5 177.5 274.5 C 174.53 278.46 168.5 286.5 152.5 299.5 C 140.62 306.43 116.5 320.5 70.5 320.5 C 51.69 320.5 13.5 320.5 -35.5 274.5 C -51.67 259.32 -84.5 228.5 -85.5 168.5 C -85.5 158.6 -85.5 138.5 -70.5 116.5 C -65.55 109.24 -55.5 94.5 -29.5 85.5 C -28.18 84.84 -25.5 83.5 40.5 66.5 C 62.28 60.89 106.5 49.5 107.5 48.5 C 118.72 44.87 141.5 37.5 173.5 0.5 C 184.06 -11.71 205.5 -36.5 205.5 -99.5 C 205.5 -108.08 205.5 -125.5 197.5 -155.5 C 195.85 -162.76 192.5 -177.5 179.5 -204.5 C 175.21 -213.41 166.5 -231.5 143.5 -263.5 C 135.91 -274.06 120.5 -295.5 77.5 -323.5 C 63.31 -332.74 34.5 -351.5 -16.5 -361.5 C -20.46 -362.16 -28.5 -363.5 -50.5 -363.5 C -83.17 -363.5 -149.5 -363.5 -204.5 -308.5 L -214.5 -297.5 L -242.5 -328.5 C -250.09 -337.41 -265.5 -355.5 -270.5 -359.5 C -272.15 -360.82 -275.5 -363.5 -283.5 -363.5 C -287.79 -363.5 -296.5 -363.5 -296.5 -355.5 C -296.5 -354.51 -296.5 -352.5 -238.5 -120.5 C -237.84 -118.52 -236.5 -114.5 -218.5 -114.5 L -205.5 -114.5 C -203.52 -116.48 -199.5 -120.5 -199.5 -125.5 C -199.5 -126.16 -199.5 -127.5 -200.5 -134.5 C -200.83 -136.81 -201.5 -141.5 -204.5 -155.5 C -205.49 -160.12 -207.5 -169.5 -206.5 -188.5 C -205.84 -201.37 -204.5 -227.5 -188.5 -254.5 C -183.22 -263.410001 -172.5 -281.5 -145.5 -294.5 C -136.59 -298.79 -118.5 -307.5 -93.5 -312.5 C -85.25 -314.15 -68.5 -317.5 -40.5 -317.5 C -40.5 -317.5 -40.5 -317.5 -40.5 -317.5 Z " fill="rgb(0, 0, 0)" stroke="none" stroke-width="1" stroke-opacity="1" fill-opacity="1" visibility="visible" stroke-linecap="butt" stroke-linejoin="miter" stroke-miterlimit="4"></path></g><g id="two-31" transform="matrix(0.699999 0 0 0.699999 646 -150)" opacity="1" data-mml-node="mn"><path transform="matrix(1 0 0 1 249.5 322)" id="two-32" d="M -153.5 263 C -135.02 289.73 -97.5 344 -0.5 344 C 15.34 344 47.5 344 95.5 318 C 111.34 309.42 143.5 292 173.5 226 C 185.71 198.61 210.5 143 210.5 -2 C 210.5 -53.150001 210.5 -157 167.5 -239 C 160.9 -252.86 147.5 -281 112.5 -306 C 100.95 -314.25 77.5 -331 51.5 -337 C 42.92 -338.98 25.5 -343 0.5 -344 C -8.08 -344 -25.5 -344 -51.5 -338 C -60.08 -336.02 -77.5 -332 -112.5 -306 C -124.05 -297.42 -147.5 -280 -167.5 -239 C -181.69 -211.94 -210.5 -157 -210.5 -2 C -210.5 55.42 -210.5 172 -153.5 263 Z M 71.5 275 C 61.6 285.56 41.5 307 0.5 307 C -13.360001 307 -41.5 307 -71.5 275 C -79.75 266.42 -96.5 249 -104.5 203 C -107.14 187.82 -112.5 157 -112.5 11 C -112.5 -41.14 -112.5 -147 -104.5 -197 C -101.86 -213.5 -96.5 -247 -68.5 -276 C -59.26 -285.9 -40.5 -306 0.5 -306 C 13.7 -306 40.5 -306 68.5 -276 C 78.07 -266.100001 97.5 -246 104.5 -192 C 106.81 -174.18 111.5 -138 112.5 11 C 112.5 58.85 112.5 156 104.5 202 C 101.86 217.18 96.5 248 71.5 275 C 71.5 275 71.5 275 71.5 275 Z " fill="rgb(0, 0, 0)" stroke="none" stroke-width="1" stroke-opacity="1" fill-opacity="1" visibility="visible" stroke-linecap="butt" stroke-linejoin="miter" stroke-miterlimit="4"></path></g></g></g></g></g><path transform="matrix(1 0 0 1 0 0)" id="two-34" d="M 280 50 L 300.366762 42.14305 " fill="rgba(0,0,0,0)" stroke="rgb(240,10,20)" stroke-width="3" stroke-opacity="1" fill-opacity="1" visibility="visible" stroke-linecap="round" stroke-linejoin="miter" stroke-miterlimit="4"></path><g id="two-35" transform="matrix(0.017999 0 0 -0.018 305.55014 38.214576)" opacity="1" clip-path="url(#two-40)"><g id="two-36" transform="matrix(1 0 0 1 0 0)" opacity="1"><g id="two-37" transform="matrix(1 0 0 1 0 0)" opacity="1" data-mml-node="math"><g id="two-38" transform="matrix(1 0 0 1 0 0)" opacity="1" data-mml-node="mi"><path transform="matrix(1 0 0 1 318.5 215.5)" id="two-39" d="M -284.5 -59.5 C -284.5 -21.88 -284.5 54.5 -198.5 140.5 C -170.12 168.88 -112.5 226.5 -9.5 226.5 C 13.6 226.5 60.5 226.5 102.5 186.5 C 116.36 173.3 144.5 146.5 159.5 88.5 C 161.48 78.93 165.5 59.5 166.5 21.5 L 166.5 -7.5 C 182.67 16.92 215.5 66.5 241.5 158.5 C 242.82 163.12 245.5 172.5 247.5 174.5 C 248.16 175.16 249.5 176.5 263.5 177.5 C 270.43 177.5 284.5 177.5 284.5 169.5 C 284.5 166.53 284.5 160.5 275.5 130.5 C 272.53 120.6 266.5 100.5 239.5 45.5 C 230.59 27.349999 212.5 -9.5 178.5 -54.5 L 167.5 -68.5 L 168.5 -92.5 C 169.16 -110.98 170.5 -148.5 176.5 -168.5 C 178.48 -175.1 182.5 -188.5 195.5 -189.5 C 200.12 -188.84 209.5 -187.5 221.5 -178.5 C 225.46 -175.53 233.5 -169.5 238.5 -155.5 C 239.16 -153.19 240.5 -148.5 243.5 -147.5 C 244.49 -147.17 246.5 -146.5 258.5 -145.5 C 265.1 -145.5 278.5 -145.5 278.5 -153.5 C 278.5 -155.48 278.5 -159.5 272.5 -172.5 C 268.54 -180.42 260.5 -196.5 237.5 -210.5 C 229.91 -215.12 214.5 -224.5 193.5 -225.5 L 186.5 -225.5 C 164.39 -225.5 119.5 -225.5 95.5 -153.5 L 92.5 -146.5 L 81.5 -154.5 C 78.2 -157.14 71.5 -162.5 51.5 -174.5 C 44.9 -178.46 31.5 -186.5 6.5 -197.5 C -1.75 -201.13 -18.5 -208.5 -51.5 -217.5 C -62.39 -220.47 -84.5 -226.5 -115.5 -226.5 C -141.57 -226.5 -194.5 -226.5 -239.5 -176.5 C -254.35 -160 -284.5 -126.5 -284.5 -59.5 Z M -110.5 -189.5 C -94.33 -189.5 -61.5 -189.5 -12.5 -168.5 C 3.67 -161.57 36.5 -147.5 60.5 -125.5 L 84.5 -103.5 C 83.84 -56.31 82.5 39.5 77.5 74.5 C 72.88 112.45 63.5 189.5 -14.5 189.5 C -37.27 189.5 -83.5 189.5 -135.5 116.5 C -144.41 103.3 -162.5 76.5 -179.5 8.5 C -185.11 -13.940001 -196.5 -59.5 -197.5 -95.5 C -197.5 -111.67 -197.5 -144.5 -172.5 -166.5 C -164.25 -173.76 -147.5 -188.5 -110.5 -189.5 C -110.5 -189.5 -110.5 -189.5 -110.5 -189.5 Z " fill="rgb(0, 0, 0)" stroke="none" stroke-width="1" stroke-opacity="1" fill-opacity="1" visibility="visible" stroke-linecap="butt" stroke-linejoin="miter" stroke-miterlimit="4"></path></g></g></g></g><path transform="matrix(1 0 0 1 0 0)" id="two-41" d="M 280 50 L 266.391364 38.241243 " fill="rgba(0,0,0,0)" stroke="rgb(32,220,32)" stroke-width="3" stroke-opacity="1" fill-opacity="1" visibility="visible" stroke-linecap="round" stroke-linejoin="miter" stroke-miterlimit="4"></path><g id="two-42" transform="matrix(0.017999 0 0 -0.018 254.587051 32.361865)" opacity="1" clip-path="url(#two-47)"><g id="two-43" transform="matrix(1 0 0 1 0 0)" opacity="1"><g id="two-44" transform="matrix(1 0 0 1 0 0)" opacity="1" data-mml-node="math"><g id="two-45" transform="matrix(1 0 0 1 0 0)" opacity="1" data-mml-node="mi"><path transform="matrix(1 0 0 1 298 255.5)" id="two-46" d="M -269 -449.5 C -270.98 -447.52 -275 -443.5 -275 -441.5 C -275 -440.51 -275 -438.5 -196 -121.5 C -169.93 -16.89 -117 195.5 -112 209.5 C -104.74 231.94 -90 277.5 -55 328.5 C -43.45 345.33 -20 379.5 11 402.5 C 29.48 418.01 67 449.5 131 449.5 L 133 449.5 C 153.46 449.5 195 449.5 235 411.5 C 248.2 398.96 275 373.5 275 314.5 C 275 279.85 275 209.5 171 140.5 L 184 127.5 C 200.83 110.67 235 76.5 235 -3.5 C 235 -40.79 235 -116.5 150 -190.5 C 121.95 -214.920001 65 -264.5 -41 -265.5 C -50.9 -265.5 -71 -265.5 -95 -257.5 C -102.92 -254.86 -119 -249.5 -133 -238.5 C -137.62 -234.87 -147 -227.5 -155 -215.5 C -157.64 -211.54 -163 -203.5 -167 -196.5 C -168.32 -194.19 -171 -189.5 -172 -190.5 L -236 -443.5 C -236.66 -445.48 -238 -449.5 -256 -449.5 L -269 -449.5 Z M 55 175.5 C 67.87 175.5 94 175.5 129 163.5 L 134 166.5 C 135.32 167.82 138 170.5 141 173.5 C 141.99 174.49 144 176.5 151 183.5 C 153.31 185.81 158 190.5 163 197.5 C 164.65 199.81 168 204.5 174 215.5 C 175.98 219.13 180 226.5 186 239.5 C 187.98 243.79 192 252.5 195 268.5 C 195.99 273.78 198 284.5 203 304.5 C 203.66 307.47 205 313.5 205 337.5 C 205 343.44 205 355.5 204 360.5 C 199.05 377.33 189 411.5 128 411.5 C 114.14 411.5 86 411.5 49 387.5 C 36.79 379.58 12 363.5 -12 326.5 C -19.92 314.29 -36 289.5 -51 258.5 C -55.95 248.27 -66 227.5 -74 199.5 C -75.65 194.22 -79 183.5 -112 52.5 C -122.89 9.269999 -145 -78.5 -146 -87.5 C -146.33 -89.15 -147 -92.5 -147 -108.5 C -147 -124.34 -147 -156.5 -125 -187.5 C -114.77 -201.36 -94 -229.5 -38 -229.5 C -24.14 -229.5 4 -229.5 51 -204.5 C 66.51 -196.25 98 -179.5 127 -118.5 C 132.28 -107.28 143 -84.5 151 -41.5 C 153.64 -27.31 159 1.5 159 23.5 C 159 42.64 159 81.5 124 116.5 C 110.14 111.88 82 102.5 49 102.5 L 39 102.5 C 12.93 102.5 -40 102.5 -40 133.5 C -40 135.81 -40 140.5 -37 147.5 C -32.380001 156.74 -23 175.5 55 175.5 C 55 175.5 55 175.5 55 175.5 Z " fill="rgb(0, 0, 0)" stroke="none" stroke-width="1" stroke-opacity="1" fill-opacity="1" visibility="visible" stroke-linecap="butt" stroke-linejoin="miter" stroke-miterlimit="4"></path></g></g></g></g><path transform="matrix(1 0 0 1 0 0)" id="two-48" d="M 280 50 L 280 30 " fill="rgba(0,0,0,0)" stroke="rgb(20,10,240)" stroke-width="3" stroke-opacity="1" fill-opacity="1" visibility="visible" stroke-linecap="round" stroke-linejoin="miter" stroke-miterlimit="4"></path><g id="two-49" transform="matrix(0.017999 0 0 -0.018 275 20)" opacity="1" clip-path="url(#two-54)"><g id="two-50" transform="matrix(1 0 0 1 0 0)" opacity="1"><g id="two-51" transform="matrix(1 0 0 1 0 0)" opacity="1" data-mml-node="math"><g id="two-52" transform="matrix(1 0 0 1 0 0)" opacity="1" data-mml-node="mi"><path transform="matrix(1 0 0 1 277 112.5)" id="two-53" d="M -246 136.5 C -252.6 136.5 -266 136.5 -266 145.5 C -266 151.11 -266 162.5 -251 191.5 C -246.05 201.07 -236 220.5 -211 252.5 C -202.75 263.06 -186 284.5 -148 305.5 C -135.46 312.43 -110 326.5 -71 328.5 C -62.09 328.5 -44 328.5 -38 327.5 C -22.16 323.87 10 316.5 41 273.5 C 51.23 259.31 72 230.5 94 142.5 C 98.62 122.7 108 82.5 108 57.5 C 108 56.18 108 53.5 109 53.5 L 121 80.5 C 127.6 97.33 141 131.5 166 187.5 C 174.25 205.98 191 243.5 209 278.5 C 214.94 290.05 227 313.5 231 317.5 C 231.66 317.83 233 318.5 247 318.5 L 260 318.5 C 261.98 316.52 266 312.5 266 309.5 C 266 308.18 266 305.5 245 265.5 C 238.07 252.3 224 225.5 186 138.5 C 173.46 109.789999 148 51.5 114 -41.5 C 112.02 -46.78 108 -57.5 101 -106.5 C 98.69 -122.67 94 -155.5 80 -212.5 C 74.72 -233.95 64 -277.5 53 -302.5 C 49.37 -310.75 42 -327.5 26 -328.5 C 20.39 -328.5 9 -328.5 9 -300.5 C 9 -284 9 -250.5 63 -80.5 L 69 -61.5 L 70 -43.5 C 70.33 -40.2 71 -33.5 71 -12.5 C 71 39.31 71 144.5 14 204.5 C 0.799999 217.04 -26 242.5 -81 242.5 C -96.84 242.5 -129 242.5 -169 216.5 C -182.2 207.92 -209 190.5 -226 147.5 C -226.66 144.53 -228 138.5 -230 138.5 C -230.66 137.84 -232 136.5 -246 136.5 C -246 136.5 -246 136.5 -246 136.5 Z " fill="rgb(0, 0, 0)" stroke="none" stroke-width="1" stroke-opacity="1" fill-opacity="1" visibility="visible" stroke-linecap="butt" stroke-linejoin="miter" stroke-miterlimit="4"></path></g></g></g></g><path transform="matrix(1 0 0 1 280 50)" id="two-55" d="M 3 0 C 3 1.656854 1.656854 3 0 3 C -1.656855 3 -3 1.656854 -3 0 C -3.000001 -1.656855 -1.656855 -3 -0.000001 -3 C 1.656854 -3.000001 3 -1.656855 3 0 Z " fill="#000" stroke="#000" stroke-width="0" stroke-opacity="1" fill-opacity="1" visibility="visible" stroke-linecap="butt" stroke-linejoin="miter" stroke-miterlimit="4"></path></g></svg>