 <svg version="1.1" style="overflow: hidden; display: block;" width="1100" height="250"><defs></defs><g id="two-0" transform="matrix(1 0 0 1 0 0)" opacity="1"><path transform="matrix(1 0 0 1 125 37)" id="two-1" d="M -25 -25 L 25 -25 L 25 25 L -25 25 Z " fill="rgb(152,119,182)" stroke="rgb(0,0,0)" stroke-width="0.5" stroke-opacity="0.5" fill-opacity="0.5" visibility="visible" stroke-linecap="butt" stroke-linejoin="miter" stroke-miterlimit="4"></path><path transform="matrix(1 0 0 1 175 37)" id="two-2" d="M -25 -25 L 25 -25 L 25 25 L -25 25 Z " fill="rgb(228,220,242)" stroke="rgb(0,0,0)" stroke-width="0.5" stroke-opacity="0.5" fill-opacity="0.5" visibility="visible" stroke-linecap="butt" stroke-linejoin="miter" stroke-miterlimit="4"></path><path transform="matrix(1 0 0 1 125 87)" id="two-3" d="M -25 -25 L 25 -25 L 25 25 L -25 25 Z " fill="rgb(228,220,242)" stroke="rgb(0,0,0)" stroke-width="0.5" stroke-opacity="0.5" fill-opacity="0.5" visibility="visible" stroke-linecap="butt" stroke-linejoin="miter" stroke-miterlimit="4"></path><path transform="matrix(1 0 0 1 175 87)" id="two-4" d="M -25 -25 L 25 -25 L 25 25 L -25 25 Z " fill="rgb(152,119,182)" stroke="rgb(0,0,0)" stroke-width="0.5" stroke-opacity="0.5" fill-opacity="0.5" visibility="visible" stroke-linecap="butt" stroke-linejoin="miter" stroke-miterlimit="4"></path><path transform="matrix(1 0 0 1 150 62)" id="two-5" d="M -25 25 L 25 25 L 25 -25 L -25 -25 " fill="none" stroke="rgb(80,80,140)" stroke-width="10" stroke-opacity="1" fill-opacity="1" visibility="visible" stroke-linecap="round" stroke-linejoin="round" stroke-miterlimit="4"></path><path transform="matrix(1 0 0 1 125 87)" id="two-6" d="M 8.5 0 C 8.5 4.69442 4.69442 8.5 0 8.5 C -4.694421 8.5 -8.5 4.69442 -8.5 0 C -8.5 -4.694421 -4.694421 -8.5 -0.000001 -8.5 C 4.69442 -8.500001 8.5 -4.694421 8.5 0 Z " fill="rgb(80,80,140)" stroke="rgb(80,80,140)" stroke-width="0" stroke-opacity="1" fill-opacity="1" visibility="visible" stroke-linecap="butt" stroke-linejoin="miter" stroke-miterlimit="4"></path><path transform="matrix(1 0 0 1 250 37)" id="two-7" d="M -25 -25 L 25 -25 L 25 25 L -25 25 Z " fill="rgb(152,119,182)" stroke="rgb(0,0,0)" stroke-width="0.5" stroke-opacity="0.5" fill-opacity="0.5" visibility="visible" stroke-linecap="butt" stroke-linejoin="miter" stroke-miterlimit="4"></path><path transform="matrix(1 0 0 1 300 37)" id="two-8" d="M -25 -25 L 25 -25 L 25 25 L -25 25 Z " fill="rgb(228,220,242)" stroke="rgb(0,0,0)" stroke-width="0.5" stroke-opacity="0.5" fill-opacity="0.5" visibility="visible" stroke-linecap="butt" stroke-linejoin="miter" stroke-miterlimit="4"></path><path transform="matrix(1 0 0 1 250 87)" id="two-9" d="M -25 -25 L 25 -25 L 25 25 L -25 25 Z " fill="rgb(228,220,242)" stroke="rgb(0,0,0)" stroke-width="0.5" stroke-opacity="0.5" fill-opacity="0.5" visibility="visible" stroke-linecap="butt" stroke-linejoin="miter" stroke-miterlimit="4"></path><path transform="matrix(1 0 0 1 300 87)" id="two-10" d="M -25 -25 L 25 -25 L 25 25 L -25 25 Z " fill="rgb(152,119,182)" stroke="rgb(0,0,0)" stroke-width="0.5" stroke-opacity="0.5" fill-opacity="0.5" visibility="visible" stroke-linecap="butt" stroke-linejoin="miter" stroke-miterlimit="4"></path><path transform="matrix(1 0 0 1 275 62)" id="two-11" d="M -25 25 L -25 -25 L 25 -25 L 25 25 " fill="none" stroke="rgb(80,80,140)" stroke-width="10" stroke-opacity="1" fill-opacity="1" visibility="visible" stroke-linecap="round" stroke-linejoin="round" stroke-miterlimit="4"></path><path transform="matrix(1 0 0 1 250 87)" id="two-12" d="M 8.5 0 C 8.5 4.69442 4.69442 8.5 0 8.5 C -4.694421 8.5 -8.5 4.69442 -8.5 0 C -8.5 -4.694421 -4.694421 -8.5 -0.000001 -8.5 C 4.69442 -8.500001 8.5 -4.694421 8.5 0 Z " fill="rgb(80,80,140)" stroke="rgb(80,80,140)" stroke-width="0" stroke-opacity="1" fill-opacity="1" visibility="visible" stroke-linecap="butt" stroke-linejoin="miter" stroke-miterlimit="4"></path><path transform="matrix(1 0 0 1 375 37)" id="two-13" d="M -25 -25 L 25 -25 L 25 25 L -25 25 Z " fill="rgb(152,119,182)" stroke="rgb(0,0,0)" stroke-width="0.5" stroke-opacity="0.5" fill-opacity="0.5" visibility="visible" stroke-linecap="butt" stroke-linejoin="miter" stroke-miterlimit="4"></path><path transform="matrix(1 0 0 1 425 37)" id="two-14" d="M -25 -25 L 25 -25 L 25 25 L -25 25 Z " fill="rgb(228,220,242)" stroke="rgb(0,0,0)" stroke-width="0.5" stroke-opacity="0.5" fill-opacity="0.5" visibility="visible" stroke-linecap="butt" stroke-linejoin="miter" stroke-miterlimit="4"></path><path transform="matrix(1 0 0 1 375 87)" id="two-15" d="M -25 -25 L 25 -25 L 25 25 L -25 25 Z " fill="rgb(228,220,242)" stroke="rgb(0,0,0)" stroke-width="0.5" stroke-opacity="0.5" fill-opacity="0.5" visibility="visible" stroke-linecap="butt" stroke-linejoin="miter" stroke-miterlimit="4"></path><path transform="matrix(1 0 0 1 425 87)" id="two-16" d="M -25 -25 L 25 -25 L 25 25 L -25 25 Z " fill="rgb(152,119,182)" stroke="rgb(0,0,0)" stroke-width="0.5" stroke-opacity="0.5" fill-opacity="0.5" visibility="visible" stroke-linecap="butt" stroke-linejoin="miter" stroke-miterlimit="4"></path><path transform="matrix(1 0 0 1 375 73.25)" id="two-17" d="M 0 13.75 L 0 -13.75 " fill="none" stroke="rgb(80,80,140)" stroke-width="10" stroke-opacity="1" fill-opacity="1" visibility="visible" stroke-linecap="round" stroke-linejoin="round" stroke-miterlimit="4"></path><path transform="matrix(1 0 0 1 375 87)" id="two-18" d="M 8.5 0 C 8.5 4.69442 4.69442 8.5 0 8.5 C -4.694421 8.5 -8.5 4.69442 -8.5 0 C -8.5 -4.694421 -4.694421 -8.5 -0.000001 -8.5 C 4.69442 -8.500001 8.5 -4.694421 8.5 0 Z " fill="rgb(80,80,140)" stroke="rgb(80,80,140)" stroke-width="0" stroke-opacity="1" fill-opacity="1" visibility="visible" stroke-linecap="butt" stroke-linejoin="miter" stroke-miterlimit="4"></path><path transform="matrix(1 0 0 1 425 37)" id="two-19" d="M 10.164659 10.164659 L -10.16466 -10.16466 Z " fill="#fff" stroke="rgb(252,37,3)" stroke-width="4.5" stroke-opacity="1" fill-opacity="1" visibility="visible" stroke-linecap="round" stroke-linejoin="round" stroke-miterlimit="4"></path><path transform="matrix(1 0 0 1 425 37)" id="two-20" d="M 10.164659 -10.16466 L -10.16466 10.164659 Z " fill="#fff" stroke="rgb(252,37,3)" stroke-width="4.5" stroke-opacity="1" fill-opacity="1" visibility="visible" stroke-linecap="butt" stroke-linejoin="round" stroke-miterlimit="4"></path><path transform="matrix(1 0 0 1 50 162)" id="two-21" d="M -25 -25 L 25 -25 L 25 25 L -25 25 Z " fill="rgb(152,119,182)" stroke="rgb(0,0,0)" stroke-width="0.5" stroke-opacity="0.5" fill-opacity="0.5" visibility="visible" stroke-linecap="butt" stroke-linejoin="miter" stroke-miterlimit="4"></path><path transform="matrix(1 0 0 1 100 162)" id="two-22" d="M -25 -25 L 25 -25 L 25 25 L -25 25 Z " fill="rgb(228,220,242)" stroke="rgb(0,0,0)" stroke-width="0.5" stroke-opacity="0.5" fill-opacity="0.5" visibility="visible" stroke-linecap="butt" stroke-linejoin="miter" stroke-miterlimit="4"></path><path transform="matrix(1 0 0 1 150 162)" id="two-23" d="M -25 -25 L 25 -25 L 25 25 L -25 25 Z " fill="rgb(152,119,182)" stroke="rgb(0,0,0)" stroke-width="0.5" stroke-opacity="0.5" fill-opacity="0.5" visibility="visible" stroke-linecap="butt" stroke-linejoin="miter" stroke-miterlimit="4"></path><path transform="matrix(1 0 0 1 50 212)" id="two-24" d="M -25 -25 L 25 -25 L 25 25 L -25 25 Z " fill="rgb(228,220,242)" stroke="rgb(0,0,0)" stroke-width="0.5" stroke-opacity="0.5" fill-opacity="0.5" visibility="visible" stroke-linecap="butt" stroke-linejoin="miter" stroke-miterlimit="4"></path><path transform="matrix(1 0 0 1 100 212)" id="two-25" d="M -25 -25 L 25 -25 L 25 25 L -25 25 Z " fill="rgb(152,119,182)" stroke="rgb(0,0,0)" stroke-width="0.5" stroke-opacity="0.5" fill-opacity="0.5" visibility="visible" stroke-linecap="butt" stroke-linejoin="miter" stroke-miterlimit="4"></path><path transform="matrix(1 0 0 1 150 212)" id="two-26" d="M -25 -25 L 25 -25 L 25 25 L -25 25 Z " fill="rgb(228,220,242)" stroke="rgb(0,0,0)" stroke-width="0.5" stroke-opacity="0.5" fill-opacity="0.5" visibility="visible" stroke-linecap="butt" stroke-linejoin="miter" stroke-miterlimit="4"></path><path transform="matrix(1 0 0 1 100 187)" id="two-27" d="M -50 25 L -50 -25 L 0 -25 L 0 25 L 50 25 L 50 -25 " fill="none" stroke="rgb(80,80,140)" stroke-width="10" stroke-opacity="1" fill-opacity="1" visibility="visible" stroke-linecap="round" stroke-linejoin="round" stroke-miterlimit="4"></path><path transform="matrix(1 0 0 1 50 212)" id="two-28" d="M 8.5 0 C 8.5 4.69442 4.69442 8.5 0 8.5 C -4.694421 8.5 -8.5 4.69442 -8.5 0 C -8.5 -4.694421 -4.694421 -8.5 -0.000001 -8.5 C 4.69442 -8.500001 8.5 -4.694421 8.5 0 Z " fill="rgb(80,80,140)" stroke="rgb(80,80,140)" stroke-width="0" stroke-opacity="1" fill-opacity="1" visibility="visible" stroke-linecap="butt" stroke-linejoin="miter" stroke-miterlimit="4"></path><path transform="matrix(1 0 0 1 225 162)" id="two-29" d="M -25 -25 L 25 -25 L 25 25 L -25 25 Z " fill="rgb(152,119,182)" stroke="rgb(0,0,0)" stroke-width="0.5" stroke-opacity="0.5" fill-opacity="0.5" visibility="visible" stroke-linecap="butt" stroke-linejoin="miter" stroke-miterlimit="4"></path><path transform="matrix(1 0 0 1 275 162)" id="two-30" d="M -25 -25 L 25 -25 L 25 25 L -25 25 Z " fill="rgb(228,220,242)" stroke="rgb(0,0,0)" stroke-width="0.5" stroke-opacity="0.5" fill-opacity="0.5" visibility="visible" stroke-linecap="butt" stroke-linejoin="miter" stroke-miterlimit="4"></path><path transform="matrix(1 0 0 1 325 162)" id="two-31" d="M -25 -25 L 25 -25 L 25 25 L -25 25 Z " fill="rgb(152,119,182)" stroke="rgb(0,0,0)" stroke-width="0.5" stroke-opacity="0.5" fill-opacity="0.5" visibility="visible" stroke-linecap="butt" stroke-linejoin="miter" stroke-miterlimit="4"></path><path transform="matrix(1 0 0 1 225 212)" id="two-32" d="M -25 -25 L 25 -25 L 25 25 L -25 25 Z " fill="rgb(228,220,242)" stroke="rgb(0,0,0)" stroke-width="0.5" stroke-opacity="0.5" fill-opacity="0.5" visibility="visible" stroke-linecap="butt" stroke-linejoin="miter" stroke-miterlimit="4"></path><path transform="matrix(1 0 0 1 275 212)" id="two-33" d="M -25 -25 L 25 -25 L 25 25 L -25 25 Z " fill="rgb(152,119,182)" stroke="rgb(0,0,0)" stroke-width="0.5" stroke-opacity="0.5" fill-opacity="0.5" visibility="visible" stroke-linecap="butt" stroke-linejoin="miter" stroke-miterlimit="4"></path><path transform="matrix(1 0 0 1 325 212)" id="two-34" d="M -25 -25 L 25 -25 L 25 25 L -25 25 Z " fill="rgb(228,220,242)" stroke="rgb(0,0,0)" stroke-width="0.5" stroke-opacity="0.5" fill-opacity="0.5" visibility="visible" stroke-linecap="butt" stroke-linejoin="miter" stroke-miterlimit="4"></path><path transform="matrix(1 0 0 1 275 187)" id="two-35" d="M -50 25 L 0 25 L 50 25 L 50 -25 L 0 -25 L -50 -25 " fill="none" stroke="rgb(80,80,140)" stroke-width="10" stroke-opacity="1" fill-opacity="1" visibility="visible" stroke-linecap="round" stroke-linejoin="round" stroke-miterlimit="4"></path><path transform="matrix(1 0 0 1 225 212)" id="two-36" d="M 8.5 0 C 8.5 4.69442 4.69442 8.5 0 8.5 C -4.694421 8.5 -8.5 4.69442 -8.5 0 C -8.5 -4.694421 -4.694421 -8.5 -0.000001 -8.5 C 4.69442 -8.500001 8.5 -4.694421 8.5 0 Z " fill="rgb(80,80,140)" stroke="rgb(80,80,140)" stroke-width="0" stroke-opacity="1" fill-opacity="1" visibility="visible" stroke-linecap="butt" stroke-linejoin="miter" stroke-miterlimit="4"></path><path transform="matrix(1 0 0 1 400 162)" id="two-37" d="M -25 -25 L 25 -25 L 25 25 L -25 25 Z " fill="rgb(152,119,182)" stroke="rgb(0,0,0)" stroke-width="0.5" stroke-opacity="0.5" fill-opacity="0.5" visibility="visible" stroke-linecap="butt" stroke-linejoin="miter" stroke-miterlimit="4"></path><path transform="matrix(1 0 0 1 450 162)" id="two-38" d="M -25 -25 L 25 -25 L 25 25 L -25 25 Z " fill="rgb(228,220,242)" stroke="rgb(0,0,0)" stroke-width="0.5" stroke-opacity="0.5" fill-opacity="0.5" visibility="visible" stroke-linecap="butt" stroke-linejoin="miter" stroke-miterlimit="4"></path><path transform="matrix(1 0 0 1 500 162)" id="two-39" d="M -25 -25 L 25 -25 L 25 25 L -25 25 Z " fill="rgb(152,119,182)" stroke="rgb(0,0,0)" stroke-width="0.5" stroke-opacity="0.5" fill-opacity="0.5" visibility="visible" stroke-linecap="butt" stroke-linejoin="miter" stroke-miterlimit="4"></path><path transform="matrix(1 0 0 1 400 212)" id="two-40" d="M -25 -25 L 25 -25 L 25 25 L -25 25 Z " fill="rgb(228,220,242)" stroke="rgb(0,0,0)" stroke-width="0.5" stroke-opacity="0.5" fill-opacity="0.5" visibility="visible" stroke-linecap="butt" stroke-linejoin="miter" stroke-miterlimit="4"></path><path transform="matrix(1 0 0 1 450 212)" id="two-41" d="M -25 -25 L 25 -25 L 25 25 L -25 25 Z " fill="rgb(152,119,182)" stroke="rgb(0,0,0)" stroke-width="0.5" stroke-opacity="0.5" fill-opacity="0.5" visibility="visible" stroke-linecap="butt" stroke-linejoin="miter" stroke-miterlimit="4"></path><path transform="matrix(1 0 0 1 500 212)" id="two-42" d="M -25 -25 L 25 -25 L 25 25 L -25 25 Z " fill="rgb(228,220,242)" stroke="rgb(0,0,0)" stroke-width="0.5" stroke-opacity="0.5" fill-opacity="0.5" visibility="visible" stroke-linecap="butt" stroke-linejoin="miter" stroke-miterlimit="4"></path><path transform="matrix(1 0 0 1 413.75 187)" id="two-43" d="M -13.75 25 L -13.75 -25 L 13.75 -25 " fill="none" stroke="rgb(80,80,140)" stroke-width="10" stroke-opacity="1" fill-opacity="1" visibility="visible" stroke-linecap="round" stroke-linejoin="round" stroke-miterlimit="4"></path><path transform="matrix(1 0 0 1 400 212)" id="two-44" d="M 8.5 0 C 8.5 4.69442 4.69442 8.5 0 8.5 C -4.694421 8.5 -8.5 4.69442 -8.5 0 C -8.5 -4.694421 -4.694421 -8.5 -0.000001 -8.5 C 4.69442 -8.500001 8.5 -4.694421 8.5 0 Z " fill="rgb(80,80,140)" stroke="rgb(80,80,140)" stroke-width="0" stroke-opacity="1" fill-opacity="1" visibility="visible" stroke-linecap="butt" stroke-linejoin="miter" stroke-miterlimit="4"></path><path transform="matrix(1 0 0 1 500 212)" id="two-45" d="M 10.164659 10.164659 L -10.16466 -10.16466 Z " fill="#fff" stroke="rgb(252,37,3)" stroke-width="4.5" stroke-opacity="1" fill-opacity="1" visibility="visible" stroke-linecap="round" stroke-linejoin="round" stroke-miterlimit="4"></path><path transform="matrix(1 0 0 1 500 212)" id="two-46" d="M 10.164659 -10.16466 L -10.16466 10.164659 Z " fill="#fff" stroke="rgb(252,37,3)" stroke-width="4.5" stroke-opacity="1" fill-opacity="1" visibility="visible" stroke-linecap="butt" stroke-linejoin="round" stroke-miterlimit="4"></path><path transform="matrix(1 0 0 1 600 62)" id="two-47" d="M -25 -25 L 25 -25 L 25 25 L -25 25 Z " fill="rgb(228,220,242)" stroke="rgb(0,0,0)" stroke-width="0.5" stroke-opacity="0.5" fill-opacity="0.5" visibility="visible" stroke-linecap="butt" stroke-linejoin="miter" stroke-miterlimit="4"></path><path transform="matrix(1 0 0 1 650 62)" id="two-48" d="M -25 -25 L 25 -25 L 25 25 L -25 25 Z " fill="rgb(152,119,182)" stroke="rgb(0,0,0)" stroke-width="0.5" stroke-opacity="0.5" fill-opacity="0.5" visibility="visible" stroke-linecap="butt" stroke-linejoin="miter" stroke-miterlimit="4"></path><path transform="matrix(1 0 0 1 700 62)" id="two-49" d="M -25 -25 L 25 -25 L 25 25 L -25 25 Z " fill="rgb(228,220,242)" stroke="rgb(0,0,0)" stroke-width="0.5" stroke-opacity="0.5" fill-opacity="0.5" visibility="visible" stroke-linecap="butt" stroke-linejoin="miter" stroke-miterlimit="4"></path><path transform="matrix(1 0 0 1 600 112)" id="two-50" d="M -25 -25 L 25 -25 L 25 25 L -25 25 Z " fill="rgb(152,119,182)" stroke="rgb(0,0,0)" stroke-width="0.5" stroke-opacity="0.5" fill-opacity="0.5" visibility="visible" stroke-linecap="butt" stroke-linejoin="miter" stroke-miterlimit="4"></path><path transform="matrix(1 0 0 1 650 112)" id="two-51" d="M -25 -25 L 25 -25 L 25 25 L -25 25 Z " fill="rgb(228,220,242)" stroke="rgb(0,0,0)" stroke-width="0.5" stroke-opacity="0.5" fill-opacity="0.5" visibility="visible" stroke-linecap="butt" stroke-linejoin="miter" stroke-miterlimit="4"></path><path transform="matrix(1 0 0 1 700 112)" id="two-52" d="M -25 -25 L 25 -25 L 25 25 L -25 25 Z " fill="rgb(152,119,182)" stroke="rgb(0,0,0)" stroke-width="0.5" stroke-opacity="0.5" fill-opacity="0.5" visibility="visible" stroke-linecap="butt" stroke-linejoin="miter" stroke-miterlimit="4"></path><path transform="matrix(1 0 0 1 600 162)" id="two-53" d="M -25 -25 L 25 -25 L 25 25 L -25 25 Z " fill="rgb(228,220,242)" stroke="rgb(0,0,0)" stroke-width="0.5" stroke-opacity="0.5" fill-opacity="0.5" visibility="visible" stroke-linecap="butt" stroke-linejoin="miter" stroke-miterlimit="4"></path><path transform="matrix(1 0 0 1 650 162)" id="two-54" d="M -25 -25 L 25 -25 L 25 25 L -25 25 Z " fill="rgb(152,119,182)" stroke="rgb(0,0,0)" stroke-width="0.5" stroke-opacity="0.5" fill-opacity="0.5" visibility="visible" stroke-linecap="butt" stroke-linejoin="miter" stroke-miterlimit="4"></path><path transform="matrix(1 0 0 1 700 162)" id="two-55" d="M -25 -25 L 25 -25 L 25 25 L -25 25 Z " fill="rgb(228,220,242)" stroke="rgb(0,0,0)" stroke-width="0.5" stroke-opacity="0.5" fill-opacity="0.5" visibility="visible" stroke-linecap="butt" stroke-linejoin="miter" stroke-miterlimit="4"></path><path transform="matrix(1 0 0 1 650 112)" id="two-56" d="M -50 50 L -50 0 L -50 -50 L 0 -50 L 0 0 L 0 50 L 50 50 L 50 0 L 50 -50 " fill="none" stroke="rgb(80,80,140)" stroke-width="10" stroke-opacity="1" fill-opacity="1" visibility="visible" stroke-linecap="round" stroke-linejoin="round" stroke-miterlimit="4"></path><path transform="matrix(1 0 0 1 600 162)" id="two-57" d="M 8.5 0 C 8.5 4.69442 4.69442 8.5 0 8.5 C -4.694421 8.5 -8.5 4.69442 -8.5 0 C -8.5 -4.694421 -4.694421 -8.5 -0.000001 -8.5 C 4.69442 -8.500001 8.5 -4.694421 8.5 0 Z " fill="rgb(80,80,140)" stroke="rgb(80,80,140)" stroke-width="0" stroke-opacity="1" fill-opacity="1" visibility="visible" stroke-linecap="butt" stroke-linejoin="miter" stroke-miterlimit="4"></path><path transform="matrix(1 0 0 1 775 62)" id="two-58" d="M -25 -25 L 25 -25 L 25 25 L -25 25 Z " fill="rgb(228,220,242)" stroke="rgb(0,0,0)" stroke-width="0.5" stroke-opacity="0.5" fill-opacity="0.5" visibility="visible" stroke-linecap="butt" stroke-linejoin="miter" stroke-miterlimit="4"></path><path transform="matrix(1 0 0 1 825 62)" id="two-59" d="M -25 -25 L 25 -25 L 25 25 L -25 25 Z " fill="rgb(152,119,182)" stroke="rgb(0,0,0)" stroke-width="0.5" stroke-opacity="0.5" fill-opacity="0.5" visibility="visible" stroke-linecap="butt" stroke-linejoin="miter" stroke-miterlimit="4"></path><path transform="matrix(1 0 0 1 875 62)" id="two-60" d="M -25 -25 L 25 -25 L 25 25 L -25 25 Z " fill="rgb(228,220,242)" stroke="rgb(0,0,0)" stroke-width="0.5" stroke-opacity="0.5" fill-opacity="0.5" visibility="visible" stroke-linecap="butt" stroke-linejoin="miter" stroke-miterlimit="4"></path><path transform="matrix(1 0 0 1 775 112)" id="two-61" d="M -25 -25 L 25 -25 L 25 25 L -25 25 Z " fill="rgb(152,119,182)" stroke="rgb(0,0,0)" stroke-width="0.5" stroke-opacity="0.5" fill-opacity="0.5" visibility="visible" stroke-linecap="butt" stroke-linejoin="miter" stroke-miterlimit="4"></path><path transform="matrix(1 0 0 1 825 112)" id="two-62" d="M -25 -25 L 25 -25 L 25 25 L -25 25 Z " fill="rgb(228,220,242)" stroke="rgb(0,0,0)" stroke-width="0.5" stroke-opacity="0.5" fill-opacity="0.5" visibility="visible" stroke-linecap="butt" stroke-linejoin="miter" stroke-miterlimit="4"></path><path transform="matrix(1 0 0 1 875 112)" id="two-63" d="M -25 -25 L 25 -25 L 25 25 L -25 25 Z " fill="rgb(152,119,182)" stroke="rgb(0,0,0)" stroke-width="0.5" stroke-opacity="0.5" fill-opacity="0.5" visibility="visible" stroke-linecap="butt" stroke-linejoin="miter" stroke-miterlimit="4"></path><path transform="matrix(1 0 0 1 775 162)" id="two-64" d="M -25 -25 L 25 -25 L 25 25 L -25 25 Z " fill="rgb(228,220,242)" stroke="rgb(0,0,0)" stroke-width="0.5" stroke-opacity="0.5" fill-opacity="0.5" visibility="visible" stroke-linecap="butt" stroke-linejoin="miter" stroke-miterlimit="4"></path><path transform="matrix(1 0 0 1 825 162)" id="two-65" d="M -25 -25 L 25 -25 L 25 25 L -25 25 Z " fill="rgb(152,119,182)" stroke="rgb(0,0,0)" stroke-width="0.5" stroke-opacity="0.5" fill-opacity="0.5" visibility="visible" stroke-linecap="butt" stroke-linejoin="miter" stroke-miterlimit="4"></path><path transform="matrix(1 0 0 1 875 162)" id="two-66" d="M -25 -25 L 25 -25 L 25 25 L -25 25 Z " fill="rgb(228,220,242)" stroke="rgb(0,0,0)" stroke-width="0.5" stroke-opacity="0.5" fill-opacity="0.5" visibility="visible" stroke-linecap="butt" stroke-linejoin="miter" stroke-miterlimit="4"></path><path transform="matrix(1 0 0 1 825 112)" id="two-67" d="M -50 50 L -50 0 L 0 0 L 0 50 L 50 50 L 50 0 L 50 -50 L 0 -50 L -50 -50 " fill="none" stroke="rgb(80,80,140)" stroke-width="10" stroke-opacity="1" fill-opacity="1" visibility="visible" stroke-linecap="round" stroke-linejoin="round" stroke-miterlimit="4"></path><path transform="matrix(1 0 0 1 775 162)" id="two-68" d="M 8.5 0 C 8.5 4.69442 4.69442 8.5 0 8.5 C -4.694421 8.5 -8.5 4.69442 -8.5 0 C -8.5 -4.694421 -4.694421 -8.5 -0.000001 -8.5 C 4.69442 -8.500001 8.5 -4.694421 8.5 0 Z " fill="rgb(80,80,140)" stroke="rgb(80,80,140)" stroke-width="0" stroke-opacity="1" fill-opacity="1" visibility="visible" stroke-linecap="butt" stroke-linejoin="miter" stroke-miterlimit="4"></path><path transform="matrix(1 0 0 1 950 62)" id="two-69" d="M -25 -25 L 25 -25 L 25 25 L -25 25 Z " fill="rgb(228,220,242)" stroke="rgb(0,0,0)" stroke-width="0.5" stroke-opacity="0.5" fill-opacity="0.5" visibility="visible" stroke-linecap="butt" stroke-linejoin="miter" stroke-miterlimit="4"></path><path transform="matrix(1 0 0 1 1000 62)" id="two-70" d="M -25 -25 L 25 -25 L 25 25 L -25 25 Z " fill="rgb(152,119,182)" stroke="rgb(0,0,0)" stroke-width="0.5" stroke-opacity="0.5" fill-opacity="0.5" visibility="visible" stroke-linecap="butt" stroke-linejoin="miter" stroke-miterlimit="4"></path><path transform="matrix(1 0 0 1 1050 62)" id="two-71" d="M -25 -25 L 25 -25 L 25 25 L -25 25 Z " fill="rgb(228,220,242)" stroke="rgb(0,0,0)" stroke-width="0.5" stroke-opacity="0.5" fill-opacity="0.5" visibility="visible" stroke-linecap="butt" stroke-linejoin="miter" stroke-miterlimit="4"></path><path transform="matrix(1 0 0 1 950 112)" id="two-72" d="M -25 -25 L 25 -25 L 25 25 L -25 25 Z " fill="rgb(152,119,182)" stroke="rgb(0,0,0)" stroke-width="0.5" stroke-opacity="0.5" fill-opacity="0.5" visibility="visible" stroke-linecap="butt" stroke-linejoin="miter" stroke-miterlimit="4"></path><path transform="matrix(1 0 0 1 1000 112)" id="two-73" d="M -25 -25 L 25 -25 L 25 25 L -25 25 Z " fill="rgb(228,220,242)" stroke="rgb(0,0,0)" stroke-width="0.5" stroke-opacity="0.5" fill-opacity="0.5" visibility="visible" stroke-linecap="butt" stroke-linejoin="miter" stroke-miterlimit="4"></path><path transform="matrix(1 0 0 1 1050 112)" id="two-74" d="M -25 -25 L 25 -25 L 25 25 L -25 25 Z " fill="rgb(152,119,182)" stroke="rgb(0,0,0)" stroke-width="0.5" stroke-opacity="0.5" fill-opacity="0.5" visibility="visible" stroke-linecap="butt" stroke-linejoin="miter" stroke-miterlimit="4"></path><path transform="matrix(1 0 0 1 950 162)" id="two-75" d="M -25 -25 L 25 -25 L 25 25 L -25 25 Z " fill="rgb(228,220,242)" stroke="rgb(0,0,0)" stroke-width="0.5" stroke-opacity="0.5" fill-opacity="0.5" visibility="visible" stroke-linecap="butt" stroke-linejoin="miter" stroke-miterlimit="4"></path><path transform="matrix(1 0 0 1 1000 162)" id="two-76" d="M -25 -25 L 25 -25 L 25 25 L -25 25 Z " fill="rgb(152,119,182)" stroke="rgb(0,0,0)" stroke-width="0.5" stroke-opacity="0.5" fill-opacity="0.5" visibility="visible" stroke-linecap="butt" stroke-linejoin="miter" stroke-miterlimit="4"></path><path transform="matrix(1 0 0 1 1050 162)" id="two-77" d="M -25 -25 L 25 -25 L 25 25 L -25 25 Z " fill="rgb(228,220,242)" stroke="rgb(0,0,0)" stroke-width="0.5" stroke-opacity="0.5" fill-opacity="0.5" visibility="visible" stroke-linecap="butt" stroke-linejoin="miter" stroke-miterlimit="4"></path><path transform="matrix(1 0 0 1 1000 112)" id="two-78" d="M -50 50 L 0 50 L 0 0 L -50 0 L -50 -50 L 0 -50 L 50 -50 L 50 0 L 50 50 " fill="none" stroke="rgb(80,80,140)" stroke-width="10" stroke-opacity="1" fill-opacity="1" visibility="visible" stroke-linecap="round" stroke-linejoin="round" stroke-miterlimit="4"></path><path transform="matrix(1 0 0 1 950 162)" id="two-79" d="M 8.5 0 C 8.5 4.69442 4.69442 8.5 0 8.5 C -4.694421 8.5 -8.5 4.69442 -8.5 0 C -8.5 -4.694421 -4.694421 -8.5 -0.000001 -8.5 C 4.69442 -8.500001 8.5 -4.694421 8.5 0 Z " fill="rgb(80,80,140)" stroke="rgb(80,80,140)" stroke-width="0" stroke-opacity="1" fill-opacity="1" visibility="visible" stroke-linecap="butt" stroke-linejoin="miter" stroke-miterlimit="4"></path></g></svg>