 <svg version="1.1" style="overflow: hidden; display: block;" width="550" height="450"><defs></defs><g id="two-0" transform="matrix(1 0 0 1 0 0)" opacity="1"><path transform="matrix(1 0 0 1 50 50)" id="two-1" d="M -25 -25 L 25 -25 L 25 25 L -25 25 Z " fill="rgb(152,119,182)" stroke="rgb(0,0,0)" stroke-width="0.5" stroke-opacity="0.5" fill-opacity="0.5" visibility="visible" stroke-linecap="butt" stroke-linejoin="miter" stroke-miterlimit="4"></path><path transform="matrix(1 0 0 1 100 50)" id="two-2" d="M -25 -25 L 25 -25 L 25 25 L -25 25 Z " fill="rgb(228,220,242)" stroke="rgb(0,0,0)" stroke-width="0.5" stroke-opacity="0.5" fill-opacity="0.5" visibility="visible" stroke-linecap="butt" stroke-linejoin="miter" stroke-miterlimit="4"></path><path transform="matrix(1 0 0 1 50 100)" id="two-3" d="M -25 -25 L 25 -25 L 25 25 L -25 25 Z " fill="rgb(228,220,242)" stroke="rgb(0,0,0)" stroke-width="0.5" stroke-opacity="0.5" fill-opacity="0.5" visibility="visible" stroke-linecap="butt" stroke-linejoin="miter" stroke-miterlimit="4"></path><path transform="matrix(1 0 0 1 100 100)" id="two-4" d="M -25 -25 L 25 -25 L 25 25 L -25 25 Z " fill="rgb(152,119,182)" stroke="rgb(0,0,0)" stroke-width="0.5" stroke-opacity="0.5" fill-opacity="0.5" visibility="visible" stroke-linecap="butt" stroke-linejoin="miter" stroke-miterlimit="4"></path><path transform="matrix(1 0 0 1 75 75)" id="two-5" d="M -25 25 L 25 25 L 25 -25 L -25 -25 " fill="none" stroke="rgb(80,80,140)" stroke-width="10" stroke-opacity="1" fill-opacity="1" visibility="visible" stroke-linecap="round" stroke-linejoin="round" stroke-miterlimit="4"></path><path transform="matrix(1 0 0 1 50 100)" id="two-6" d="M 8.5 0 C 8.5 4.69442 4.69442 8.5 0 8.5 C -4.694421 8.5 -8.5 4.69442 -8.5 0 C -8.5 -4.694421 -4.694421 -8.5 -0.000001 -8.5 C 4.69442 -8.500001 8.5 -4.694421 8.5 0 Z " fill="rgb(80,80,140)" stroke="rgb(80,80,140)" stroke-width="0" stroke-opacity="1" fill-opacity="1" visibility="visible" stroke-linecap="butt" stroke-linejoin="miter" stroke-miterlimit="4"></path><path transform="matrix(1 0 0 1 175 50)" id="two-7" d="M -25 -25 L 25 -25 L 25 25 L -25 25 Z " fill="rgb(152,119,182)" stroke="rgb(0,0,0)" stroke-width="0.5" stroke-opacity="0.5" fill-opacity="0.5" visibility="visible" stroke-linecap="butt" stroke-linejoin="miter" stroke-miterlimit="4"></path><path transform="matrix(1 0 0 1 225 50)" id="two-8" d="M -25 -25 L 25 -25 L 25 25 L -25 25 Z " fill="rgb(228,220,242)" stroke="rgb(0,0,0)" stroke-width="0.5" stroke-opacity="0.5" fill-opacity="0.5" visibility="visible" stroke-linecap="butt" stroke-linejoin="miter" stroke-miterlimit="4"></path><path transform="matrix(1 0 0 1 175 100)" id="two-9" d="M -25 -25 L 25 -25 L 25 25 L -25 25 Z " fill="rgb(228,220,242)" stroke="rgb(0,0,0)" stroke-width="0.5" stroke-opacity="0.5" fill-opacity="0.5" visibility="visible" stroke-linecap="butt" stroke-linejoin="miter" stroke-miterlimit="4"></path><path transform="matrix(1 0 0 1 225 100)" id="two-10" d="M -25 -25 L 25 -25 L 25 25 L -25 25 Z " fill="rgb(152,119,182)" stroke="rgb(0,0,0)" stroke-width="0.5" stroke-opacity="0.5" fill-opacity="0.5" visibility="visible" stroke-linecap="butt" stroke-linejoin="miter" stroke-miterlimit="4"></path><path transform="matrix(1 0 0 1 200 75)" id="two-11" d="M -25 25 L -25 -25 L 25 -25 L 25 25 " fill="none" stroke="rgb(80,80,140)" stroke-width="10" stroke-opacity="1" fill-opacity="1" visibility="visible" stroke-linecap="round" stroke-linejoin="round" stroke-miterlimit="4"></path><path transform="matrix(1 0 0 1 175 100)" id="two-12" d="M 8.5 0 C 8.5 4.69442 4.69442 8.5 0 8.5 C -4.694421 8.5 -8.5 4.69442 -8.5 0 C -8.5 -4.694421 -4.694421 -8.5 -0.000001 -8.5 C 4.69442 -8.500001 8.5 -4.694421 8.5 0 Z " fill="rgb(80,80,140)" stroke="rgb(80,80,140)" stroke-width="0" stroke-opacity="1" fill-opacity="1" visibility="visible" stroke-linecap="butt" stroke-linejoin="miter" stroke-miterlimit="4"></path><path transform="matrix(1 0 0 1 300 50)" id="two-13" d="M -25 -25 L 25 -25 L 25 25 L -25 25 Z " fill="rgb(152,119,182)" stroke="rgb(0,0,0)" stroke-width="0.5" stroke-opacity="0.5" fill-opacity="0.5" visibility="visible" stroke-linecap="butt" stroke-linejoin="miter" stroke-miterlimit="4"></path><path transform="matrix(1 0 0 1 350 50)" id="two-14" d="M -25 -25 L 25 -25 L 25 25 L -25 25 Z " fill="rgb(228,220,242)" stroke="rgb(0,0,0)" stroke-width="0.5" stroke-opacity="0.5" fill-opacity="0.5" visibility="visible" stroke-linecap="butt" stroke-linejoin="miter" stroke-miterlimit="4"></path><path transform="matrix(1 0 0 1 300 100)" id="two-15" d="M -25 -25 L 25 -25 L 25 25 L -25 25 Z " fill="rgb(228,220,242)" stroke="rgb(0,0,0)" stroke-width="0.5" stroke-opacity="0.5" fill-opacity="0.5" visibility="visible" stroke-linecap="butt" stroke-linejoin="miter" stroke-miterlimit="4"></path><path transform="matrix(1 0 0 1 350 100)" id="two-16" d="M -25 -25 L 25 -25 L 25 25 L -25 25 Z " fill="rgb(152,119,182)" stroke="rgb(0,0,0)" stroke-width="0.5" stroke-opacity="0.5" fill-opacity="0.5" visibility="visible" stroke-linecap="butt" stroke-linejoin="miter" stroke-miterlimit="4"></path><path transform="matrix(1 0 0 1 300 86.25)" id="two-17" d="M 0 13.75 L 0 -13.75 " fill="none" stroke="rgb(80,80,140)" stroke-width="10" stroke-opacity="1" fill-opacity="1" visibility="visible" stroke-linecap="round" stroke-linejoin="round" stroke-miterlimit="4"></path><path transform="matrix(1 0 0 1 300 100)" id="two-18" d="M 8.5 0 C 8.5 4.69442 4.69442 8.5 0 8.5 C -4.694421 8.5 -8.5 4.69442 -8.5 0 C -8.5 -4.694421 -4.694421 -8.5 -0.000001 -8.5 C 4.69442 -8.500001 8.5 -4.694421 8.5 0 Z " fill="rgb(80,80,140)" stroke="rgb(80,80,140)" stroke-width="0" stroke-opacity="1" fill-opacity="1" visibility="visible" stroke-linecap="butt" stroke-linejoin="miter" stroke-miterlimit="4"></path><path transform="matrix(1 0 0 1 350 50)" id="two-19" d="M 10.164659 10.164659 L -10.16466 -10.16466 Z " fill="#fff" stroke="rgb(252,37,3)" stroke-width="4.5" stroke-opacity="1" fill-opacity="1" visibility="visible" stroke-linecap="round" stroke-linejoin="round" stroke-miterlimit="4"></path><path transform="matrix(1 0 0 1 350 50)" id="two-20" d="M 10.164659 -10.16466 L -10.16466 10.164659 Z " fill="#fff" stroke="rgb(252,37,3)" stroke-width="4.5" stroke-opacity="1" fill-opacity="1" visibility="visible" stroke-linecap="butt" stroke-linejoin="round" stroke-miterlimit="4"></path><path transform="matrix(1 0 0 1 50 175)" id="two-21" d="M -25 -25 L 25 -25 L 25 25 L -25 25 Z " fill="rgb(152,119,182)" stroke="rgb(0,0,0)" stroke-width="0.5" stroke-opacity="0.5" fill-opacity="0.5" visibility="visible" stroke-linecap="butt" stroke-linejoin="miter" stroke-miterlimit="4"></path><path transform="matrix(1 0 0 1 100 175)" id="two-22" d="M -25 -25 L 25 -25 L 25 25 L -25 25 Z " fill="rgb(228,220,242)" stroke="rgb(0,0,0)" stroke-width="0.5" stroke-opacity="0.5" fill-opacity="0.5" visibility="visible" stroke-linecap="butt" stroke-linejoin="miter" stroke-miterlimit="4"></path><path transform="matrix(1 0 0 1 150 175)" id="two-23" d="M -25 -25 L 25 -25 L 25 25 L -25 25 Z " fill="rgb(152,119,182)" stroke="rgb(0,0,0)" stroke-width="0.5" stroke-opacity="0.5" fill-opacity="0.5" visibility="visible" stroke-linecap="butt" stroke-linejoin="miter" stroke-miterlimit="4"></path><path transform="matrix(1 0 0 1 50 225)" id="two-24" d="M -25 -25 L 25 -25 L 25 25 L -25 25 Z " fill="rgb(228,220,242)" stroke="rgb(0,0,0)" stroke-width="0.5" stroke-opacity="0.5" fill-opacity="0.5" visibility="visible" stroke-linecap="butt" stroke-linejoin="miter" stroke-miterlimit="4"></path><path transform="matrix(1 0 0 1 100 225)" id="two-25" d="M -25 -25 L 25 -25 L 25 25 L -25 25 Z " fill="rgb(152,119,182)" stroke="rgb(0,0,0)" stroke-width="0.5" stroke-opacity="0.5" fill-opacity="0.5" visibility="visible" stroke-linecap="butt" stroke-linejoin="miter" stroke-miterlimit="4"></path><path transform="matrix(1 0 0 1 150 225)" id="two-26" d="M -25 -25 L 25 -25 L 25 25 L -25 25 Z " fill="rgb(228,220,242)" stroke="rgb(0,0,0)" stroke-width="0.5" stroke-opacity="0.5" fill-opacity="0.5" visibility="visible" stroke-linecap="butt" stroke-linejoin="miter" stroke-miterlimit="4"></path><path transform="matrix(1 0 0 1 100 200)" id="two-27" d="M -50 25 L -50 -25 L 0 -25 L 0 25 L 50 25 L 50 -25 " fill="none" stroke="rgb(80,80,140)" stroke-width="10" stroke-opacity="1" fill-opacity="1" visibility="visible" stroke-linecap="round" stroke-linejoin="round" stroke-miterlimit="4"></path><path transform="matrix(1 0 0 1 50 225)" id="two-28" d="M 8.5 0 C 8.5 4.69442 4.69442 8.5 0 8.5 C -4.694421 8.5 -8.5 4.69442 -8.5 0 C -8.5 -4.694421 -4.694421 -8.5 -0.000001 -8.5 C 4.69442 -8.500001 8.5 -4.694421 8.5 0 Z " fill="rgb(80,80,140)" stroke="rgb(80,80,140)" stroke-width="0" stroke-opacity="1" fill-opacity="1" visibility="visible" stroke-linecap="butt" stroke-linejoin="miter" stroke-miterlimit="4"></path><path transform="matrix(1 0 0 1 225 175)" id="two-29" d="M -25 -25 L 25 -25 L 25 25 L -25 25 Z " fill="rgb(152,119,182)" stroke="rgb(0,0,0)" stroke-width="0.5" stroke-opacity="0.5" fill-opacity="0.5" visibility="visible" stroke-linecap="butt" stroke-linejoin="miter" stroke-miterlimit="4"></path><path transform="matrix(1 0 0 1 275 175)" id="two-30" d="M -25 -25 L 25 -25 L 25 25 L -25 25 Z " fill="rgb(228,220,242)" stroke="rgb(0,0,0)" stroke-width="0.5" stroke-opacity="0.5" fill-opacity="0.5" visibility="visible" stroke-linecap="butt" stroke-linejoin="miter" stroke-miterlimit="4"></path><path transform="matrix(1 0 0 1 325 175)" id="two-31" d="M -25 -25 L 25 -25 L 25 25 L -25 25 Z " fill="rgb(152,119,182)" stroke="rgb(0,0,0)" stroke-width="0.5" stroke-opacity="0.5" fill-opacity="0.5" visibility="visible" stroke-linecap="butt" stroke-linejoin="miter" stroke-miterlimit="4"></path><path transform="matrix(1 0 0 1 225 225)" id="two-32" d="M -25 -25 L 25 -25 L 25 25 L -25 25 Z " fill="rgb(228,220,242)" stroke="rgb(0,0,0)" stroke-width="0.5" stroke-opacity="0.5" fill-opacity="0.5" visibility="visible" stroke-linecap="butt" stroke-linejoin="miter" stroke-miterlimit="4"></path><path transform="matrix(1 0 0 1 275 225)" id="two-33" d="M -25 -25 L 25 -25 L 25 25 L -25 25 Z " fill="rgb(152,119,182)" stroke="rgb(0,0,0)" stroke-width="0.5" stroke-opacity="0.5" fill-opacity="0.5" visibility="visible" stroke-linecap="butt" stroke-linejoin="miter" stroke-miterlimit="4"></path><path transform="matrix(1 0 0 1 325 225)" id="two-34" d="M -25 -25 L 25 -25 L 25 25 L -25 25 Z " fill="rgb(228,220,242)" stroke="rgb(0,0,0)" stroke-width="0.5" stroke-opacity="0.5" fill-opacity="0.5" visibility="visible" stroke-linecap="butt" stroke-linejoin="miter" stroke-miterlimit="4"></path><path transform="matrix(1 0 0 1 275 200)" id="two-35" d="M -50 25 L 0 25 L 50 25 L 50 -25 L 0 -25 L -50 -25 " fill="none" stroke="rgb(80,80,140)" stroke-width="10" stroke-opacity="1" fill-opacity="1" visibility="visible" stroke-linecap="round" stroke-linejoin="round" stroke-miterlimit="4"></path><path transform="matrix(1 0 0 1 225 225)" id="two-36" d="M 8.5 0 C 8.5 4.69442 4.69442 8.5 0 8.5 C -4.694421 8.5 -8.5 4.69442 -8.5 0 C -8.5 -4.694421 -4.694421 -8.5 -0.000001 -8.5 C 4.69442 -8.500001 8.5 -4.694421 8.5 0 Z " fill="rgb(80,80,140)" stroke="rgb(80,80,140)" stroke-width="0" stroke-opacity="1" fill-opacity="1" visibility="visible" stroke-linecap="butt" stroke-linejoin="miter" stroke-miterlimit="4"></path><path transform="matrix(1 0 0 1 400 175)" id="two-37" d="M -25 -25 L 25 -25 L 25 25 L -25 25 Z " fill="rgb(152,119,182)" stroke="rgb(0,0,0)" stroke-width="0.5" stroke-opacity="0.5" fill-opacity="0.5" visibility="visible" stroke-linecap="butt" stroke-linejoin="miter" stroke-miterlimit="4"></path><path transform="matrix(1 0 0 1 450 175)" id="two-38" d="M -25 -25 L 25 -25 L 25 25 L -25 25 Z " fill="rgb(228,220,242)" stroke="rgb(0,0,0)" stroke-width="0.5" stroke-opacity="0.5" fill-opacity="0.5" visibility="visible" stroke-linecap="butt" stroke-linejoin="miter" stroke-miterlimit="4"></path><path transform="matrix(1 0 0 1 500 175)" id="two-39" d="M -25 -25 L 25 -25 L 25 25 L -25 25 Z " fill="rgb(152,119,182)" stroke="rgb(0,0,0)" stroke-width="0.5" stroke-opacity="0.5" fill-opacity="0.5" visibility="visible" stroke-linecap="butt" stroke-linejoin="miter" stroke-miterlimit="4"></path><path transform="matrix(1 0 0 1 400 225)" id="two-40" d="M -25 -25 L 25 -25 L 25 25 L -25 25 Z " fill="rgb(228,220,242)" stroke="rgb(0,0,0)" stroke-width="0.5" stroke-opacity="0.5" fill-opacity="0.5" visibility="visible" stroke-linecap="butt" stroke-linejoin="miter" stroke-miterlimit="4"></path><path transform="matrix(1 0 0 1 450 225)" id="two-41" d="M -25 -25 L 25 -25 L 25 25 L -25 25 Z " fill="rgb(152,119,182)" stroke="rgb(0,0,0)" stroke-width="0.5" stroke-opacity="0.5" fill-opacity="0.5" visibility="visible" stroke-linecap="butt" stroke-linejoin="miter" stroke-miterlimit="4"></path><path transform="matrix(1 0 0 1 500 225)" id="two-42" d="M -25 -25 L 25 -25 L 25 25 L -25 25 Z " fill="rgb(228,220,242)" stroke="rgb(0,0,0)" stroke-width="0.5" stroke-opacity="0.5" fill-opacity="0.5" visibility="visible" stroke-linecap="butt" stroke-linejoin="miter" stroke-miterlimit="4"></path><path transform="matrix(1 0 0 1 413.75 200)" id="two-43" d="M -13.75 25 L -13.75 -25 L 13.75 -25 " fill="none" stroke="rgb(80,80,140)" stroke-width="10" stroke-opacity="1" fill-opacity="1" visibility="visible" stroke-linecap="round" stroke-linejoin="round" stroke-miterlimit="4"></path><path transform="matrix(1 0 0 1 400 225)" id="two-44" d="M 8.5 0 C 8.5 4.69442 4.69442 8.5 0 8.5 C -4.694421 8.5 -8.5 4.69442 -8.5 0 C -8.5 -4.694421 -4.694421 -8.5 -0.000001 -8.5 C 4.69442 -8.500001 8.5 -4.694421 8.5 0 Z " fill="rgb(80,80,140)" stroke="rgb(80,80,140)" stroke-width="0" stroke-opacity="1" fill-opacity="1" visibility="visible" stroke-linecap="butt" stroke-linejoin="miter" stroke-miterlimit="4"></path><path transform="matrix(1 0 0 1 500 225)" id="two-45" d="M 10.164659 10.164659 L -10.16466 -10.16466 Z " fill="#fff" stroke="rgb(252,37,3)" stroke-width="4.5" stroke-opacity="1" fill-opacity="1" visibility="visible" stroke-linecap="round" stroke-linejoin="round" stroke-miterlimit="4"></path><path transform="matrix(1 0 0 1 500 225)" id="two-46" d="M 10.164659 -10.16466 L -10.16466 10.164659 Z " fill="#fff" stroke="rgb(252,37,3)" stroke-width="4.5" stroke-opacity="1" fill-opacity="1" visibility="visible" stroke-linecap="butt" stroke-linejoin="round" stroke-miterlimit="4"></path><path transform="matrix(1 0 0 1 50 300)" id="two-47" d="M -25 -25 L 25 -25 L 25 25 L -25 25 Z " fill="rgb(228,220,242)" stroke="rgb(0,0,0)" stroke-width="0.5" stroke-opacity="0.5" fill-opacity="0.5" visibility="visible" stroke-linecap="butt" stroke-linejoin="miter" stroke-miterlimit="4"></path><path transform="matrix(1 0 0 1 100 300)" id="two-48" d="M -25 -25 L 25 -25 L 25 25 L -25 25 Z " fill="rgb(152,119,182)" stroke="rgb(0,0,0)" stroke-width="0.5" stroke-opacity="0.5" fill-opacity="0.5" visibility="visible" stroke-linecap="butt" stroke-linejoin="miter" stroke-miterlimit="4"></path><path transform="matrix(1 0 0 1 150 300)" id="two-49" d="M -25 -25 L 25 -25 L 25 25 L -25 25 Z " fill="rgb(228,220,242)" stroke="rgb(0,0,0)" stroke-width="0.5" stroke-opacity="0.5" fill-opacity="0.5" visibility="visible" stroke-linecap="butt" stroke-linejoin="miter" stroke-miterlimit="4"></path><path transform="matrix(1 0 0 1 50 350)" id="two-50" d="M -25 -25 L 25 -25 L 25 25 L -25 25 Z " fill="rgb(152,119,182)" stroke="rgb(0,0,0)" stroke-width="0.5" stroke-opacity="0.5" fill-opacity="0.5" visibility="visible" stroke-linecap="butt" stroke-linejoin="miter" stroke-miterlimit="4"></path><path transform="matrix(1 0 0 1 100 350)" id="two-51" d="M -25 -25 L 25 -25 L 25 25 L -25 25 Z " fill="rgb(228,220,242)" stroke="rgb(0,0,0)" stroke-width="0.5" stroke-opacity="0.5" fill-opacity="0.5" visibility="visible" stroke-linecap="butt" stroke-linejoin="miter" stroke-miterlimit="4"></path><path transform="matrix(1 0 0 1 150 350)" id="two-52" d="M -25 -25 L 25 -25 L 25 25 L -25 25 Z " fill="rgb(152,119,182)" stroke="rgb(0,0,0)" stroke-width="0.5" stroke-opacity="0.5" fill-opacity="0.5" visibility="visible" stroke-linecap="butt" stroke-linejoin="miter" stroke-miterlimit="4"></path><path transform="matrix(1 0 0 1 50 400)" id="two-53" d="M -25 -25 L 25 -25 L 25 25 L -25 25 Z " fill="rgb(228,220,242)" stroke="rgb(0,0,0)" stroke-width="0.5" stroke-opacity="0.5" fill-opacity="0.5" visibility="visible" stroke-linecap="butt" stroke-linejoin="miter" stroke-miterlimit="4"></path><path transform="matrix(1 0 0 1 100 400)" id="two-54" d="M -25 -25 L 25 -25 L 25 25 L -25 25 Z " fill="rgb(152,119,182)" stroke="rgb(0,0,0)" stroke-width="0.5" stroke-opacity="0.5" fill-opacity="0.5" visibility="visible" stroke-linecap="butt" stroke-linejoin="miter" stroke-miterlimit="4"></path><path transform="matrix(1 0 0 1 150 400)" id="two-55" d="M -25 -25 L 25 -25 L 25 25 L -25 25 Z " fill="rgb(228,220,242)" stroke="rgb(0,0,0)" stroke-width="0.5" stroke-opacity="0.5" fill-opacity="0.5" visibility="visible" stroke-linecap="butt" stroke-linejoin="miter" stroke-miterlimit="4"></path><path transform="matrix(1 0 0 1 100 350)" id="two-56" d="M -50 50 L -50 0 L -50 -50 L 0 -50 L 0 0 L 0 50 L 50 50 L 50 0 L 50 -50 " fill="none" stroke="rgb(80,80,140)" stroke-width="10" stroke-opacity="1" fill-opacity="1" visibility="visible" stroke-linecap="round" stroke-linejoin="round" stroke-miterlimit="4"></path><path transform="matrix(1 0 0 1 50 400)" id="two-57" d="M 8.5 0 C 8.5 4.69442 4.69442 8.5 0 8.5 C -4.694421 8.5 -8.5 4.69442 -8.5 0 C -8.5 -4.694421 -4.694421 -8.5 -0.000001 -8.5 C 4.69442 -8.500001 8.5 -4.694421 8.5 0 Z " fill="rgb(80,80,140)" stroke="rgb(80,80,140)" stroke-width="0" stroke-opacity="1" fill-opacity="1" visibility="visible" stroke-linecap="butt" stroke-linejoin="miter" stroke-miterlimit="4"></path><path transform="matrix(1 0 0 1 225 300)" id="two-58" d="M -25 -25 L 25 -25 L 25 25 L -25 25 Z " fill="rgb(228,220,242)" stroke="rgb(0,0,0)" stroke-width="0.5" stroke-opacity="0.5" fill-opacity="0.5" visibility="visible" stroke-linecap="butt" stroke-linejoin="miter" stroke-miterlimit="4"></path><path transform="matrix(1 0 0 1 275 300)" id="two-59" d="M -25 -25 L 25 -25 L 25 25 L -25 25 Z " fill="rgb(152,119,182)" stroke="rgb(0,0,0)" stroke-width="0.5" stroke-opacity="0.5" fill-opacity="0.5" visibility="visible" stroke-linecap="butt" stroke-linejoin="miter" stroke-miterlimit="4"></path><path transform="matrix(1 0 0 1 325 300)" id="two-60" d="M -25 -25 L 25 -25 L 25 25 L -25 25 Z " fill="rgb(228,220,242)" stroke="rgb(0,0,0)" stroke-width="0.5" stroke-opacity="0.5" fill-opacity="0.5" visibility="visible" stroke-linecap="butt" stroke-linejoin="miter" stroke-miterlimit="4"></path><path transform="matrix(1 0 0 1 225 350)" id="two-61" d="M -25 -25 L 25 -25 L 25 25 L -25 25 Z " fill="rgb(152,119,182)" stroke="rgb(0,0,0)" stroke-width="0.5" stroke-opacity="0.5" fill-opacity="0.5" visibility="visible" stroke-linecap="butt" stroke-linejoin="miter" stroke-miterlimit="4"></path><path transform="matrix(1 0 0 1 275 350)" id="two-62" d="M -25 -25 L 25 -25 L 25 25 L -25 25 Z " fill="rgb(228,220,242)" stroke="rgb(0,0,0)" stroke-width="0.5" stroke-opacity="0.5" fill-opacity="0.5" visibility="visible" stroke-linecap="butt" stroke-linejoin="miter" stroke-miterlimit="4"></path><path transform="matrix(1 0 0 1 325 350)" id="two-63" d="M -25 -25 L 25 -25 L 25 25 L -25 25 Z " fill="rgb(152,119,182)" stroke="rgb(0,0,0)" stroke-width="0.5" stroke-opacity="0.5" fill-opacity="0.5" visibility="visible" stroke-linecap="butt" stroke-linejoin="miter" stroke-miterlimit="4"></path><path transform="matrix(1 0 0 1 225 400)" id="two-64" d="M -25 -25 L 25 -25 L 25 25 L -25 25 Z " fill="rgb(228,220,242)" stroke="rgb(0,0,0)" stroke-width="0.5" stroke-opacity="0.5" fill-opacity="0.5" visibility="visible" stroke-linecap="butt" stroke-linejoin="miter" stroke-miterlimit="4"></path><path transform="matrix(1 0 0 1 275 400)" id="two-65" d="M -25 -25 L 25 -25 L 25 25 L -25 25 Z " fill="rgb(152,119,182)" stroke="rgb(0,0,0)" stroke-width="0.5" stroke-opacity="0.5" fill-opacity="0.5" visibility="visible" stroke-linecap="butt" stroke-linejoin="miter" stroke-miterlimit="4"></path><path transform="matrix(1 0 0 1 325 400)" id="two-66" d="M -25 -25 L 25 -25 L 25 25 L -25 25 Z " fill="rgb(228,220,242)" stroke="rgb(0,0,0)" stroke-width="0.5" stroke-opacity="0.5" fill-opacity="0.5" visibility="visible" stroke-linecap="butt" stroke-linejoin="miter" stroke-miterlimit="4"></path><path transform="matrix(1 0 0 1 275 350)" id="two-67" d="M -50 50 L -50 0 L 0 0 L 0 50 L 50 50 L 50 0 L 50 -50 L 0 -50 L -50 -50 " fill="none" stroke="rgb(80,80,140)" stroke-width="10" stroke-opacity="1" fill-opacity="1" visibility="visible" stroke-linecap="round" stroke-linejoin="round" stroke-miterlimit="4"></path><path transform="matrix(1 0 0 1 225 400)" id="two-68" d="M 8.5 0 C 8.5 4.69442 4.69442 8.5 0 8.5 C -4.694421 8.5 -8.5 4.69442 -8.5 0 C -8.5 -4.694421 -4.694421 -8.5 -0.000001 -8.5 C 4.69442 -8.500001 8.5 -4.694421 8.5 0 Z " fill="rgb(80,80,140)" stroke="rgb(80,80,140)" stroke-width="0" stroke-opacity="1" fill-opacity="1" visibility="visible" stroke-linecap="butt" stroke-linejoin="miter" stroke-miterlimit="4"></path><path transform="matrix(1 0 0 1 400 300)" id="two-69" d="M -25 -25 L 25 -25 L 25 25 L -25 25 Z " fill="rgb(228,220,242)" stroke="rgb(0,0,0)" stroke-width="0.5" stroke-opacity="0.5" fill-opacity="0.5" visibility="visible" stroke-linecap="butt" stroke-linejoin="miter" stroke-miterlimit="4"></path><path transform="matrix(1 0 0 1 450 300)" id="two-70" d="M -25 -25 L 25 -25 L 25 25 L -25 25 Z " fill="rgb(152,119,182)" stroke="rgb(0,0,0)" stroke-width="0.5" stroke-opacity="0.5" fill-opacity="0.5" visibility="visible" stroke-linecap="butt" stroke-linejoin="miter" stroke-miterlimit="4"></path><path transform="matrix(1 0 0 1 500 300)" id="two-71" d="M -25 -25 L 25 -25 L 25 25 L -25 25 Z " fill="rgb(228,220,242)" stroke="rgb(0,0,0)" stroke-width="0.5" stroke-opacity="0.5" fill-opacity="0.5" visibility="visible" stroke-linecap="butt" stroke-linejoin="miter" stroke-miterlimit="4"></path><path transform="matrix(1 0 0 1 400 350)" id="two-72" d="M -25 -25 L 25 -25 L 25 25 L -25 25 Z " fill="rgb(152,119,182)" stroke="rgb(0,0,0)" stroke-width="0.5" stroke-opacity="0.5" fill-opacity="0.5" visibility="visible" stroke-linecap="butt" stroke-linejoin="miter" stroke-miterlimit="4"></path><path transform="matrix(1 0 0 1 450 350)" id="two-73" d="M -25 -25 L 25 -25 L 25 25 L -25 25 Z " fill="rgb(228,220,242)" stroke="rgb(0,0,0)" stroke-width="0.5" stroke-opacity="0.5" fill-opacity="0.5" visibility="visible" stroke-linecap="butt" stroke-linejoin="miter" stroke-miterlimit="4"></path><path transform="matrix(1 0 0 1 500 350)" id="two-74" d="M -25 -25 L 25 -25 L 25 25 L -25 25 Z " fill="rgb(152,119,182)" stroke="rgb(0,0,0)" stroke-width="0.5" stroke-opacity="0.5" fill-opacity="0.5" visibility="visible" stroke-linecap="butt" stroke-linejoin="miter" stroke-miterlimit="4"></path><path transform="matrix(1 0 0 1 400 400)" id="two-75" d="M -25 -25 L 25 -25 L 25 25 L -25 25 Z " fill="rgb(228,220,242)" stroke="rgb(0,0,0)" stroke-width="0.5" stroke-opacity="0.5" fill-opacity="0.5" visibility="visible" stroke-linecap="butt" stroke-linejoin="miter" stroke-miterlimit="4"></path><path transform="matrix(1 0 0 1 450 400)" id="two-76" d="M -25 -25 L 25 -25 L 25 25 L -25 25 Z " fill="rgb(152,119,182)" stroke="rgb(0,0,0)" stroke-width="0.5" stroke-opacity="0.5" fill-opacity="0.5" visibility="visible" stroke-linecap="butt" stroke-linejoin="miter" stroke-miterlimit="4"></path><path transform="matrix(1 0 0 1 500 400)" id="two-77" d="M -25 -25 L 25 -25 L 25 25 L -25 25 Z " fill="rgb(228,220,242)" stroke="rgb(0,0,0)" stroke-width="0.5" stroke-opacity="0.5" fill-opacity="0.5" visibility="visible" stroke-linecap="butt" stroke-linejoin="miter" stroke-miterlimit="4"></path><path transform="matrix(1 0 0 1 450 350)" id="two-78" d="M -50 50 L 0 50 L 0 0 L -50 0 L -50 -50 L 0 -50 L 50 -50 L 50 0 L 50 50 " fill="none" stroke="rgb(80,80,140)" stroke-width="10" stroke-opacity="1" fill-opacity="1" visibility="visible" stroke-linecap="round" stroke-linejoin="round" stroke-miterlimit="4"></path><path transform="matrix(1 0 0 1 400 400)" id="two-79" d="M 8.5 0 C 8.5 4.69442 4.69442 8.5 0 8.5 C -4.694421 8.5 -8.5 4.69442 -8.5 0 C -8.5 -4.694421 -4.694421 -8.5 -0.000001 -8.5 C 4.69442 -8.500001 8.5 -4.694421 8.5 0 Z " fill="rgb(80,80,140)" stroke="rgb(80,80,140)" stroke-width="0" stroke-opacity="1" fill-opacity="1" visibility="visible" stroke-linecap="butt" stroke-linejoin="miter" stroke-miterlimit="4"></path></g></svg>